<?xml version="1.0" encoding="utf-8"?>
<!-- Generator: Adobe Illustrator 16.0.0, SVG Export Plug-In . SVG Version: 6.00 Build 0)  -->
<!DOCTYPE svg PUBLIC "-//W3C//DTD SVG 1.1//EN" "http://www.w3.org/Graphics/SVG/1.1/DTD/svg11.dtd">
<svg version="1.1" id="Layer_1" xmlns="http://www.w3.org/2000/svg" xmlns:xlink="http://www.w3.org/1999/xlink" x="0px" y="0px"
	 width="700px" height="200px" viewBox="0 0 700 200" enable-background="new 0 0 700 200" xml:space="preserve">
<rect x="20" y="68" fill="#0099E7" width="150" height="63"/>
<g>
	
		<rect x="80.826767" y="84.485527" transform="matrix(0.7071151 0.7070985 -0.7070985 0.7071151 98.139595 -38.5080872)" fill="#333333" stroke="#686868" stroke-width="1.5502466" stroke-miterlimit="10" width="29.45438" height="29.4547272"/>
	<g>
		<g>
			<path fill="#DCDCDC" d="M78.7006836,106.4755859c-1.5073242,1.5068359-3.3569336,2.1230469-4.1108398,1.3701172
				c-0.7539063-0.7539063-0.137207-2.6044922,1.3701172-4.1113281l1.3710938-1.3701172
				c1.5073242-1.5073242,3.3569336-2.1235352,4.1103516-1.3701172c0.753418,0.7539063,0.1367188,2.6035156-1.3706055,4.1103516
				L78.7006836,106.4755859z"/>
		</g>
		<g>
			<path fill="#DCDCDC" d="M84.8666992,112.6416016c-1.5073242,1.5068359-3.3569336,2.1240234-4.1103516,1.3701172
				s-0.1367188-2.6035156,1.3701172-4.1103516l1.3706055-1.3710938c1.5068359-1.5068359,3.3564453-2.1240234,4.1103516-1.3701172
				c0.753418,0.7539063,0.1367188,2.6035156-1.3706055,4.1103516L84.8666992,112.6416016z"/>
		</g>
		<g>
			<path fill="#DCDCDC" d="M91.0327148,118.8076172c-1.5068359,1.5068359-3.3569336,2.1240234-4.1108398,1.3701172
				s-0.137207-2.6035156,1.3696289-4.1103516l1.3720703-1.3720703c1.5068359-1.5068359,3.3564453-2.1230469,4.1098633-1.3691406
				c0.7539063,0.7529297,0.1367188,2.6035156-1.3701172,4.1103516L91.0327148,118.8076172z"/>
		</g>
	</g>
	<g>
		<g>
			<path fill="#DCDCDC" d="M100.6240234,84.5517578c-1.5073242,1.5073242-3.3569336,2.1235352-4.1103516,1.3696289
				c-0.7539063-0.7539063-0.1367188-2.6035156,1.3706055-4.1108398l1.3701172-1.3701172
				c1.5073242-1.5073242,3.3574219-2.1235352,4.1108398-1.3701172c0.7539063,0.753418,0.137207,2.6030273-1.3701172,4.1103516
				L100.6240234,84.5517578z"/>
		</g>
		<g>
			<path fill="#DCDCDC" d="M106.7900391,90.7172852c-1.5068359,1.5073242-3.3564453,2.1240234-4.1103516,1.3706055
				c-0.753418-0.753418-0.1367188-2.6035156,1.3706055-4.1108398l1.3701172-1.3701172
				c1.5073242-1.5073242,3.3569336-2.1240234,4.1103516-1.3706055s0.1367188,2.6035156-1.3701172,4.1108398L106.7900391,90.7172852z
				"/>
		</g>
		<g>
			<path fill="#DCDCDC" d="M112.956543,96.8837891c-1.5073242,1.5068359-3.3569336,2.1235352-4.1108398,1.3701172
				c-0.753418-0.753418-0.1367188-2.6035156,1.3706055-4.1108398l1.3696289-1.3701172
				c1.5073242-1.5073242,3.3569336-2.1240234,4.1113281-1.3706055c0.7539063,0.753418,0.137207,2.6035156-1.3701172,4.1103516
				L112.956543,96.8837891z"/>
		</g>
	</g>
	<g>
		<g>
			<path fill="#DCDCDC" d="M101.9951172,115.2451172c1.5073242,1.5068359,2.1240234,3.3564453,1.3701172,4.1103516
				c-0.753418,0.7539063-2.6035156,0.1367188-4.1103516-1.3701172l-1.3710938-1.3710938
				c-1.5068359-1.5068359-2.1240234-3.3564453-1.3701172-4.1103516c0.753418-0.7539063,2.6030273-0.1367188,4.1103516,1.3701172
				L101.9951172,115.2451172z"/>
		</g>
		<g>
			<path fill="#DCDCDC" d="M108.1601563,109.078125c1.5073242,1.5068359,2.1240234,3.3574219,1.3706055,4.1113281
				c-0.753418,0.7529297-2.6030273,0.1367188-4.1103516-1.3701172l-1.3701172-1.3710938
				c-1.5073242-1.5068359-2.1240234-3.3564453-1.3706055-4.1103516c0.7539063-0.7539063,2.6035156-0.1367188,4.1108398,1.3701172
				L108.1601563,109.078125z"/>
		</g>
		<g>
			<path fill="#DCDCDC" d="M114.3271484,102.9130859c1.5073242,1.5068359,2.1240234,3.3564453,1.3701172,4.1103516
				c-0.7543945,0.7539063-2.6040039,0.1367188-4.1113281-1.3710938l-1.3696289-1.3691406
				c-1.5073242-1.5078125-2.1240234-3.3579102-1.3706055-4.1113281c0.7539063-0.753418,2.6035156-0.1367188,4.1108398,1.3701172
				L114.3271484,102.9130859z"/>
		</g>
	</g>
	<g>
		<g>
			<path fill="#DCDCDC" d="M89.2519531,83.0439453c-1.5073242-1.5073242-2.1245117-3.3569336-1.3710938-4.1103516
				c0.7539063-0.753418,2.6035156-0.1367188,4.1108398,1.3701172l1.3696289,1.3701172
				c1.5073242,1.5068359,2.1245117,3.3569336,1.3710938,4.1103516c-0.7529297,0.753418-2.6025391,0.137207-4.1098633-1.3701172
				L89.2519531,83.0439453z"/>
		</g>
		<g>
			<path fill="#DCDCDC" d="M83.0854492,89.2099609c-1.5073242-1.5068359-2.1240234-3.3569336-1.3701172-4.1103516
				s2.6040039-0.1367188,4.1108398,1.3701172l1.3701172,1.3701172c1.5068359,1.5068359,2.1235352,3.3569336,1.3701172,4.1103516
				c-0.7539063,0.753418-2.6040039,0.1367188-4.1113281-1.3701172L83.0854492,89.2099609z"/>
		</g>
		<g>
			<path fill="#DCDCDC" d="M76.9189453,95.3759766c-1.5068359-1.5068359-2.1240234-3.3569336-1.3701172-4.1103516
				c0.753418-0.753418,2.6030273-0.137207,4.1103516,1.3701172l1.371582,1.3710938
				c1.5073242,1.5073242,2.1240234,3.3569336,1.3701172,4.1103516s-2.6040039,0.1367188-4.1108398-1.3701172L76.9189453,95.3759766z
				"/>
		</g>
	</g>
	
		<rect x="80.826767" y="84.485527" transform="matrix(0.7071151 0.7070985 -0.7070985 0.7071151 98.139595 -38.5080872)" fill="#333333" width="29.45438" height="29.4547272"/>
	<polygon opacity="0.1" fill="#DCDCDC" points="96,78.3857422 96,120.0400391 116.828125,99.2128906 	"/>
</g>
<g>
	<path d="M578.3945313,90.2373047v-1.546875h5.2998047v1.546875l-1.3710938,0.2636719v3.6914063h5.2207031v-3.6914063
		l-1.3710938-0.2636719v-1.546875h1.3710938h2.5576172h1.3710938v1.546875l-1.3710938,0.2636719v9.1845703l1.3710938,0.2636719
		v1.5380859h-5.2998047v-1.5380859l1.3710938-0.2636719v-3.515625h-5.2207031v3.515625l1.3710938,0.2636719v1.5380859h-5.2998047
		v-1.5380859l1.3623047-0.2636719v-9.1845703L578.3945313,90.2373047z"/>
	<path d="M603.7333984,88.6904297v3.4101563h-1.96875l-0.1054688-1.4326172h-2.3554688v9.0175781l1.3710938,0.2636719v1.5380859
		h-5.3085938v-1.5380859l1.3710938-0.2636719v-9.0175781h-2.3466797l-0.1054688,1.4326172h-1.9599609v-3.4101563H603.7333984z"/>
	<path d="M616.9169922,92.0214844l-0.0527344-0.0087891l-3.4277344,9.4746094h-1.7226563l-3.4101563-9.4394531l-0.0527344,0.0087891
		l0.2460938,5.6162109v2.0126953l1.3710938,0.2636719v1.5380859h-5.2998047v-1.5380859l1.3623047-0.2636719v-9.1845703
		l-1.3623047-0.2636719v-1.546875h1.3623047h3.3486328l3.2607422,9.4306641h0.0527344l3.2871094-9.4306641h4.7285156v1.546875
		l-1.3710938,0.2636719v9.1845703l1.3710938,0.2636719v1.5380859h-5.2998047v-1.5380859l1.3623047-0.2636719v-2.0126953
		L616.9169922,92.0214844z"/>
	<path d="M621.5224609,101.4873047v-1.5380859l1.3623047-0.2636719v-9.1845703l-1.3623047-0.2636719v-1.546875h1.3623047h2.5664063
		h1.3710938v1.546875l-1.3710938,0.2636719v9.0175781h3.6123047l0.1230469-1.6083984h1.9599609v3.5771484H621.5224609z"/>
</g>
<g>
	<path d="M598.9697266,115.0673828H597.0625l-0.2636719-1.7050781c-0.2519531-0.2519531-0.5703125-0.4511719-0.9541016-0.5976563
		s-0.8359375-0.2197266-1.3574219-0.2197266c-1.1132813,0-1.9707031,0.4042969-2.5712891,1.2128906
		s-0.9003906,1.8632813-0.9003906,3.1640625v0.4482422c0,1.3007813,0.2988281,2.3583984,0.8964844,3.1728516
		s1.4414063,1.2216797,2.53125,1.2216797c0.5039063,0,0.9648438-0.0732422,1.3837891-0.2197266
		s0.7431641-0.3457031,0.9716797-0.5976563l0.2636719-1.7050781h1.9072266v2.53125
		c-0.515625,0.5976563-1.1738281,1.0732422-1.9736328,1.4277344s-1.6943359,0.5322266-2.6845703,0.5322266
		c-1.7167969,0-3.1230469-0.5947266-4.21875-1.7841797s-1.6435547-2.7158203-1.6435547-4.5791016v-0.4306641
		c0-1.8574219,0.5449219-3.3837891,1.6347656-4.5791016s2.4990234-1.7929688,4.2275391-1.7929688
		c0.9902344,0,1.8837891,0.1796875,2.6806641,0.5400391s1.4560547,0.8369141,1.9775391,1.4287109V115.0673828z"/>
	<path d="M609.8681641,114.8388672h-1.9248047l-0.3339844-1.7578125c-0.2226563-0.140625-0.5478516-0.2636719-0.9755859-0.3691406
		s-0.8818359-0.1582031-1.3623047-0.1582031c-0.703125,0-1.2470703,0.1474609-1.6308594,0.4433594
		s-0.5751953,0.6787109-0.5751953,1.1474609c0,0.4335938,0.2001953,0.7890625,0.6015625,1.0673828
		s1.0947266,0.5732422,2.0791016,0.8837891c1.4121094,0.3925781,2.4824219,0.9111328,3.2119141,1.5556641
		s1.0947266,1.4912109,1.0947266,2.5400391c0,1.0957031-0.4335938,1.9599609-1.3007813,2.5927734
		s-2.0097656,0.9492188-3.4277344,0.9492188c-1.0136719,0-1.9296875-0.1611328-2.7470703-0.4833984
		s-1.4980469-0.7675781-2.0429688-1.3359375v-2.671875h1.9863281l0.2724609,1.8193359
		c0.2578125,0.2109375,0.6074219,0.3847656,1.0498047,0.5224609s0.9365234,0.2070313,1.4814453,0.2070313
		c0.703125,0,1.2373047-0.1435547,1.6035156-0.4306641s0.5498047-0.6708984,0.5498047-1.1513672
		c0-0.4921875-0.1748047-0.8876953-0.5234375-1.1865234s-0.9589844-0.5800781-1.8320313-0.84375
		c-1.5175781-0.4394531-2.6660156-0.9609375-3.4453125-1.5644531s-1.1689453-1.4296875-1.1689453-2.4785156
		c0-1.0371094,0.4394531-1.8857422,1.3183594-2.5449219s1.9833984-0.9970703,3.3134766-1.0146484
		c0.984375,0,1.8808594,0.1494141,2.6894531,0.4482422s1.4882813,0.6972656,2.0390625,1.1953125V114.8388672z"/>
	<path d="M620.7841797,114.8388672h-1.9248047l-0.3339844-1.7578125c-0.2226563-0.140625-0.5478516-0.2636719-0.9755859-0.3691406
		s-0.8818359-0.1582031-1.3623047-0.1582031c-0.703125,0-1.2470703,0.1474609-1.6308594,0.4433594
		s-0.5751953,0.6787109-0.5751953,1.1474609c0,0.4335938,0.2001953,0.7890625,0.6015625,1.0673828
		s1.0947266,0.5732422,2.0791016,0.8837891c1.4121094,0.3925781,2.4824219,0.9111328,3.2119141,1.5556641
		s1.0947266,1.4912109,1.0947266,2.5400391c0,1.0957031-0.4335938,1.9599609-1.3007813,2.5927734
		s-2.0097656,0.9492188-3.4277344,0.9492188c-1.0136719,0-1.9296875-0.1611328-2.7470703-0.4833984
		s-1.4980469-0.7675781-2.0429688-1.3359375v-2.671875h1.9863281l0.2724609,1.8193359
		c0.2578125,0.2109375,0.6074219,0.3847656,1.0498047,0.5224609s0.9365234,0.2070313,1.4814453,0.2070313
		c0.703125,0,1.2373047-0.1435547,1.6035156-0.4306641s0.5498047-0.6708984,0.5498047-1.1513672
		c0-0.4921875-0.1748047-0.8876953-0.5234375-1.1865234s-0.9589844-0.5800781-1.8320313-0.84375
		c-1.5175781-0.4394531-2.6660156-0.9609375-3.4453125-1.5644531s-1.1689453-1.4296875-1.1689453-2.4785156
		c0-1.0371094,0.4394531-1.8857422,1.3183594-2.5449219s1.9833984-0.9970703,3.3134766-1.0146484
		c0.984375,0,1.8808594,0.1494141,2.6894531,0.4482422s1.4882813,0.6972656,2.0390625,1.1953125V114.8388672z"/>
</g>
<g>
	<path d="M199.9306641,140.0175781h-1.9072266l-0.2636719-1.7050781c-0.2519531-0.2519531-0.5698242-0.4511719-0.9536133-0.5976563
		s-0.8364258-0.21875-1.3579102-0.21875c-1.1132813,0-1.9702148,0.4042969-2.5708008,1.2128906
		s-0.9008789,1.8632813-0.9008789,3.1640625v0.4472656c0,1.3007813,0.2988281,2.359375,0.8964844,3.1738281
		s1.4414063,1.2207031,2.53125,1.2207031c0.5039063,0,0.965332-0.0722656,1.3842773-0.21875
		s0.7426758-0.3457031,0.9711914-0.5976563l0.2636719-1.7050781h1.9072266v2.53125
		c-0.515625,0.5976563-1.1733398,1.0732422-1.9731445,1.4277344s-1.6948242,0.53125-2.6850586,0.53125
		c-1.7167969,0-3.1230469-0.59375-4.21875-1.7832031s-1.6435547-2.7167969-1.6435547-4.5800781v-0.4296875
		c0-1.8574219,0.5449219-3.3847656,1.6347656-4.5800781s2.4990234-1.7929688,4.2275391-1.7929688
		c0.9902344,0,1.8837891,0.1806641,2.6806641,0.5410156s1.4560547,0.8359375,1.9775391,1.4277344V140.0175781z"/>
	<path d="M201.0292969,146.9609375l1.2392578-0.2636719v-10.0976563l-1.3710938-0.2636719v-1.546875h3.9287109v5.4140625
		c0.2988281-0.4394531,0.6650391-0.78125,1.0986328-1.0244141s0.9140625-0.3642578,1.4414063-0.3642578
		c0.9960938,0,1.7768555,0.3291016,2.3422852,0.9882813s0.8481445,1.6777344,0.8481445,3.0546875v3.8398438l1.2304688,0.2636719
		V148.5h-4.9042969v-1.5390625l1.1074219-0.2636719v-3.8574219c0-0.7382813-0.1303711-1.2617188-0.3911133-1.5693359
		s-0.6489258-0.4619141-1.1645508-0.4619141c-0.3574219,0-0.6694336,0.0644531-0.9360352,0.1933594
		s-0.4907227,0.3105469-0.6723633,0.5449219v5.1503906l1.1074219,0.2636719V148.5h-4.9042969V146.9609375z"/>
	<path d="M212.8066406,146.9609375l1.2304688-0.2636719v-5.8964844l-1.3623047-0.2636719v-1.546875h3.7529297l0.1142578,1.3886719
		c0.2226563-0.4921875,0.5097656-0.8769531,0.8613281-1.1523438s0.7587891-0.4121094,1.2216797-0.4121094
		c0.1347656,0,0.2768555,0.0097656,0.4262695,0.0302734s0.2739258,0.0458984,0.3735352,0.0751953l-0.2724609,2.3378906
		l-1.0546875-0.0273438c-0.375,0-0.6855469,0.0742188-0.9316406,0.2207031s-0.4335938,0.3535156-0.5625,0.6230469v4.6230469
		l1.2304688,0.2636719V148.5h-5.0273438V146.9609375z"/>
	<path d="M220.0136719,143.65625c0-1.4179688,0.3969727-2.5791016,1.190918-3.484375s1.8911133-1.3574219,3.2915039-1.3574219
		c1.40625,0,2.5063477,0.4511719,3.300293,1.3535156s1.190918,2.0644531,1.190918,3.4882813v0.1855469
		c0,1.4296875-0.3969727,2.59375-1.190918,3.4931641s-1.8881836,1.3486328-3.2827148,1.3486328
		c-1.4121094,0-2.5151367-0.4492188-3.309082-1.3486328s-1.190918-2.0634766-1.190918-3.4931641V143.65625z
		 M222.5800781,143.8417969c0,0.8671875,0.1523438,1.5625,0.4570313,2.0869141s0.796875,0.7861328,1.4765625,0.7861328
		c0.6621094,0,1.1469727-0.2636719,1.4545898-0.7910156s0.4614258-1.2207031,0.4614258-2.0820313V143.65625
		c0-0.84375-0.1552734-1.53125-0.4658203-2.0644531s-0.7998047-0.8007813-1.4677734-0.8007813
		s-1.1542969,0.2675781-1.4589844,0.8007813s-0.4570313,1.2207031-0.4570313,2.0644531V143.8417969z"/>
	<path d="M229.8046875,140.5371094v-1.546875h3.7529297l0.1054688,1.2558594
		c0.3046875-0.4570313,0.6870117-0.8095703,1.1469727-1.0585938s0.9916992-0.3730469,1.5952148-0.3730469
		c0.609375,0,1.1308594,0.1347656,1.5644531,0.4042969s0.7617188,0.6757813,0.984375,1.2207031
		c0.2929688-0.5097656,0.6738281-0.9082031,1.1425781-1.1953125s1.0195313-0.4296875,1.6523438-0.4296875
		c0.9375,0,1.6772461,0.3232422,2.2192383,0.9707031s0.8129883,1.6328125,0.8129883,2.9570313v3.9550781l1.2392578,0.2636719V148.5
		h-4.9130859v-1.5390625l1.1074219-0.2636719v-3.9628906c0-0.7207031-0.1171875-1.2226563-0.3515625-1.5039063
		s-0.5830078-0.421875-1.0458984-0.421875c-0.3632813,0-0.6782227,0.0810547-0.9448242,0.2421875
		s-0.4790039,0.3847656-0.637207,0.671875c0,0.1113281,0.0029297,0.2070313,0.0087891,0.2861328
		s0.0087891,0.1591797,0.0087891,0.2412109v4.4472656l1.0371094,0.2636719V148.5h-4.6318359v-1.5390625l1.0371094-0.2636719
		v-3.9628906c0-0.703125-0.1171875-1.2001953-0.3515625-1.4902344s-0.5859375-0.4355469-1.0546875-0.4355469
		c-0.3457031,0-0.6489258,0.0664063-0.909668,0.1982422s-0.4760742,0.3173828-0.6459961,0.5576172v5.1328125l1.1074219,0.2636719
		V148.5h-4.9042969v-1.5390625l1.2392578-0.2636719v-5.8964844L229.8046875,140.5371094z"/>
	<path d="M251.3115234,148.6835938c-1.3710938,0-2.4667969-0.4394531-3.2871094-1.3183594s-1.2304688-1.9941406-1.2304688-3.3476563
		v-0.3515625c0-1.4121094,0.3881836-2.5761719,1.1645508-3.4902344s1.8178711-1.3671875,3.1245117-1.3613281
		c1.2832031,0,2.2792969,0.3867188,2.9882813,1.1601563s1.0634766,1.8183594,1.0634766,3.1367188v1.3984375h-5.6777344
		l-0.0175781,0.0527344c0.046875,0.6269531,0.2563477,1.1425781,0.628418,1.546875s0.8774414,0.6054688,1.5161133,0.6054688
		c0.5683594,0,1.0400391-0.0566406,1.4150391-0.1708984s0.7851563-0.2939453,1.2304688-0.5400391l0.6943359,1.5820313
		c-0.3925781,0.3105469-0.9008789,0.5703125-1.5249023,0.78125S252.0791016,148.6835938,251.3115234,148.6835938z
		 M251.0830078,140.7910156c-0.4746094,0-0.8496094,0.1816406-1.125,0.5449219s-0.4453125,0.8417969-0.5097656,1.4335938
		l0.0263672,0.0429688h3.1464844v-0.2285156c0-0.5449219-0.1274414-0.9794922-0.3823242-1.3046875
		S251.5986328,140.7910156,251.0830078,140.7910156z"/>
	<path d="M260.5664063,146.9609375l0.9140625-0.1308594l3.8935547-11.1269531h2.6279297l3.8671875,11.1269531l0.9140625,0.1308594
		V148.5h-4.359375v-1.5390625l0.8876953-0.1582031l-0.5625-1.7578125h-4.1484375l-0.5625,1.7578125l0.8876953,0.1582031V148.5
		h-4.359375V146.9609375z M265.2070313,143.15625h2.9355469l-1.4414063-4.5097656h-0.0527344L265.2070313,143.15625z"/>
	<path d="M279.7177734,135.703125c1.4648438,0,2.6206055,0.3759766,3.4672852,1.1289063s1.2700195,1.7382813,1.2700195,2.9570313
		c0,1.2246094-0.4233398,2.2089844-1.2700195,2.953125s-2.0024414,1.1171875-3.4672852,1.1171875h-2.1621094v2.8378906
		l1.3710938,0.2636719V148.5h-5.2998047v-1.5390625l1.3623047-0.2636719v-9.1835938L273.6269531,137.25v-1.546875h1.3623047
		H279.7177734z M277.5556641,141.8808594h2.1621094c0.7148438,0,1.2553711-0.1943359,1.621582-0.5839844
		s0.5493164-0.8867188,0.5493164-1.4902344c0-0.6152344-0.1831055-1.1230469-0.5493164-1.5244141
		s-0.9067383-0.6025391-1.621582-0.6025391h-2.1621094V141.8808594z"/>
	<path d="M285.2636719,137.25v-1.546875h5.2998047V137.25l-1.3710938,0.2636719v9.1835938l1.3710938,0.2636719V148.5h-5.2998047
		v-1.5390625l1.3710938-0.2636719v-9.1835938L285.2636719,137.25z"/>
</g>
<g>
	<path d="M194.4550781,51.9570313h-1.9248047l-0.3339844-1.7578125c-0.2226563-0.140625-0.5478516-0.2636719-0.9755859-0.3691406
		s-0.8818359-0.1582031-1.3623047-0.1582031c-0.703125,0-1.246582,0.1479492-1.6303711,0.4438477
		s-0.5756836,0.6782227-0.5756836,1.1469727c0,0.4335938,0.2006836,0.7895508,0.6020508,1.0678711
		s1.0942383,0.5727539,2.0786133,0.8833008c1.4121094,0.3925781,2.4829102,0.9111328,3.2124023,1.5556641
		s1.0942383,1.4912109,1.0942383,2.5400391c0,1.0957031-0.4335938,1.9599609-1.3007813,2.5927734
		s-2.0097656,0.9492188-3.4277344,0.9492188c-1.0136719,0-1.9291992-0.1611328-2.746582-0.4833984
		s-1.4985352-0.7675781-2.043457-1.3359375v-2.671875h1.9863281l0.2724609,1.8193359
		c0.2578125,0.2109375,0.6079102,0.3852539,1.050293,0.5229492s0.9360352,0.206543,1.480957,0.206543
		c0.703125,0,1.237793-0.1435547,1.6040039-0.4306641s0.5493164-0.6708984,0.5493164-1.1513672
		c0-0.4921875-0.1743164-0.8876953-0.5229492-1.1865234s-0.9594727-0.5800781-1.8325195-0.84375
		c-1.5175781-0.4394531-2.6660156-0.9609375-3.4453125-1.5644531s-1.1689453-1.4296875-1.1689453-2.4785156
		c0-1.0371094,0.4394531-1.8852539,1.3183594-2.5444336s1.9833984-0.9975586,3.3134766-1.0151367
		c0.984375,0,1.8808594,0.1494141,2.6894531,0.4482422s1.4882813,0.6972656,2.0390625,1.1953125V51.9570313z"/>
	<path d="M200.2646484,60.8515625c-1.3710938,0-2.4667969-0.4394531-3.2871094-1.3183594s-1.2304688-1.9951172-1.2304688-3.3486328
		v-0.3515625c0-1.4121094,0.3881836-2.5751953,1.1645508-3.4892578s1.8178711-1.3681641,3.1245117-1.3623047
		c1.2832031,0,2.2792969,0.3867188,2.9882813,1.1601563s1.0634766,1.8193359,1.0634766,3.1376953v1.3974609h-5.6777344
		l-0.0175781,0.0527344c0.046875,0.6269531,0.2563477,1.1425781,0.628418,1.546875s0.8774414,0.6064453,1.5161133,0.6064453
		c0.5683594,0,1.0400391-0.0571289,1.4150391-0.1713867s0.7851563-0.2944336,1.2304688-0.5405273l0.6943359,1.5820313
		c-0.3925781,0.3105469-0.9008789,0.5712891-1.5249023,0.7822266S201.0322266,60.8515625,200.2646484,60.8515625z
		 M200.0361328,52.9589844c-0.4746094,0-0.8496094,0.1816406-1.125,0.5449219s-0.4453125,0.8408203-0.5097656,1.4326172
		l0.0263672,0.0439453h3.1464844v-0.2285156c0-0.5449219-0.1274414-0.9799805-0.3823242-1.3051758
		S200.5517578,52.9589844,200.0361328,52.9589844z"/>
	<path d="M205.4941406,59.1289063l1.2304688-0.2636719v-5.8974609l-1.3623047-0.2636719v-1.546875h3.7529297l0.1142578,1.3886719
		c0.2226563-0.4921875,0.5097656-0.8759766,0.8613281-1.1513672s0.7587891-0.4130859,1.2216797-0.4130859
		c0.1347656,0,0.2768555,0.0102539,0.4262695,0.0307617s0.2739258,0.0454102,0.3735352,0.074707l-0.2724609,2.3378906
		l-1.0546875-0.0263672c-0.375,0-0.6855469,0.0732422-0.9316406,0.2197266s-0.4335938,0.3544922-0.5625,0.6240234v4.6230469
		l1.2304688,0.2636719v1.5380859h-5.0273438V59.1289063z"/>
	<path d="M212.7978516,59.1289063l1.2392578-0.2636719v-5.8974609l-1.3710938-0.2636719v-1.546875h3.9375v7.7080078
		l1.2304688,0.2636719v1.5380859h-5.0361328V59.1289063z M216.6035156,48.8808594h-2.5664063v-1.9248047h2.5664063V48.8808594z"/>
	<path d="M224.7333984,60.6669922c-0.0703125-0.1582031-0.1318359-0.3208008-0.1845703-0.487793
		s-0.09375-0.3354492-0.1230469-0.5053711c-0.3046875,0.3515625-0.675293,0.6357422-1.1118164,0.8525391
		s-0.9360352,0.3251953-1.4985352,0.3251953c-0.9316406,0-1.6713867-0.253418-2.2192383-0.7602539
		s-0.8217773-1.1967773-0.8217773-2.0698242c0-0.890625,0.3574219-1.5791016,1.0722656-2.0654297
		s1.7636719-0.7294922,3.1464844-0.7294922h1.3095703v-0.9316406c0-0.4570313-0.1318359-0.8115234-0.3955078-1.0634766
		s-0.6533203-0.3779297-1.1689453-0.3779297c-0.2929688,0-0.5537109,0.0336914-0.7822266,0.1010742
		s-0.4130859,0.1479492-0.5537109,0.2416992l-0.1669922,1.0195313h-1.9335938l0.0087891-2.109375
		c0.46875-0.3164063,1.0063477-0.5830078,1.612793-0.7998047s1.2670898-0.3251953,1.9819336-0.3251953
		c1.1777344,0,2.1342773,0.2885742,2.8696289,0.8657227s1.1030273,1.3989258,1.1030273,2.465332v3.9287109
		c0,0.1464844,0.0014648,0.2841797,0.0043945,0.4130859s0.0131836,0.2519531,0.0307617,0.3691406l0.7822266,0.1054688v1.5380859
		H224.7333984z M222.5097656,58.953125c0.3867188,0,0.7382813-0.0834961,1.0546875-0.2504883s0.5625-0.3764648,0.7382813-0.628418
		v-1.4501953h-1.3095703c-0.5449219,0-0.9580078,0.1274414-1.2392578,0.3823242s-0.421875,0.5610352-0.421875,0.918457
		c0,0.3222656,0.1040039,0.5742188,0.3120117,0.7558594S222.140625,58.953125,222.5097656,58.953125z"/>
	<path d="M228.2929688,48.5029297v-1.546875h3.9375v11.9091797l1.2392578,0.2636719v1.5380859h-5.0449219v-1.5380859
		l1.2392578-0.2636719V48.7666016L228.2929688,48.5029297z"/>
	<path d="M238.4443359,48.5029297v-1.546875h3.9375v11.9091797l1.2392578,0.2636719v1.5380859h-5.0449219v-1.5380859
		l1.2392578-0.2636719V48.7666016L238.4443359,48.5029297z"/>
	<path d="M244.3769531,59.1289063l1.2392578-0.2636719v-5.8974609l-1.3710938-0.2636719v-1.546875h3.9375v7.7080078
		l1.2304688,0.2636719v1.5380859h-5.0361328V59.1289063z M248.1826172,48.8808594h-2.5664063v-1.9248047h2.5664063V48.8808594z"/>
	<path d="M259.4501953,56.1757813c0,1.4179688-0.3164063,2.5517578-0.9492188,3.4013672s-1.546875,1.2744141-2.7421875,1.2744141
		c-0.5566406,0-1.0400391-0.1157227-1.4501953-0.347168s-0.7558594-0.5668945-1.0371094-1.0063477l-0.1845703,1.1689453h-2.2148438
		V48.7666016l-1.3623047-0.2636719v-1.546875h3.9199219v5.2119141c0.2753906-0.3808594,0.6049805-0.6738281,0.9887695-0.8789063
		s0.824707-0.3076172,1.3227539-0.3076172c1.2070313,0,2.1269531,0.4555664,2.7597656,1.3666992
		s0.9492188,2.1254883,0.9492188,3.6430664V56.1757813z M256.8925781,55.9912109
		c0-0.9257813-0.1362305-1.659668-0.4086914-2.2016602s-0.7368164-0.8129883-1.3930664-0.8129883
		c-0.3984375,0-0.7353516,0.0834961-1.0107422,0.2504883s-0.4921875,0.4057617-0.6503906,0.7163086v4.0166016
		c0.1582031,0.2929688,0.3764648,0.515625,0.6547852,0.6679688s0.6196289,0.2285156,1.0239258,0.2285156
		c0.6621094,0,1.125-0.2329102,1.3886719-0.6987305s0.3955078-1.1264648,0.3955078-1.9819336V55.9912109z"/>
	<path d="M260.8300781,59.1289063l1.2304688-0.2636719v-5.8974609l-1.3623047-0.2636719v-1.546875h3.7529297l0.1142578,1.3886719
		c0.2226563-0.4921875,0.5097656-0.8759766,0.8613281-1.1513672s0.7587891-0.4130859,1.2216797-0.4130859
		c0.1347656,0,0.2768555,0.0102539,0.4262695,0.0307617s0.2739258,0.0454102,0.3735352,0.074707l-0.2724609,2.3378906
		l-1.0546875-0.0263672c-0.375,0-0.6855469,0.0732422-0.9316406,0.2197266s-0.4335938,0.3544922-0.5625,0.6240234v4.6230469
		l1.2304688,0.2636719v1.5380859h-5.0273438V59.1289063z"/>
	<path d="M274.0927734,60.6669922c-0.0703125-0.1582031-0.1318359-0.3208008-0.1845703-0.487793
		s-0.09375-0.3354492-0.1230469-0.5053711c-0.3046875,0.3515625-0.675293,0.6357422-1.1118164,0.8525391
		s-0.9360352,0.3251953-1.4985352,0.3251953c-0.9316406,0-1.6713867-0.253418-2.2192383-0.7602539
		s-0.8217773-1.1967773-0.8217773-2.0698242c0-0.890625,0.3574219-1.5791016,1.0722656-2.0654297
		s1.7636719-0.7294922,3.1464844-0.7294922h1.3095703v-0.9316406c0-0.4570313-0.1318359-0.8115234-0.3955078-1.0634766
		s-0.6533203-0.3779297-1.1689453-0.3779297c-0.2929688,0-0.5537109,0.0336914-0.7822266,0.1010742
		s-0.4130859,0.1479492-0.5537109,0.2416992l-0.1669922,1.0195313h-1.9335938l0.0087891-2.109375
		c0.46875-0.3164063,1.0063477-0.5830078,1.612793-0.7998047s1.2670898-0.3251953,1.9819336-0.3251953
		c1.1777344,0,2.1342773,0.2885742,2.8696289,0.8657227s1.1030273,1.3989258,1.1030273,2.465332v3.9287109
		c0,0.1464844,0.0014648,0.2841797,0.0043945,0.4130859s0.0131836,0.2519531,0.0307617,0.3691406l0.7822266,0.1054688v1.5380859
		H274.0927734z M271.8691406,58.953125c0.3867188,0,0.7382813-0.0834961,1.0546875-0.2504883s0.5625-0.3764648,0.7382813-0.628418
		v-1.4501953h-1.3095703c-0.5449219,0-0.9580078,0.1274414-1.2392578,0.3823242s-0.421875,0.5610352-0.421875,0.918457
		c0,0.3222656,0.1040039,0.5742188,0.3120117,0.7558594S271.5,58.953125,271.8691406,58.953125z"/>
	<path d="M278.1181641,59.1289063l1.2304688-0.2636719v-5.8974609l-1.3623047-0.2636719v-1.546875h3.7529297l0.1142578,1.3886719
		c0.2226563-0.4921875,0.5097656-0.8759766,0.8613281-1.1513672s0.7587891-0.4130859,1.2216797-0.4130859
		c0.1347656,0,0.2768555,0.0102539,0.4262695,0.0307617s0.2739258,0.0454102,0.3735352,0.074707l-0.2724609,2.3378906
		l-1.0546875-0.0263672c-0.375,0-0.6855469,0.0732422-0.9316406,0.2197266s-0.4335938,0.3544922-0.5625,0.6240234v4.6230469
		l1.2304688,0.2636719v1.5380859h-5.0273438V59.1289063z"/>
	<path d="M295.5029297,52.7041016l-0.8876953,0.1318359l-3.4980469,9.2548828
		c-0.2753906,0.6855469-0.6430664,1.2597656-1.1030273,1.7226563s-1.152832,0.6943359-2.0786133,0.6943359
		c-0.2167969,0-0.4204102-0.0175781-0.6108398-0.0527344s-0.4145508-0.0849609-0.6723633-0.1494141l0.2988281-1.8720703
		c0.0820313,0.0117188,0.1669922,0.0234375,0.2548828,0.0351563s0.1640625,0.0175781,0.2285156,0.0175781
		c0.4277344,0,0.7558594-0.1040039,0.984375-0.3120117s0.4042969-0.4672852,0.5273438-0.777832l0.2900391-0.7207031
		l-3.0146484-7.8310547l-0.8876953-0.140625v-1.546875h4.6582031v1.546875l-1.0634766,0.1757813l1.3007813,3.796875
		l0.1318359,0.6855469l0.0527344,0.0087891l1.5029297-4.4912109l-1.0722656-0.1757813v-1.546875h4.6582031V52.7041016z"/>
</g>
<line fill="none" stroke="#000000" stroke-width="6" stroke-miterlimit="10" x1="442.3251953" y1="100" x2="474.9980469" y2="100"/>
<polygon points="442.3251953,114.3066406 417.546875,100 442.3251953,85.6933594 "/>
<polygon points="474.9980469,114.3066406 499.7763672,100 474.9980469,85.6933594 "/>
<line fill="none" stroke="#000000" stroke-width="6" stroke-miterlimit="10" x1="223.3261719" y1="100" x2="255.9990234" y2="100"/>
<polygon points="223.3261719,114.3066406 198.5478516,100 223.3261719,85.6933594 "/>
<polygon points="255.9990234,114.3066406 280.7773438,100 255.9990234,85.6933594 "/>
<g>
	<g>
		<path fill="#00546D" d="M301.949707,81.9169922c0-5.5185547,3.9101563-12.2915039,8.6894531-15.0507813l30.6708984-17.7075195
			c4.7792969-2.7592773,12.6000977-2.7597656,17.3793945-0.0004883l30.671875,17.7084961
			c4.7792969,2.7592773,8.6894531,9.5317383,8.6894531,15.050293v35.4150391c0,5.5185547-3.9101563,12.2919922-8.6894531,15.0507813
			l-30.671875,17.7080078c-4.7792969,2.7587891-12.6000977,2.7587891-17.3793945,0l-30.6708984-17.7080078
			c-4.7792969-2.7587891-8.6894531-9.5322266-8.6894531-15.0507813V81.9169922z"/>
	</g>
	
		<polyline fill="none" stroke="#FFFFFF" stroke-width="3.3901825" stroke-linecap="round" stroke-linejoin="round" stroke-miterlimit="10" points="
		330.4760742,109.7041016 313.019043,99.6245117 330.4760742,89.5458984 	"/>
	
		<polyline fill="none" stroke="#FFFFFF" stroke-width="3.3901825" stroke-linecap="round" stroke-linejoin="round" stroke-miterlimit="10" points="
		369.5253906,109.7041016 386.9824219,99.6245117 369.5253906,89.5458984 	"/>
	<g>
		<polygon fill="#F37920" points="364.0839844,102.25 352.3847656,95.4951172 367.8828125,68.6533203 335.9165039,96.9990234 
			347.6166992,103.7539063 332.1186523,130.5957031 		"/>
		<polygon fill="#FFF100" points="361.5703125,102.3603516 351.7089844,96.6665039 365.3730469,72.9985352 338.4311523,96.8896484 
			348.2924805,102.5830078 334.6137695,126.2753906 		"/>
	</g>
</g>
<path fill="none" stroke="#00546D" stroke-miterlimit="10" d="M683.5,155.0908203
	c0,1.8828125-1.5263672,3.4091797-3.4091797,3.4091797H527.9091797c-1.8828125,0-3.4091797-1.5263672-3.4091797-3.4091797
	V48.9091797C524.5,47.0263672,526.0263672,45.5,527.9091797,45.5h152.1816406C681.9736328,45.5,683.5,47.0263672,683.5,48.9091797
	V155.0908203z"/>
<line fill="none" stroke="#00546D" stroke-miterlimit="10" stroke-dasharray="10,5" x1="525" y1="61.5" x2="683" y2="61.5"/>
<rect x="662.2802734" y="50.765625" fill="none" stroke="#000000" stroke-miterlimit="10" width="7.3378906" height="6.0073242"/>
<rect x="662.2802734" y="50.765625" width="7.3378906" height="1.4521484"/>
<rect x="671.9314575" y="53.0429459" transform="matrix(0.7070403 0.7071733 -0.7071733 0.7070403 235.9478149 -462.0145264)" width="7.3383045" height="1.4521931"/>
<rect x="671.9324341" y="53.0423279" transform="matrix(-0.7070402 0.7071733 -0.7071733 -0.7070402 1191.3032227 -385.9810791)" width="7.3383045" height="1.4539193"/>
<rect x="651.8173828" y="55.3208008" width="7.3378906" height="1.4521484"/>
<g>
	<path d="M440.1757813,47.8701172v1.546875l-1.3710938,0.2636719v7.1455078c0,1.2363281-0.4033203,2.2163086-1.2080078,2.9399414
		c-0.8066406,0.7236328-1.8242188,1.0854492-3.0546875,1.0854492c-1.3359375,0-2.3935547-0.3251953-3.1728516-0.9755859
		s-1.1542969-1.6083984-1.125-2.8740234l0.0175781-0.0527344h2.4960938c0,0.6738281,0.1611328,1.1645508,0.4833984,1.472168
		s0.7558594,0.4614258,1.3007813,0.4614258c0.4746094,0,0.8769531-0.1831055,1.2089844-0.5493164
		c0.3300781-0.3662109,0.4960938-0.8686523,0.4960938-1.5073242v-7.1455078l-1.3710938-0.2636719v-1.546875h3.9287109H440.1757813z"
		/>
	<path d="M452.6035156,54.3652344c0,1.1132813-0.2011719,2.1298828-0.6025391,3.0498047s-0.9619141,1.6699219-1.6826172,2.25
		l2.7246094,1.6962891l-1.8105469,1.3974609l-3.0673828-2.0654297c-0.2285156,0.046875-0.4589844,0.0849609-0.6894531,0.1142578
		c-0.2324219,0.0292969-0.4619141,0.0439453-0.6904297,0.0439453c-1.7285156,0-3.1240234-0.6123047-4.1884766-1.8369141
		c-1.0625-1.2246094-1.5947266-2.7744141-1.5947266-4.6494141V54.171875c0-1.8632813,0.5302734-3.4101563,1.5908203-4.640625
		s2.4550781-1.8457031,4.1835938-1.8457031c1.734375,0,3.1386719,0.6152344,4.2148438,1.8457031
		c1.0742188,1.2304688,1.6123047,2.7773438,1.6123047,4.640625V54.3652344z M450.0458984,54.1542969
		c0-1.3242188-0.2753906-2.3994141-0.8261719-3.2255859s-1.3652344-1.2392578-2.4433594-1.2392578
		s-1.8828125,0.4101563-2.4121094,1.2304688c-0.53125,0.8203125-0.7958984,1.8984375-0.7958984,3.234375v0.2109375
		c0,1.3476563,0.2685547,2.4331055,0.8037109,3.2563477c0.5371094,0.8232422,1.3408203,1.2348633,2.4130859,1.2348633
		c1.0839844,0,1.8984375-0.4116211,2.4433594-1.2348633s0.8173828-1.9086914,0.8173828-3.2563477V54.1542969z"/>
	<path d="M460.3554688,59.4628906c-0.3046875,0.4453125-0.6816406,0.7880859-1.1289063,1.0283203
		c-0.4492188,0.2402344-0.9599609,0.3603516-1.5341797,0.3603516c-1.0019531,0-1.7871094-0.3208008-2.3554688-0.9624023
		S454.484375,58.25,454.484375,56.8964844v-3.9287109l-1.0458984-0.2636719v-1.546875h1.0458984h2.5664063v5.7568359
		c0,0.6914063,0.1152344,1.1879883,0.3476563,1.4897461c0.2304688,0.3017578,0.5751953,0.4526367,1.0322266,0.4526367
		c0.4042969,0,0.7539063-0.065918,1.0498047-0.1977539s0.5380859-0.3208008,0.7255859-0.5668945v-5.1240234l-1.125-0.2636719
		v-1.546875h1.125h2.5664063v7.7080078l1.1513672,0.2636719v1.5380859h-3.4013672L460.3554688,59.4628906z"/>
	<path d="M469.4873047,60.8515625c-1.3710938,0-2.4667969-0.4394531-3.2871094-1.3183594s-1.2304688-1.9951172-1.2304688-3.3486328
		v-0.3515625c0-1.4121094,0.3876953-2.5751953,1.1650391-3.4892578c0.7753906-0.9140625,1.8173828-1.3681641,3.1240234-1.3623047
		c1.2832031,0,2.2792969,0.3867188,2.9882813,1.1601563s1.0634766,1.8193359,1.0634766,3.1376953v1.3974609h-5.6777344
		l-0.0175781,0.0527344c0.046875,0.6269531,0.2558594,1.1425781,0.6289063,1.546875
		c0.3710938,0.4042969,0.8769531,0.6064453,1.515625,0.6064453c0.5683594,0,1.0400391-0.0571289,1.4150391-0.1713867
		s0.7851563-0.2944336,1.2304688-0.5405273l0.6943359,1.5820313c-0.3925781,0.3105469-0.9003906,0.5712891-1.5253906,0.7822266
		C470.9511719,60.7460938,470.2548828,60.8515625,469.4873047,60.8515625z M469.2587891,52.9589844
		c-0.4746094,0-0.8496094,0.1816406-1.125,0.5449219s-0.4453125,0.8408203-0.5097656,1.4326172l0.0263672,0.0439453h3.1464844
		v-0.2285156c0-0.5449219-0.1269531-0.9799805-0.3828125-1.3051758
		C470.1601563,53.121582,469.7744141,52.9589844,469.2587891,52.9589844z"/>
	<path d="M474.7167969,59.1289063l1.2304688-0.2636719v-5.8974609l-1.3623047-0.2636719v-1.546875h3.7529297l0.1142578,1.3886719
		c0.2226563-0.4921875,0.5097656-0.8759766,0.8613281-1.1513672s0.7587891-0.4130859,1.2216797-0.4130859
		c0.1347656,0,0.2763672,0.0102539,0.4267578,0.0307617c0.1484375,0.0205078,0.2734375,0.0454102,0.3730469,0.074707
		L481.0625,53.4248047l-1.0546875-0.0263672c-0.375,0-0.6855469,0.0732422-0.9316406,0.2197266
		s-0.4335938,0.3544922-0.5625,0.6240234v4.6230469l1.2304688,0.2636719v1.5380859h-5.0273438V59.1289063z"/>
	<path d="M492.1015625,52.7041016l-0.8876953,0.1318359l-3.4980469,9.2548828
		c-0.2753906,0.6855469-0.6435547,1.2597656-1.1035156,1.7226563s-1.1523438,0.6943359-2.078125,0.6943359
		c-0.2167969,0-0.4208984-0.0175781-0.6113281-0.0527344s-0.4140625-0.0849609-0.671875-0.1494141l0.2988281-1.8720703
		c0.0820313,0.0117188,0.1669922,0.0234375,0.2548828,0.0351563s0.1640625,0.0175781,0.2285156,0.0175781
		c0.4277344,0,0.7558594-0.1040039,0.984375-0.3120117s0.4042969-0.4672852,0.5273438-0.777832l0.2900391-0.7207031
		l-3.0146484-7.8310547l-0.8876953-0.140625v-1.546875h4.6582031v1.546875l-1.0634766,0.1757813l1.3007813,3.796875
		l0.1318359,0.6855469l0.0527344,0.0087891l1.5029297-4.4912109l-1.0722656-0.1757813v-1.546875h4.6582031V52.7041016z"/>
</g>
<g>
</g>
<g>
</g>
<g>
</g>
<g>
</g>
<g>
</g>
<g>
</g>
</svg>
