<?xml version="1.0" encoding="utf-8"?>
<!-- Generator: Adobe Illustrator 16.0.0, SVG Export Plug-In . SVG Version: 6.00 Build 0)  -->
<!DOCTYPE svg PUBLIC "-//W3C//DTD SVG 1.1//EN" "http://www.w3.org/Graphics/SVG/1.1/DTD/svg11.dtd">
<svg version="1.1" id="Layer_1" xmlns="http://www.w3.org/2000/svg" xmlns:xlink="http://www.w3.org/1999/xlink" x="0px" y="0px"
	 width="800px" height="150px" viewBox="0 0 800 150" enable-background="new 0 0 800 150" xml:space="preserve">
<g>
	<path d="M14.0546875,75.3339844v0.1054688l10.125,3.5683594v4.78125L9.0449219,77.3378906v-3.9902344l15.1347656-6.4335938v4.78125
		L14.0546875,75.3339844z"/>
	<path d="M39.296875,82.6816406c-0.5976563,0.8789063-1.3037109,1.546875-2.1181641,2.0039063
		s-1.7431641,0.6855469-2.7861328,0.6855469c-2.34375,0-4.1630859-0.8554688-5.4580078-2.5664063
		s-1.9423828-3.9726563-1.9423828-6.7851563v-0.3691406c0-3,0.6503906-5.4199219,1.9511719-7.2597656
		s3.1289063-2.7597656,5.484375-2.7597656c0.9492188,0,1.8046875,0.2080078,2.5664063,0.6240234
		s1.4296875,1.0048828,2.0039063,1.7666016v-6.8203125l-2.7421875-0.5273438v-3.09375h2.7421875h5.1328125v23.8183594
		l2.4609375,0.5273438v3.0761719h-6.9082031L39.296875,82.6816406z M32.125,76.0195313
		c0,1.6640625,0.2783203,2.9736328,0.8349609,3.9287109s1.4677734,1.4326172,2.7333984,1.4326172
		c0.75,0,1.4003906-0.1523438,1.9511719-0.4570313s1.0019531-0.7441406,1.3535156-1.3183594v-8.0683594
		c-0.3515625-0.609375-0.7998047-1.0810547-1.3447266-1.4150391s-1.1865234-0.5009766-1.9248047-0.5009766
		c-1.2539063,0-2.1679688,0.5566406-2.7421875,1.6699219S32.125,73.8574219,32.125,75.6503906V76.0195313z"/>
	<path d="M48.0683594,81.9257813l2.4785156-0.5273438V69.6035156l-2.7421875-0.5273438v-3.09375h7.875v15.4160156
		l2.4609375,0.5273438v3.0761719H48.0683594V81.9257813z M55.6796875,61.4296875H50.546875v-3.8496094h5.1328125V61.4296875z"/>
	<path d="M67.8964844,69.0761719l-1.7929688,0.3339844l2.5136719,8.5078125l0.3339844,1.7929688h0.1054688l0.3691406-1.7929688
		l2.4785156-8.4902344l-1.828125-0.3515625v-3.09375h8.6308594v3.09375l-1.6523438,0.2636719l-5.6074219,15.6621094h-4.9042969
		l-5.625-15.6621094l-1.6523438-0.2636719v-3.09375h8.6308594V69.0761719z"/>
	<path d="M98.0957031,81.4335938c0.9140625,0,1.6464844-0.2666016,2.1972656-0.7998047s0.8261719-1.2451172,0.8261719-2.1357422
		h4.640625l0.0527344,0.1054688c0.046875,1.921875-0.6738281,3.5302734-2.1621094,4.8251953
		s-3.3398438,1.9423828-5.5546875,1.9423828c-2.8359375,0-5.0214844-0.8964844-6.5566406-2.6894531
		s-2.3027344-4.0957031-2.3027344-6.9082031v-0.5273438c0-2.8007813,0.7880859-5.1035156,2.3642578-6.9082031
		s3.8232422-2.7070313,6.7412109-2.7070313c1.5351563,0,2.9121094,0.2285156,4.1308594,0.6855469
		s2.2324219,1.1015625,3.0410156,1.9335938l0.0703125,5.0800781h-4.1660156l-0.84375-2.9707031
		C100.3164063,70.1367188,100,69.9521484,99.625,69.8056641s-0.8027344-0.2197266-1.2832031-0.2197266
		c-1.453125,0-2.4785156,0.5273438-3.0761719,1.5820313s-0.8964844,2.4140625-0.8964844,4.078125v0.5273438
		c0,1.6992188,0.2753906,3.0673828,0.8261719,4.1044922S96.7128906,81.4335938,98.0957031,81.4335938z"/>
	<path d="M107.5878906,60.6738281v-3.09375h7.875v23.8183594l2.4785156,0.5273438v3.0761719h-10.0898438v-3.0761719
		l2.4785156-0.5273438V61.2011719L107.5878906,60.6738281z"/>
	<path d="M131.7226563,85.0019531c-0.140625-0.3164063-0.2636719-0.6416016-0.3691406-0.9755859
		s-0.1875-0.6708984-0.2460938-1.0107422c-0.609375,0.703125-1.3505859,1.2714844-2.2236328,1.7050781
		s-1.8720703,0.6503906-2.9970703,0.6503906c-1.8632813,0-3.3427734-0.5068359-4.4384766-1.5205078
		s-1.6435547-2.3935547-1.6435547-4.1396484c0-1.78125,0.7148438-3.1582031,2.1445313-4.1308594
		s3.5273438-1.4589844,6.2929688-1.4589844h2.6191406v-1.8632813c0-0.9140625-0.2636719-1.6230469-0.7910156-2.1269531
		S128.7636719,69.375,127.7324219,69.375c-0.5859375,0-1.1074219,0.0673828-1.5644531,0.2021484
		s-0.8261719,0.2958984-1.1074219,0.4833984l-0.3339844,2.0390625h-3.8671875l0.0175781-4.21875
		c0.9375-0.6328125,2.0126953-1.1660156,3.2255859-1.5996094s2.5341797-0.6503906,3.9638672-0.6503906
		c2.3554688,0,4.2685547,0.5771484,5.7392578,1.7314453s2.2060547,2.7978516,2.2060547,4.9306641v7.8574219
		c0,0.2929688,0.0029297,0.5683594,0.0087891,0.8261719s0.0263672,0.5039063,0.0615234,0.7382813l1.5644531,0.2109375v3.0761719
		H131.7226563z M127.2753906,81.5742188c0.7734375,0,1.4765625-0.1669922,2.109375-0.5009766s1.125-0.7529297,1.4765625-1.2568359
		v-2.9003906h-2.6191406c-1.0898438,0-1.9160156,0.2548828-2.4785156,0.7646484s-0.84375,1.1220703-0.84375,1.8369141
		c0,0.6445313,0.2080078,1.1484375,0.6240234,1.5117188S126.5371094,81.5742188,127.2753906,81.5742188z"/>
	<path d="M154.9082031,72.5214844h-3.4453125l-0.5449219-2.3730469c-0.3515625-0.28125-0.7939453-0.515625-1.3271484-0.703125
		s-1.1220703-0.28125-1.7666016-0.28125c-0.9023438,0-1.6171875,0.2021484-2.1445313,0.6064453
		s-0.7910156,0.9111328-0.7910156,1.5205078c0,0.5742188,0.2519531,1.0517578,0.7558594,1.4326172
		s1.5117188,0.7177734,3.0234375,1.0107422c2.3554688,0.46875,4.1015625,1.1572266,5.2382813,2.0654297
		s1.7050781,2.1591797,1.7050781,3.7529297c0,1.7109375-0.7353516,3.1083984-2.2060547,4.1923828
		s-3.4072266,1.6259766-5.8095703,1.6259766c-1.4648438,0-2.8095703-0.2138672-4.0341797-0.6416016
		s-2.3115234-1.0400391-3.2607422-1.8369141l-0.0527344-4.2714844h3.5859375l0.703125,2.4785156
		c0.3046875,0.2578125,0.7207031,0.4482422,1.2480469,0.5712891s1.078125,0.1845703,1.6523438,0.1845703
		c1.0429688,0,1.8369141-0.1875,2.3818359-0.5625s0.8173828-0.8847656,0.8173828-1.5292969
		c0-0.5625-0.2753906-1.0488281-0.8261719-1.4589844s-1.5644531-0.7734375-3.0410156-1.0898438
		c-2.2382813-0.4570313-3.9287109-1.1337891-5.0712891-2.0302734s-1.7138672-2.1181641-1.7138672-3.6650391
		c0-1.59375,0.65625-2.9677734,1.96875-4.1220703s3.1816406-1.7314453,5.6074219-1.7314453
		c1.4765625,0,2.8740234,0.1992188,4.1923828,0.5976563s2.3525391,0.9082031,3.1025391,1.5292969L154.9082031,72.5214844z"/>
	<path d="M173.4355469,72.5214844h-3.4453125l-0.5449219-2.3730469c-0.3515625-0.28125-0.7939453-0.515625-1.3271484-0.703125
		s-1.1220703-0.28125-1.7666016-0.28125c-0.9023438,0-1.6171875,0.2021484-2.1445313,0.6064453
		s-0.7910156,0.9111328-0.7910156,1.5205078c0,0.5742188,0.2519531,1.0517578,0.7558594,1.4326172
		s1.5117188,0.7177734,3.0234375,1.0107422c2.3554688,0.46875,4.1015625,1.1572266,5.2382813,2.0654297
		s1.7050781,2.1591797,1.7050781,3.7529297c0,1.7109375-0.7353516,3.1083984-2.2060547,4.1923828
		s-3.4072266,1.6259766-5.8095703,1.6259766c-1.4648438,0-2.8095703-0.2138672-4.0341797-0.6416016
		s-2.3115234-1.0400391-3.2607422-1.8369141l-0.0527344-4.2714844h3.5859375l0.703125,2.4785156
		c0.3046875,0.2578125,0.7207031,0.4482422,1.2480469,0.5712891s1.078125,0.1845703,1.6523438,0.1845703
		c1.0429688,0,1.8369141-0.1875,2.3818359-0.5625s0.8173828-0.8847656,0.8173828-1.5292969
		c0-0.5625-0.2753906-1.0488281-0.8261719-1.4589844s-1.5644531-0.7734375-3.0410156-1.0898438
		c-2.2382813-0.4570313-3.9287109-1.1337891-5.0712891-2.0302734s-1.7138672-2.1181641-1.7138672-3.6650391
		c0-1.59375,0.65625-2.9677734,1.96875-4.1220703s3.1816406-1.7314453,5.6074219-1.7314453
		c1.4765625,0,2.8740234,0.1992188,4.1923828,0.5976563s2.3525391,0.9082031,3.1025391,1.5292969L173.4355469,72.5214844z"/>
	<path d="M193.2460938,71.5898438h-15.75v-4.0253906h15.75V71.5898438z M193.2460938,79.1660156h-15.75V75.140625h15.75V79.1660156z
		"/>
	<path d="M201.15625,62.3613281l-1.3535156,4.3769531h-2.2675781v-9.1582031h3.6210938V62.3613281z M206.8867188,62.3613281
		l-1.3535156,4.3769531h-2.25v-9.1582031h3.6035156V62.3613281z"/>
	<path fill="#00546D" d="M221.1601563,85.0019531c-0.140625-0.3164063-0.2636719-0.6416016-0.3691406-0.9755859
		s-0.1875-0.6708984-0.2460938-1.0107422c-0.609375,0.703125-1.3505859,1.2714844-2.2236328,1.7050781
		s-1.8720703,0.6503906-2.9970703,0.6503906c-1.8632813,0-3.3427734-0.5068359-4.4384766-1.5205078
		s-1.6435547-2.3935547-1.6435547-4.1396484c0-1.78125,0.7148438-3.1582031,2.1445313-4.1308594
		s3.5273438-1.4589844,6.2929688-1.4589844h2.6191406v-1.8632813c0-0.9140625-0.2636719-1.6230469-0.7910156-2.1269531
		S218.2011719,69.375,217.1699219,69.375c-0.5859375,0-1.1074219,0.0673828-1.5644531,0.2021484
		s-0.8261719,0.2958984-1.1074219,0.4833984l-0.3339844,2.0390625h-3.8671875l0.0175781-4.21875
		c0.9375-0.6328125,2.0126953-1.1660156,3.2255859-1.5996094s2.5341797-0.6503906,3.9638672-0.6503906
		c2.3554688,0,4.2685547,0.5771484,5.7392578,1.7314453s2.2060547,2.7978516,2.2060547,4.9306641v7.8574219
		c0,0.2929688,0.0029297,0.5683594,0.0087891,0.8261719s0.0263672,0.5039063,0.0615234,0.7382813l1.5644531,0.2109375v3.0761719
		H221.1601563z M216.7128906,81.5742188c0.7734375,0,1.4765625-0.1669922,2.109375-0.5009766s1.125-0.7529297,1.4765625-1.2568359
		v-2.9003906h-2.6191406c-1.0898438,0-1.9160156,0.2548828-2.4785156,0.7646484s-0.84375,1.1220703-0.84375,1.8369141
		c0,0.6445313,0.2080078,1.1484375,0.6240234,1.5117188S215.9746094,81.5742188,216.7128906,81.5742188z"/>
	<path fill="#00546D" d="M229.2109375,81.9257813l2.4609375-0.5273438V69.6035156l-2.7246094-0.5273438v-3.09375h7.5058594
		l0.2285156,2.7773438c0.4453125-0.984375,1.0195313-1.7519531,1.7226563-2.3027344s1.5175781-0.8261719,2.4433594-0.8261719
		c0.2695313,0,0.5537109,0.0205078,0.8525391,0.0615234s0.5478516,0.0908203,0.7470703,0.1494141l-0.5449219,4.6757813
		l-2.109375-0.0527344c-0.75,0-1.3710938,0.1464844-1.8632813,0.4394531s-0.8671875,0.7089844-1.125,1.2480469v9.2460938
		l2.4609375,0.5273438v3.0761719h-10.0546875V81.9257813z"/>
	<path fill="#00546D" d="M256.0175781,82.6816406c-0.5976563,0.8789063-1.3037109,1.546875-2.1181641,2.0039063
		s-1.7431641,0.6855469-2.7861328,0.6855469c-2.34375,0-4.1630859-0.8554688-5.4580078-2.5664063
		s-1.9423828-3.9726563-1.9423828-6.7851563v-0.3691406c0-3,0.6503906-5.4199219,1.9511719-7.2597656
		s3.1289063-2.7597656,5.484375-2.7597656c0.9492188,0,1.8046875,0.2080078,2.5664063,0.6240234
		s1.4296875,1.0048828,2.0039063,1.7666016v-6.8203125l-2.7421875-0.5273438v-3.09375h2.7421875h5.1328125v23.8183594
		l2.4609375,0.5273438v3.0761719h-6.9082031L256.0175781,82.6816406z M248.8457031,76.0195313
		c0,1.6640625,0.2783203,2.9736328,0.8349609,3.9287109s1.4677734,1.4326172,2.7333984,1.4326172
		c0.75,0,1.4003906-0.1523438,1.9511719-0.4570313s1.0019531-0.7441406,1.3535156-1.3183594v-8.0683594
		c-0.3515625-0.609375-0.7998047-1.0810547-1.3447266-1.4150391s-1.1865234-0.5009766-1.9248047-0.5009766
		c-1.2539063,0-2.1679688,0.5566406-2.7421875,1.6699219s-0.8613281,2.5664063-0.8613281,4.359375V76.0195313z"/>
	<path fill="#C9C800" d="M292.1582031,76.0195313c0,2.8359375-0.6328125,5.1035156-1.8984375,6.8027344
		s-3.09375,2.5488281-5.484375,2.5488281c-1.1132813,0-2.0800781-0.2314453-2.9003906-0.6943359
		s-1.5117188-1.1337891-2.0742188-2.0126953l-0.3691406,2.3378906h-4.4296875V61.2011719l-2.7246094-0.5273438v-3.09375h7.8398438
		v10.4238281c0.5507813-0.7617188,1.2099609-1.3476563,1.9775391-1.7578125s1.6494141-0.6152344,2.6455078-0.6152344
		c2.4140625,0,4.2539063,0.9111328,5.5195313,2.7333984s1.8984375,4.2509766,1.8984375,7.2861328V76.0195313z
		 M287.0429688,75.6503906c0-1.8515625-0.2724609-3.3193359-0.8173828-4.4033203s-1.4736328-1.6259766-2.7861328-1.6259766
		c-0.796875,0-1.4707031,0.1669922-2.0214844,0.5009766s-0.984375,0.8115234-1.3007813,1.4326172v8.0332031
		c0.3164063,0.5859375,0.7529297,1.03125,1.3095703,1.3359375s1.2392578,0.4570313,2.0478516,0.4570313
		c1.3242188,0,2.25-0.4658203,2.7773438-1.3974609s0.7910156-2.2529297,0.7910156-3.9638672V75.6503906z"/>
	<path fill="#C9C800" d="M307.8378906,82.59375c-0.609375,0.890625-1.3623047,1.5761719-2.2587891,2.0566406
		s-1.9189453,0.7207031-3.0673828,0.7207031c-2.0039063,0-3.5742188-0.6416016-4.7109375-1.9248047
		s-1.7050781-3.2783203-1.7050781-5.9853516v-7.8574219l-2.0917969-0.5273438v-3.09375h2.0917969h5.1328125v11.5136719
		c0,1.3828125,0.2314453,2.3759766,0.6943359,2.9794922s1.1513672,0.9052734,2.0654297,0.9052734
		c0.8085938,0,1.5087891-0.1318359,2.1005859-0.3955078s1.0751953-0.6416016,1.4501953-1.1337891V69.6035156l-2.25-0.5273438
		v-3.09375h2.25h5.1328125v15.4160156l2.3027344,0.5273438v3.0761719h-6.8027344L307.8378906,82.59375z"/>
	<path fill="#C9C800" d="M324.5722656,61.3242188v4.6582031h3.3398438v3.6035156h-3.3398438v9.6855469
		c0,0.7382813,0.1523438,1.265625,0.4570313,1.5820313s0.7148438,0.4746094,1.2304688,0.4746094
		c0.3515625,0,0.6591797-0.0146484,0.9228516-0.0439453s0.5595703-0.0791016,0.8876953-0.1494141l0.4394531,3.7089844
		c-0.5742188,0.1757813-1.1425781,0.3076172-1.7050781,0.3955078s-1.171875,0.1318359-1.828125,0.1318359
		c-1.7695313,0-3.1318359-0.4863281-4.0869141-1.4589844s-1.4326172-2.5136719-1.4326172-4.6230469v-9.703125h-2.7949219v-3.6035156
		h2.7949219v-4.6582031H324.5722656z"/>
	<path fill="#C9C800" d="M338.0019531,61.3242188v4.6582031h3.3398438v3.6035156h-3.3398438v9.6855469
		c0,0.7382813,0.1523438,1.265625,0.4570313,1.5820313s0.7148438,0.4746094,1.2304688,0.4746094
		c0.3515625,0,0.6591797-0.0146484,0.9228516-0.0439453S341.171875,81.2050781,341.5,81.1347656l0.4394531,3.7089844
		c-0.5742188,0.1757813-1.1425781,0.3076172-1.7050781,0.3955078s-1.171875,0.1318359-1.828125,0.1318359
		c-1.7695313,0-3.1318359-0.4863281-4.0869141-1.4589844s-1.4326172-2.5136719-1.4326172-4.6230469v-9.703125h-2.7949219v-3.6035156
		h2.7949219v-4.6582031H338.0019531z"/>
	<path fill="#C9C800" d="M343.328125,75.3164063c0-2.8359375,0.7939453-5.1591797,2.3818359-6.9697266
		s3.7822266-2.7158203,6.5830078-2.7158203c2.8125,0,5.0126953,0.9023438,6.6005859,2.7070313
		s2.3818359,4.1308594,2.3818359,6.9785156v0.3691406c0,2.859375-0.7939453,5.1884766-2.3818359,6.9873047
		s-3.7763672,2.6982422-6.5654297,2.6982422c-2.8242188,0-5.0302734-0.8994141-6.6181641-2.6982422
		s-2.3818359-4.1279297-2.3818359-6.9873047V75.3164063z M348.4609375,75.6855469
		c0,1.734375,0.3046875,3.1259766,0.9140625,4.1748047s1.59375,1.5732422,2.953125,1.5732422
		c1.3242188,0,2.2939453-0.5273438,2.9091797-1.5820313s0.9228516-2.4433594,0.9228516-4.1660156v-0.3691406
		c0-1.6875-0.3105469-3.0644531-0.9316406-4.1308594s-1.5996094-1.5996094-2.9355469-1.5996094
		s-2.3085938,0.5332031-2.9179688,1.5996094s-0.9140625,2.4433594-0.9140625,4.1308594V75.6855469z"/>
	<path fill="#C9C800" d="M363.2265625,81.9257813l2.4609375-0.5273438V69.6035156l-2.7246094-0.5273438v-3.09375h7.5058594
		l0.2285156,2.7246094c0.6328125-0.9726563,1.4121094-1.7285156,2.3378906-2.2675781s1.9628906-0.8085938,3.1113281-0.8085938
		c1.921875,0,3.421875,0.6035156,4.5,1.8105469s1.6171875,3.0996094,1.6171875,5.6777344v8.2792969l2.4609375,0.5273438v3.0761719
		h-9.8085938v-3.0761719l2.1972656-0.5273438v-8.2617188c0-1.2773438-0.2578125-2.1826172-0.7734375-2.7158203
		s-1.2949219-0.7998047-2.3378906-0.7998047c-0.6796875,0-1.2890625,0.1376953-1.828125,0.4130859
		s-0.9902344,0.6650391-1.3535156,1.1689453v10.1953125l2.0742188,0.5273438v3.0761719h-9.6679688V81.9257813z"/>
	<path fill="#740073" d="M407.2421875,59.4082031c2.9296875,0,5.2412109,0.7529297,6.9345703,2.2587891
		s2.5400391,3.4775391,2.5400391,5.9150391c0,2.4492188-0.8466797,4.4179688-2.5400391,5.90625
		s-4.0048828,2.2324219-6.9345703,2.2324219h-4.3242188v5.6777344l2.7421875,0.5273438v3.0761719h-10.5996094v-3.0761719
		l2.7246094-0.5273438V63.0292969l-2.7246094-0.5273438v-3.09375h2.7246094H407.2421875z M402.9179688,71.765625h4.3242188
		c1.4296875,0,2.5107422-0.3896484,3.2431641-1.1689453s1.0986328-1.7724609,1.0986328-2.9794922
		c0-1.2304688-0.3662109-2.2470703-1.0986328-3.0498047s-1.8134766-1.2041016-3.2431641-1.2041016h-4.3242188V71.765625z"/>
	<path fill="#740073" d="M429.2324219,59.0390625c0.9609375,0,1.8486328,0.0908203,2.6630859,0.2724609
		s1.6318359,0.4482422,2.4521484,0.7998047l-0.8964844,3.7441406c-0.7382813-0.2578125-1.4179688-0.4541016-2.0390625-0.5888672
		s-1.3359375-0.2021484-2.1445313-0.2021484c-1.5234375,0-2.7451172,0.5566406-3.6650391,1.6699219
		s-1.3857422,2.7539063-1.3974609,4.921875l0.0527344,0.0878906c0.5742188-0.5976563,1.3037109-1.0664063,2.1884766-1.40625
		s1.8720703-0.5097656,2.9619141-0.5097656c2.2851563,0,4.078125,0.8115234,5.3789063,2.4345703
		s1.9511719,3.6943359,1.9511719,6.2138672c0,2.578125-0.8027344,4.7050781-2.4082031,6.3808594
		s-3.6796875,2.5136719-6.2226563,2.5136719c-2.6953125,0-4.8925781-0.9169922-6.5917969-2.7509766
		S418.9667969,78.2460938,418.9667969,75v-4.5c0-3.6210938,0.9580078-6.4365234,2.8740234-8.4462891
		S426.2207031,59.0390625,429.2324219,59.0390625z M428.0546875,71.7128906c-0.9492188,0-1.7578125,0.1523438-2.4257813,0.4570313
		s-1.1835938,0.7207031-1.546875,1.2480469v1.7050781c0,2.0273438,0.3662109,3.5859375,1.0986328,4.6757813
		s1.7080078,1.6347656,2.9267578,1.6347656c1.0546875,0,1.9013672-0.4833984,2.5400391-1.4501953
		s0.9580078-2.1357422,0.9580078-3.5068359c0-1.4179688-0.3222656-2.5664063-0.9667969-3.4453125
		S429.1328125,71.7128906,428.0546875,71.7128906z"/>
	<path fill="#00009A" d="M447.4433594,81.9257813l4.3242188-0.5273438V64.0664063h-4.3769531v-2.9355469l9.4921875-1.7226563
		v21.9902344l4.3242188,0.5273438v3.0761719h-13.7636719V81.9257813z"/>
	<path fill="#00009A" d="M476.8691406,65.2441406l-0.4570313-1.7226563h-6.890625l-0.7207031,5.90625
		c0.4804688-0.3515625,1.0546875-0.6416016,1.7226563-0.8701172s1.40625-0.3486328,2.2148438-0.3603516
		c2.4609375-0.0351563,4.3652344,0.7089844,5.7128906,2.2324219s2.0214844,3.6445313,2.0214844,6.3632813
		c0,2.4609375-0.7412109,4.5058594-2.2236328,6.1347656s-3.6181641,2.4433594-6.4072266,2.4433594
		c-2.34375,0-4.3535156-0.6416016-6.0292969-1.9248047s-2.484375-3.0498047-2.4257813-5.2998047l0.0351563-0.0878906
		L468.34375,77.8125c0,1.1367188,0.3222656,2.0244141,0.9667969,2.6630859s1.4882813,0.9580078,2.53125,0.9580078
		c1.1953125,0,2.0800781-0.4277344,2.6542969-1.2832031s0.8613281-1.9628906,0.8613281-3.3222656
		c0-1.4765625-0.3046875-2.6601563-0.9140625-3.5507813s-1.5175781-1.3359375-2.7246094-1.3359375
		c-0.9726563,0-1.7197266,0.1816406-2.2412109,0.5449219s-0.8935547,0.8554688-1.1162109,1.4765625l-4.5351563-0.2988281
		l1.4765625-14.2558594h14.7304688v5.8359375H476.8691406z"/>
	<path fill="#00009A" d="M500.4238281,75.0351563c0,3.3867188-0.7763672,5.9560547-2.3291016,7.7080078
		s-3.6533203,2.6279297-6.3017578,2.6279297c-2.671875,0-4.7871094-0.8759766-6.3457031-2.6279297
		s-2.3378906-4.3212891-2.3378906-7.7080078v-5.6425781c0-3.375,0.7763672-5.9443359,2.3291016-7.7080078
		s3.6591797-2.6455078,6.3193359-2.6455078c2.6484375,0,4.7548828,0.8818359,6.3193359,2.6455078
		s2.3466797,4.3330078,2.3466797,7.7080078V75.0351563z M495.3085938,68.8652344
		c0-2.0273438-0.3046875-3.5126953-0.9140625-4.4560547s-1.4882813-1.4150391-2.6367188-1.4150391
		c-1.1601563,0-2.0390625,0.46875-2.6367188,1.40625s-0.8964844,2.4257813-0.8964844,4.4648438v6.6621094
		c0,2.0625,0.3017578,3.5625,0.9052734,4.5s1.4912109,1.40625,2.6630859,1.40625c1.1484375,0,2.0214844-0.46875,2.6191406-1.40625
		s0.8964844-2.4375,0.8964844-4.5V68.8652344z"/>
	<path d="M508.0527344,62.3613281l-1.3535156,4.3769531h-2.2675781v-9.1582031h3.6210938V62.3613281z M513.7832031,62.3613281
		l-1.3535156,4.3769531h-2.25v-9.1582031h3.6035156V62.3613281z"/>
	<path d="M527.828125,75.5273438V75.421875l-10.2832031-3.6210938v-4.7285156l15.3105469,6.4335938v3.9902344l-15.3105469,6.4511719
		v-4.7460938L527.828125,75.5273438z"/>
	<path d="M547.0058594,59.4082031c2.9296875,0,5.2412109,0.7529297,6.9345703,2.2587891s2.5400391,3.4775391,2.5400391,5.9150391
		c0,2.4492188-0.8466797,4.4179688-2.5400391,5.90625s-4.0048828,2.2324219-6.9345703,2.2324219h-4.3242188v5.6777344
		l2.7421875,0.5273438v3.0761719h-10.5996094v-3.0761719l2.7246094-0.5273438V63.0292969l-2.7246094-0.5273438v-3.09375h2.7246094
		H547.0058594z M542.6816406,71.765625h4.3242188c1.4296875,0,2.5107422-0.3896484,3.2431641-1.1689453
		s1.0986328-1.7724609,1.0986328-2.9794922c0-1.2304688-0.3662109-2.2470703-1.0986328-3.0498047
		s-1.8134766-1.2041016-3.2431641-1.2041016h-4.3242188V71.765625z"/>
	<path d="M558.625,81.9257813l2.4609375-0.5273438V69.6035156l-2.7246094-0.5273438v-3.09375h7.5058594l0.2285156,2.7773438
		c0.4453125-0.984375,1.0195313-1.7519531,1.7226563-2.3027344s1.5175781-0.8261719,2.4433594-0.8261719
		c0.2695313,0,0.5537109,0.0205078,0.8525391,0.0615234s0.5478516,0.0908203,0.7470703,0.1494141l-0.5449219,4.6757813
		l-2.109375-0.0527344c-0.75,0-1.3710938,0.1464844-1.8632813,0.4394531s-0.8671875,0.7089844-1.125,1.2480469v9.2460938
		l2.4609375,0.5273438v3.0761719H558.625V81.9257813z"/>
	<path d="M582.1621094,85.3710938c-2.7421875,0-4.9335938-0.8789063-6.5742188-2.6367188s-2.4609375-3.9902344-2.4609375-6.6972656
		v-0.703125c0-2.8242188,0.7763672-5.1503906,2.3291016-6.9785156s3.6357422-2.7363281,6.2490234-2.7246094
		c2.5664063,0,4.5585938,0.7734375,5.9765625,2.3203125s2.1269531,3.6386719,2.1269531,6.2753906v2.7949219H578.453125
		l-0.0351563,0.1054688c0.09375,1.2539063,0.5126953,2.2851563,1.2568359,3.09375s1.7548828,1.2128906,3.0322266,1.2128906
		c1.1367188,0,2.0800781-0.1142578,2.8300781-0.3427734s1.5703125-0.5888672,2.4609375-1.0810547l1.3886719,3.1640625
		c-0.7851563,0.6210938-1.8017578,1.1425781-3.0498047,1.5644531S583.6972656,85.3710938,582.1621094,85.3710938z
		 M581.7050781,69.5859375c-0.9492188,0-1.6992188,0.3632813-2.25,1.0898438s-0.890625,1.6816406-1.0195313,2.8652344
		l0.0527344,0.0878906h6.2929688V73.171875c0-1.0898438-0.2548828-1.9599609-0.7646484-2.6103516
		S582.7363281,69.5859375,581.7050781,69.5859375z"/>
	<path d="M607.7558594,72.5214844h-3.4453125l-0.5449219-2.3730469c-0.3515625-0.28125-0.7939453-0.515625-1.3271484-0.703125
		s-1.1220703-0.28125-1.7666016-0.28125c-0.9023438,0-1.6171875,0.2021484-2.1445313,0.6064453
		s-0.7910156,0.9111328-0.7910156,1.5205078c0,0.5742188,0.2519531,1.0517578,0.7558594,1.4326172
		s1.5117188,0.7177734,3.0234375,1.0107422c2.3554688,0.46875,4.1015625,1.1572266,5.2382813,2.0654297
		s1.7050781,2.1591797,1.7050781,3.7529297c0,1.7109375-0.7353516,3.1083984-2.2060547,4.1923828
		s-3.4072266,1.6259766-5.8095703,1.6259766c-1.4648438,0-2.8095703-0.2138672-4.0341797-0.6416016
		s-2.3115234-1.0400391-3.2607422-1.8369141l-0.0527344-4.2714844h3.5859375l0.703125,2.4785156
		c0.3046875,0.2578125,0.7207031,0.4482422,1.2480469,0.5712891s1.078125,0.1845703,1.6523438,0.1845703
		c1.0429688,0,1.8369141-0.1875,2.3818359-0.5625s0.8173828-0.8847656,0.8173828-1.5292969
		c0-0.5625-0.2753906-1.0488281-0.8261719-1.4589844s-1.5644531-0.7734375-3.0410156-1.0898438
		c-2.2382813-0.4570313-3.9287109-1.1337891-5.0712891-2.0302734s-1.7138672-2.1181641-1.7138672-3.6650391
		c0-1.59375,0.65625-2.9677734,1.96875-4.1220703s3.1816406-1.7314453,5.6074219-1.7314453
		c1.4765625,0,2.8740234,0.1992188,4.1923828,0.5976563s2.3525391,0.9082031,3.1025391,1.5292969L607.7558594,72.5214844z"/>
	<path d="M626.2832031,72.5214844h-3.4453125l-0.5449219-2.3730469c-0.3515625-0.28125-0.7939453-0.515625-1.3271484-0.703125
		s-1.1220703-0.28125-1.7666016-0.28125c-0.9023438,0-1.6171875,0.2021484-2.1445313,0.6064453
		s-0.7910156,0.9111328-0.7910156,1.5205078c0,0.5742188,0.2519531,1.0517578,0.7558594,1.4326172
		s1.5117188,0.7177734,3.0234375,1.0107422c2.3554688,0.46875,4.1015625,1.1572266,5.2382813,2.0654297
		s1.7050781,2.1591797,1.7050781,3.7529297c0,1.7109375-0.7353516,3.1083984-2.2060547,4.1923828
		s-3.4072266,1.6259766-5.8095703,1.6259766c-1.4648438,0-2.8095703-0.2138672-4.0341797-0.6416016
		s-2.3115234-1.0400391-3.2607422-1.8369141l-0.0527344-4.2714844h3.5859375l0.703125,2.4785156
		c0.3046875,0.2578125,0.7207031,0.4482422,1.2480469,0.5712891s1.078125,0.1845703,1.6523438,0.1845703
		c1.0429688,0,1.8369141-0.1875,2.3818359-0.5625s0.8173828-0.8847656,0.8173828-1.5292969
		c0-0.5625-0.2753906-1.0488281-0.8261719-1.4589844s-1.5644531-0.7734375-3.0410156-1.0898438
		c-2.2382813-0.4570313-3.9287109-1.1337891-5.0712891-2.0302734s-1.7138672-2.1181641-1.7138672-3.6650391
		c0-1.59375,0.65625-2.9677734,1.96875-4.1220703s3.1816406-1.7314453,5.6074219-1.7314453
		c1.4765625,0,2.8740234,0.1992188,4.1923828,0.5976563s2.3525391,0.9082031,3.1025391,1.5292969L626.2832031,72.5214844z"/>
	<path d="M637.515625,69.0761719v-3.09375h7.5058594l0.2109375,2.5136719
		c0.609375-0.9140625,1.3740234-1.6201172,2.2939453-2.1181641s1.9833984-0.7470703,3.1904297-0.7470703
		c1.21875,0,2.2617188,0.2695313,3.1289063,0.8085938s1.5234375,1.3535156,1.96875,2.4433594
		c0.5859375-1.0195313,1.3476563-1.8164063,2.2851563-2.390625s2.0390625-0.8613281,3.3046875-0.8613281
		c1.875,0,3.3544922,0.6474609,4.4384766,1.9423828s1.6259766,3.2666016,1.6259766,5.9150391v7.9101563l2.4785156,0.5273438
		v3.0761719h-9.8261719v-3.0761719l2.2148438-0.5273438v-7.9277344c0-1.4414063-0.234375-2.4433594-0.703125-3.0058594
		s-1.1660156-0.84375-2.0917969-0.84375c-0.7265625,0-1.3564453,0.1611328-1.8896484,0.4833984
		s-0.9580078,0.7705078-1.2744141,1.3447266c0,0.2226563,0.0058594,0.4130859,0.0175781,0.5712891
		s0.0175781,0.3193359,0.0175781,0.4833984v8.8945313l2.0742188,0.5273438v3.0761719h-9.2636719v-3.0761719l2.0742188-0.5273438
		v-7.9277344c0-1.40625-0.234375-2.3994141-0.703125-2.9794922s-1.171875-0.8701172-2.109375-0.8701172
		c-0.6914063,0-1.2978516,0.1318359-1.8193359,0.3955078s-0.9521484,0.6357422-1.2919922,1.1162109v10.265625l2.2148438,0.5273438
		v3.0761719h-9.8085938v-3.0761719l2.4785156-0.5273438V69.6035156L637.515625,69.0761719z"/>
	<path d="M680.5292969,85.3710938c-2.7421875,0-4.9335938-0.8789063-6.5742188-2.6367188s-2.4609375-3.9902344-2.4609375-6.6972656
		v-0.703125c0-2.8242188,0.7763672-5.1503906,2.3291016-6.9785156s3.6357422-2.7363281,6.2490234-2.7246094
		c2.5664063,0,4.5585938,0.7734375,5.9765625,2.3203125s2.1269531,3.6386719,2.1269531,6.2753906v2.7949219h-11.3554688
		l-0.0351563,0.1054688c0.09375,1.2539063,0.5126953,2.2851563,1.2568359,3.09375s1.7548828,1.2128906,3.0322266,1.2128906
		c1.1367188,0,2.0800781-0.1142578,2.8300781-0.3427734s1.5703125-0.5888672,2.4609375-1.0810547l1.3886719,3.1640625
		c-0.7851563,0.6210938-1.8017578,1.1425781-3.0498047,1.5644531S682.0644531,85.3710938,680.5292969,85.3710938z
		 M680.0722656,69.5859375c-0.9492188,0-1.6992188,0.3632813-2.25,1.0898438s-0.890625,1.6816406-1.0195313,2.8652344
		l0.0527344,0.0878906h6.2929688V73.171875c0-1.0898438-0.2548828-1.9599609-0.7646484-2.6103516
		S681.1035156,69.5859375,680.0722656,69.5859375z"/>
	<path d="M695.5234375,75.3339844v0.1054688l10.125,3.5683594v4.78125l-15.1347656-6.4511719v-3.9902344l15.1347656-6.4335938
		v4.78125L695.5234375,75.3339844z"/>
	<path d="M710.6757813,87.1992188h-3.796875l9.3867188-27.7910156h3.796875L710.6757813,87.1992188z"/>
	<path d="M733.9140625,82.6816406c-0.5976563,0.8789063-1.3037109,1.546875-2.1181641,2.0039063
		s-1.7431641,0.6855469-2.7861328,0.6855469c-2.34375,0-4.1630859-0.8554688-5.4580078-2.5664063
		s-1.9423828-3.9726563-1.9423828-6.7851563v-0.3691406c0-3,0.6503906-5.4199219,1.9511719-7.2597656
		s3.1289063-2.7597656,5.484375-2.7597656c0.9492188,0,1.8046875,0.2080078,2.5664063,0.6240234
		s1.4296875,1.0048828,2.0039063,1.7666016v-6.8203125l-2.7421875-0.5273438v-3.09375h2.7421875h5.1328125v23.8183594
		l2.4609375,0.5273438v3.0761719h-6.9082031L733.9140625,82.6816406z M726.7421875,76.0195313
		c0,1.6640625,0.2783203,2.9736328,0.8349609,3.9287109s1.4677734,1.4326172,2.7333984,1.4326172
		c0.75,0,1.4003906-0.1523438,1.9511719-0.4570313s1.0019531-0.7441406,1.3535156-1.3183594v-8.0683594
		c-0.3515625-0.609375-0.7998047-1.0810547-1.3447266-1.4150391s-1.1865234-0.5009766-1.9248047-0.5009766
		c-1.2539063,0-2.1679688,0.5566406-2.7421875,1.6699219s-0.8613281,2.5664063-0.8613281,4.359375V76.0195313z"/>
	<path d="M742.6855469,81.9257813l2.4785156-0.5273438V69.6035156l-2.7421875-0.5273438v-3.09375h7.875v15.4160156
		l2.4609375,0.5273438v3.0761719h-10.0722656V81.9257813z M750.296875,61.4296875h-5.1328125v-3.8496094h5.1328125V61.4296875z"/>
	<path d="M762.5136719,69.0761719l-1.7929688,0.3339844l2.5136719,8.5078125l0.3339844,1.7929688h0.1054688l0.3691406-1.7929688
		l2.4785156-8.4902344l-1.828125-0.3515625v-3.09375h8.6308594v3.09375l-1.6523438,0.2636719l-5.6074219,15.6621094h-4.9042969
		l-5.625-15.6621094l-1.6523438-0.2636719v-3.09375h8.6308594V69.0761719z"/>
	<path d="M785.9628906,75.5273438V75.421875l-10.2832031-3.6210938v-4.7285156l15.3105469,6.4335938v3.9902344
		l-15.3105469,6.4511719v-4.7460938L785.9628906,75.5273438z"/>
</g>
<g>
</g>
<g>
</g>
<g>
</g>
<g>
</g>
<g>
</g>
<g>
</g>
<g>
</g>
</svg>
