<?xml version="1.0" encoding="utf-8"?>
<!-- Generator: Adobe Illustrator 16.0.0, SVG Export Plug-In . SVG Version: 6.00 Build 0)  -->
<!DOCTYPE svg PUBLIC "-//W3C//DTD SVG 1.1//EN" "http://www.w3.org/Graphics/SVG/1.1/DTD/svg11.dtd">
<svg version="1.1" id="Layer_1" xmlns="http://www.w3.org/2000/svg" xmlns:xlink="http://www.w3.org/1999/xlink" x="0px" y="0px"
	 width="800px" height="150px" viewBox="0 0 800 150" enable-background="new 0 0 800 150" xml:space="preserve">
<g>
	<path d="M133.7705078,75.3339844v0.1054688l10.125,3.5683594v4.78125l-15.1347656-6.4511719v-3.9902344l15.1347656-6.4335938
		v4.78125L133.7705078,75.3339844z"/>
	<path d="M159.0126953,82.6816406c-0.5976563,0.8789063-1.3037109,1.546875-2.1181641,2.0039063
		s-1.7431641,0.6855469-2.7861328,0.6855469c-2.34375,0-4.1630859-0.8554688-5.4580078-2.5664063
		s-1.9423828-3.9726563-1.9423828-6.7851563v-0.3691406c0-3,0.6503906-5.4199219,1.9511719-7.2597656
		s3.1289063-2.7597656,5.484375-2.7597656c0.9492188,0,1.8046875,0.2080078,2.5664063,0.6240234
		s1.4296875,1.0048828,2.0039063,1.7666016v-6.8203125l-2.7421875-0.5273438v-3.09375h2.7421875h5.1328125v23.8183594
		l2.4609375,0.5273438v3.0761719h-6.9082031L159.0126953,82.6816406z M151.8408203,76.0195313
		c0,1.6640625,0.2783203,2.9736328,0.8349609,3.9287109s1.4677734,1.4326172,2.7333984,1.4326172
		c0.75,0,1.4003906-0.1523438,1.9511719-0.4570313s1.0019531-0.7441406,1.3535156-1.3183594v-8.0683594
		c-0.3515625-0.609375-0.7998047-1.0810547-1.3447266-1.4150391s-1.1865234-0.5009766-1.9248047-0.5009766
		c-1.2539063,0-2.1679688,0.5566406-2.7421875,1.6699219s-0.8613281,2.5664063-0.8613281,4.359375V76.0195313z"/>
	<path d="M167.7841797,81.9257813l2.4785156-0.5273438V69.6035156l-2.7421875-0.5273438v-3.09375h7.875v15.4160156
		l2.4609375,0.5273438v3.0761719h-10.0722656V81.9257813z M175.3955078,61.4296875h-5.1328125v-3.8496094h5.1328125V61.4296875z"/>
	<path d="M187.6123047,69.0761719l-1.7929688,0.3339844l2.5136719,8.5078125l0.3339844,1.7929688h0.1054688l0.3691406-1.7929688
		l2.4785156-8.4902344l-1.828125-0.3515625v-3.09375h8.6308594v3.09375l-1.6523438,0.2636719l-5.6074219,15.6621094h-4.9042969
		l-5.625-15.6621094l-1.6523438-0.2636719v-3.09375h8.6308594V69.0761719z"/>
	<path d="M217.8115234,81.4335938c0.9140625,0,1.6464844-0.2666016,2.1972656-0.7998047s0.8261719-1.2451172,0.8261719-2.1357422
		h4.640625l0.0527344,0.1054688c0.046875,1.921875-0.6738281,3.5302734-2.1621094,4.8251953
		s-3.3398438,1.9423828-5.5546875,1.9423828c-2.8359375,0-5.0214844-0.8964844-6.5566406-2.6894531
		s-2.3027344-4.0957031-2.3027344-6.9082031v-0.5273438c0-2.8007813,0.7880859-5.1035156,2.3642578-6.9082031
		s3.8232422-2.7070313,6.7412109-2.7070313c1.5351563,0,2.9121094,0.2285156,4.1308594,0.6855469
		s2.2324219,1.1015625,3.0410156,1.9335938l0.0703125,5.0800781h-4.1660156l-0.84375-2.9707031
		c-0.2578125-0.2226563-0.5742188-0.4072266-0.9492188-0.5537109s-0.8027344-0.2197266-1.2832031-0.2197266
		c-1.453125,0-2.4785156,0.5273438-3.0761719,1.5820313s-0.8964844,2.4140625-0.8964844,4.078125v0.5273438
		c0,1.6992188,0.2753906,3.0673828,0.8261719,4.1044922S216.4287109,81.4335938,217.8115234,81.4335938z"/>
	<path d="M227.3037109,60.6738281v-3.09375h7.875v23.8183594l2.4785156,0.5273438v3.0761719h-10.0898438v-3.0761719
		l2.4785156-0.5273438V61.2011719L227.3037109,60.6738281z"/>
	<path d="M251.4384766,85.0019531c-0.140625-0.3164063-0.2636719-0.6416016-0.3691406-0.9755859
		s-0.1875-0.6708984-0.2460938-1.0107422c-0.609375,0.703125-1.3505859,1.2714844-2.2236328,1.7050781
		s-1.8720703,0.6503906-2.9970703,0.6503906c-1.8632813,0-3.3427734-0.5068359-4.4384766-1.5205078
		s-1.6435547-2.3935547-1.6435547-4.1396484c0-1.78125,0.7148438-3.1582031,2.1445313-4.1308594
		s3.5273438-1.4589844,6.2929688-1.4589844h2.6191406v-1.8632813c0-0.9140625-0.2636719-1.6230469-0.7910156-2.1269531
		S248.4794922,69.375,247.4482422,69.375c-0.5859375,0-1.1074219,0.0673828-1.5644531,0.2021484
		s-0.8261719,0.2958984-1.1074219,0.4833984l-0.3339844,2.0390625h-3.8671875l0.0175781-4.21875
		c0.9375-0.6328125,2.0126953-1.1660156,3.2255859-1.5996094s2.5341797-0.6503906,3.9638672-0.6503906
		c2.3554688,0,4.2685547,0.5771484,5.7392578,1.7314453s2.2060547,2.7978516,2.2060547,4.9306641v7.8574219
		c0,0.2929688,0.0029297,0.5683594,0.0087891,0.8261719s0.0263672,0.5039063,0.0615234,0.7382813l1.5644531,0.2109375v3.0761719
		H251.4384766z M246.9912109,81.5742188c0.7734375,0,1.4765625-0.1669922,2.109375-0.5009766s1.125-0.7529297,1.4765625-1.2568359
		v-2.9003906h-2.6191406c-1.0898438,0-1.9160156,0.2548828-2.4785156,0.7646484s-0.84375,1.1220703-0.84375,1.8369141
		c0,0.6445313,0.2080078,1.1484375,0.6240234,1.5117188S246.2529297,81.5742188,246.9912109,81.5742188z"/>
	<path d="M274.6240234,72.5214844h-3.4453125l-0.5449219-2.3730469c-0.3515625-0.28125-0.7939453-0.515625-1.3271484-0.703125
		s-1.1220703-0.28125-1.7666016-0.28125c-0.9023438,0-1.6171875,0.2021484-2.1445313,0.6064453
		s-0.7910156,0.9111328-0.7910156,1.5205078c0,0.5742188,0.2519531,1.0517578,0.7558594,1.4326172
		s1.5117188,0.7177734,3.0234375,1.0107422c2.3554688,0.46875,4.1015625,1.1572266,5.2382813,2.0654297
		s1.7050781,2.1591797,1.7050781,3.7529297c0,1.7109375-0.7353516,3.1083984-2.2060547,4.1923828
		s-3.4072266,1.6259766-5.8095703,1.6259766c-1.4648438,0-2.8095703-0.2138672-4.0341797-0.6416016
		s-2.3115234-1.0400391-3.2607422-1.8369141l-0.0527344-4.2714844h3.5859375l0.703125,2.4785156
		c0.3046875,0.2578125,0.7207031,0.4482422,1.2480469,0.5712891s1.078125,0.1845703,1.6523438,0.1845703
		c1.0429688,0,1.8369141-0.1875,2.3818359-0.5625s0.8173828-0.8847656,0.8173828-1.5292969
		c0-0.5625-0.2753906-1.0488281-0.8261719-1.4589844s-1.5644531-0.7734375-3.0410156-1.0898438
		c-2.2382813-0.4570313-3.9287109-1.1337891-5.0712891-2.0302734s-1.7138672-2.1181641-1.7138672-3.6650391
		c0-1.59375,0.65625-2.9677734,1.96875-4.1220703s3.1816406-1.7314453,5.6074219-1.7314453
		c1.4765625,0,2.8740234,0.1992188,4.1923828,0.5976563s2.3525391,0.9082031,3.1025391,1.5292969L274.6240234,72.5214844z"/>
	<path d="M293.1513672,72.5214844h-3.4453125l-0.5449219-2.3730469c-0.3515625-0.28125-0.7939453-0.515625-1.3271484-0.703125
		s-1.1220703-0.28125-1.7666016-0.28125c-0.9023438,0-1.6171875,0.2021484-2.1445313,0.6064453
		s-0.7910156,0.9111328-0.7910156,1.5205078c0,0.5742188,0.2519531,1.0517578,0.7558594,1.4326172
		s1.5117188,0.7177734,3.0234375,1.0107422c2.3554688,0.46875,4.1015625,1.1572266,5.2382813,2.0654297
		s1.7050781,2.1591797,1.7050781,3.7529297c0,1.7109375-0.7353516,3.1083984-2.2060547,4.1923828
		s-3.4072266,1.6259766-5.8095703,1.6259766c-1.4648438,0-2.8095703-0.2138672-4.0341797-0.6416016
		s-2.3115234-1.0400391-3.2607422-1.8369141l-0.0527344-4.2714844h3.5859375l0.703125,2.4785156
		c0.3046875,0.2578125,0.7207031,0.4482422,1.2480469,0.5712891s1.078125,0.1845703,1.6523438,0.1845703
		c1.0429688,0,1.8369141-0.1875,2.3818359-0.5625s0.8173828-0.8847656,0.8173828-1.5292969
		c0-0.5625-0.2753906-1.0488281-0.8261719-1.4589844s-1.5644531-0.7734375-3.0410156-1.0898438
		c-2.2382813-0.4570313-3.9287109-1.1337891-5.0712891-2.0302734s-1.7138672-2.1181641-1.7138672-3.6650391
		c0-1.59375,0.65625-2.9677734,1.96875-4.1220703s3.1816406-1.7314453,5.6074219-1.7314453
		c1.4765625,0,2.8740234,0.1992188,4.1923828,0.5976563s2.3525391,0.9082031,3.1025391,1.5292969L293.1513672,72.5214844z"/>
	<path d="M312.9619141,71.5898438h-15.75v-4.0253906h15.75V71.5898438z M312.9619141,79.1660156h-15.75V75.140625h15.75V79.1660156z
		"/>
	<path d="M320.8720703,62.3613281l-1.3535156,4.3769531h-2.2675781v-9.1582031h3.6210938V62.3613281z M326.6025391,62.3613281
		l-1.3535156,4.3769531h-2.25v-9.1582031h3.6035156V62.3613281z"/>
	<path fill="#00546D" d="M340.8759766,85.0019531c-0.140625-0.3164063-0.2636719-0.6416016-0.3691406-0.9755859
		s-0.1875-0.6708984-0.2460938-1.0107422c-0.609375,0.703125-1.3505859,1.2714844-2.2236328,1.7050781
		s-1.8720703,0.6503906-2.9970703,0.6503906c-1.8632813,0-3.3427734-0.5068359-4.4384766-1.5205078
		s-1.6435547-2.3935547-1.6435547-4.1396484c0-1.78125,0.7148438-3.1582031,2.1445313-4.1308594
		s3.5273438-1.4589844,6.2929688-1.4589844h2.6191406v-1.8632813c0-0.9140625-0.2636719-1.6230469-0.7910156-2.1269531
		S337.9169922,69.375,336.8857422,69.375c-0.5859375,0-1.1074219,0.0673828-1.5644531,0.2021484
		s-0.8261719,0.2958984-1.1074219,0.4833984l-0.3339844,2.0390625h-3.8671875l0.0175781-4.21875
		c0.9375-0.6328125,2.0126953-1.1660156,3.2255859-1.5996094s2.5341797-0.6503906,3.9638672-0.6503906
		c2.3554688,0,4.2685547,0.5771484,5.7392578,1.7314453s2.2060547,2.7978516,2.2060547,4.9306641v7.8574219
		c0,0.2929688,0.0029297,0.5683594,0.0087891,0.8261719s0.0263672,0.5039063,0.0615234,0.7382813l1.5644531,0.2109375v3.0761719
		H340.8759766z M336.4287109,81.5742188c0.7734375,0,1.4765625-0.1669922,2.109375-0.5009766s1.125-0.7529297,1.4765625-1.2568359
		v-2.9003906h-2.6191406c-1.0898438,0-1.9160156,0.2548828-2.4785156,0.7646484s-0.84375,1.1220703-0.84375,1.8369141
		c0,0.6445313,0.2080078,1.1484375,0.6240234,1.5117188S335.6904297,81.5742188,336.4287109,81.5742188z"/>
	<path fill="#00546D" d="M348.9267578,81.9257813l2.4609375-0.5273438V69.6035156l-2.7246094-0.5273438v-3.09375h7.5058594
		l0.2285156,2.7773438c0.4453125-0.984375,1.0195313-1.7519531,1.7226563-2.3027344s1.5175781-0.8261719,2.4433594-0.8261719
		c0.2695313,0,0.5537109,0.0205078,0.8525391,0.0615234s0.5478516,0.0908203,0.7470703,0.1494141l-0.5449219,4.6757813
		l-2.109375-0.0527344c-0.75,0-1.3710938,0.1464844-1.8632813,0.4394531s-0.8671875,0.7089844-1.125,1.2480469v9.2460938
		l2.4609375,0.5273438v3.0761719h-10.0546875V81.9257813z"/>
	<path fill="#00546D" d="M375.7333984,82.6816406c-0.5976563,0.8789063-1.3037109,1.546875-2.1181641,2.0039063
		s-1.7431641,0.6855469-2.7861328,0.6855469c-2.34375,0-4.1630859-0.8554688-5.4580078-2.5664063
		s-1.9423828-3.9726563-1.9423828-6.7851563v-0.3691406c0-3,0.6503906-5.4199219,1.9511719-7.2597656
		s3.1289063-2.7597656,5.484375-2.7597656c0.9492188,0,1.8046875,0.2080078,2.5664063,0.6240234
		s1.4296875,1.0048828,2.0039063,1.7666016v-6.8203125l-2.7421875-0.5273438v-3.09375h2.7421875h5.1328125v23.8183594
		l2.4609375,0.5273438v3.0761719h-6.9082031L375.7333984,82.6816406z M368.5615234,76.0195313
		c0,1.6640625,0.2783203,2.9736328,0.8349609,3.9287109s1.4677734,1.4326172,2.7333984,1.4326172
		c0.75,0,1.4003906-0.1523438,1.9511719-0.4570313s1.0019531-0.7441406,1.3535156-1.3183594v-8.0683594
		c-0.3515625-0.609375-0.7998047-1.0810547-1.3447266-1.4150391s-1.1865234-0.5009766-1.9248047-0.5009766
		c-1.2539063,0-2.1679688,0.5566406-2.7421875,1.6699219s-0.8613281,2.5664063-0.8613281,4.359375V76.0195313z"/>
	<path fill="#C9C800" d="M409.0087891,72.5214844h-3.4453125l-0.5449219-2.3730469
		c-0.3515625-0.28125-0.7939453-0.515625-1.3271484-0.703125s-1.1220703-0.28125-1.7666016-0.28125
		c-0.9023438,0-1.6171875,0.2021484-2.1445313,0.6064453s-0.7910156,0.9111328-0.7910156,1.5205078
		c0,0.5742188,0.2519531,1.0517578,0.7558594,1.4326172s1.5117188,0.7177734,3.0234375,1.0107422
		c2.3554688,0.46875,4.1015625,1.1572266,5.2382813,2.0654297s1.7050781,2.1591797,1.7050781,3.7529297
		c0,1.7109375-0.7353516,3.1083984-2.2060547,4.1923828s-3.4072266,1.6259766-5.8095703,1.6259766
		c-1.4648438,0-2.8095703-0.2138672-4.0341797-0.6416016s-2.3115234-1.0400391-3.2607422-1.8369141l-0.0527344-4.2714844h3.5859375
		l0.703125,2.4785156c0.3046875,0.2578125,0.7207031,0.4482422,1.2480469,0.5712891s1.078125,0.1845703,1.6523438,0.1845703
		c1.0429688,0,1.8369141-0.1875,2.3818359-0.5625s0.8173828-0.8847656,0.8173828-1.5292969
		c0-0.5625-0.2753906-1.0488281-0.8261719-1.4589844s-1.5644531-0.7734375-3.0410156-1.0898438
		c-2.2382813-0.4570313-3.9287109-1.1337891-5.0712891-2.0302734s-1.7138672-2.1181641-1.7138672-3.6650391
		c0-1.59375,0.65625-2.9677734,1.96875-4.1220703s3.1816406-1.7314453,5.6074219-1.7314453
		c1.4765625,0,2.8740234,0.1992188,4.1923828,0.5976563s2.3525391,0.9082031,3.1025391,1.5292969L409.0087891,72.5214844z"/>
	<path fill="#C9C800" d="M411.7333984,81.9257813l2.4785156-0.5273438V61.2011719l-2.7421875-0.5273438v-3.09375h7.8574219
		v10.828125c0.5976563-0.8789063,1.3300781-1.5615234,2.1972656-2.0478516s1.828125-0.7294922,2.8828125-0.7294922
		c1.9921875,0,3.5537109,0.6591797,4.6845703,1.9775391s1.6962891,3.3544922,1.6962891,6.1083984v7.6816406l2.4609375,0.5273438
		v3.0761719h-9.8085938v-3.0761719l2.2148438-0.5273438v-7.7167969c0-1.4765625-0.2607422-2.5224609-0.7822266-3.1376953
		s-1.2978516-0.9228516-2.3291016-0.9228516c-0.7148438,0-1.3388672,0.1289063-1.8720703,0.3867188
		s-0.9814453,0.6210938-1.3447266,1.0898438v10.3007813l2.2148438,0.5273438v3.0761719h-9.8085938V81.9257813z"/>
	<path fill="#C9C800" d="M434.7255859,75.3164063c0-2.8359375,0.7939453-5.1591797,2.3818359-6.9697266
		s3.7822266-2.7158203,6.5830078-2.7158203c2.8125,0,5.0126953,0.9023438,6.6005859,2.7070313
		s2.3818359,4.1308594,2.3818359,6.9785156v0.3691406c0,2.859375-0.7939453,5.1884766-2.3818359,6.9873047
		s-3.7763672,2.6982422-6.5654297,2.6982422c-2.8242188,0-5.0302734-0.8994141-6.6181641-2.6982422
		s-2.3818359-4.1279297-2.3818359-6.9873047V75.3164063z M439.8583984,75.6855469
		c0,1.734375,0.3046875,3.1259766,0.9140625,4.1748047s1.59375,1.5732422,2.953125,1.5732422
		c1.3242188,0,2.2939453-0.5273438,2.9091797-1.5820313s0.9228516-2.4433594,0.9228516-4.1660156v-0.3691406
		c0-1.6875-0.3105469-3.0644531-0.9316406-4.1308594s-1.5996094-1.5996094-2.9355469-1.5996094
		s-2.3085938,0.5332031-2.9179688,1.5996094s-0.9140625,2.4433594-0.9140625,4.1308594V75.6855469z"/>
	<path fill="#C9C800" d="M482.0107422,69.0761719l-1.9160156,0.2460938l-3.9726563,15.6796875h-4.2890625l-3.5332031-11.3203125
		h-0.1054688l-3.5332031,11.3203125h-4.2714844l-3.9902344-15.6796875l-1.9160156-0.2460938v-3.09375h8.6132813v3.09375
		l-2.0214844,0.3867188l1.7929688,8.7011719h0.1054688l3.5507813-12.1816406h3.4453125l3.5859375,12.2167969h0.1054688
		l1.7753906-8.71875l-2.0390625-0.4042969v-3.09375h8.6132813V69.0761719z"/>
	<path fill="#740073" d="M492.2060547,81.9257813l1.828125-0.2636719l7.7871094-22.2539063h5.2558594l7.734375,22.2539063
		l1.828125,0.2636719v3.0761719h-8.71875v-3.0761719l1.7753906-0.3164063l-1.125-3.515625h-8.296875l-1.125,3.515625
		l1.7753906,0.3164063v3.0761719h-8.71875V81.9257813z M501.4873047,74.3144531h5.8710938l-2.8828125-9.0175781h-0.1054688
		L501.4873047,74.3144531z"/>
	<path fill="#740073" d="M536.3623047,75.0351563c0,3.3867188-0.7763672,5.9560547-2.3291016,7.7080078
		s-3.6533203,2.6279297-6.3017578,2.6279297c-2.671875,0-4.7871094-0.8759766-6.3457031-2.6279297
		s-2.3378906-4.3212891-2.3378906-7.7080078v-5.6425781c0-3.375,0.7763672-5.9443359,2.3291016-7.7080078
		s3.6591797-2.6455078,6.3193359-2.6455078c2.6484375,0,4.7548828,0.8818359,6.3193359,2.6455078
		s2.3466797,4.3330078,2.3466797,7.7080078V75.0351563z M531.2470703,68.8652344
		c0-2.0273438-0.3046875-3.5126953-0.9140625-4.4560547s-1.4882813-1.4150391-2.6367188-1.4150391
		c-1.1601563,0-2.0390625,0.46875-2.6367188,1.40625s-0.8964844,2.4257813-0.8964844,4.4648438v6.6621094
		c0,2.0625,0.3017578,3.5625,0.9052734,4.5s1.4912109,1.40625,2.6630859,1.40625c1.1484375,0,2.0214844-0.46875,2.6191406-1.40625
		s0.8964844-2.4375,0.8964844-4.5V68.8652344z"/>
	<path d="M543.9912109,62.3613281l-1.3535156,4.3769531h-2.2675781v-9.1582031h3.6210938V62.3613281z M549.7216797,62.3613281
		l-1.3535156,4.3769531h-2.25v-9.1582031h3.6035156V62.3613281z"/>
	<path d="M563.7666016,75.5273438V75.421875l-10.2832031-3.6210938v-4.7285156l15.3105469,6.4335938v3.9902344
		l-15.3105469,6.4511719v-4.7460938L563.7666016,75.5273438z"/>
	<path d="M575.8076172,75.3339844v0.1054688l10.125,3.5683594v4.78125l-15.1347656-6.4511719v-3.9902344l15.1347656-6.4335938
		v4.78125L575.8076172,75.3339844z"/>
	<path d="M590.9599609,87.1992188h-3.796875l9.3867188-27.7910156h3.796875L590.9599609,87.1992188z"/>
	<path d="M614.1982422,82.6816406c-0.5976563,0.8789063-1.3037109,1.546875-2.1181641,2.0039063
		s-1.7431641,0.6855469-2.7861328,0.6855469c-2.34375,0-4.1630859-0.8554688-5.4580078-2.5664063
		s-1.9423828-3.9726563-1.9423828-6.7851563v-0.3691406c0-3,0.6503906-5.4199219,1.9511719-7.2597656
		s3.1289063-2.7597656,5.484375-2.7597656c0.9492188,0,1.8046875,0.2080078,2.5664063,0.6240234
		s1.4296875,1.0048828,2.0039063,1.7666016v-6.8203125l-2.7421875-0.5273438v-3.09375h2.7421875h5.1328125v23.8183594
		l2.4609375,0.5273438v3.0761719h-6.9082031L614.1982422,82.6816406z M607.0263672,76.0195313
		c0,1.6640625,0.2783203,2.9736328,0.8349609,3.9287109s1.4677734,1.4326172,2.7333984,1.4326172
		c0.75,0,1.4003906-0.1523438,1.9511719-0.4570313s1.0019531-0.7441406,1.3535156-1.3183594v-8.0683594
		c-0.3515625-0.609375-0.7998047-1.0810547-1.3447266-1.4150391s-1.1865234-0.5009766-1.9248047-0.5009766
		c-1.2539063,0-2.1679688,0.5566406-2.7421875,1.6699219s-0.8613281,2.5664063-0.8613281,4.359375V76.0195313z"/>
	<path d="M622.9697266,81.9257813l2.4785156-0.5273438V69.6035156l-2.7421875-0.5273438v-3.09375h7.875v15.4160156
		l2.4609375,0.5273438v3.0761719h-10.0722656V81.9257813z M630.5810547,61.4296875h-5.1328125v-3.8496094h5.1328125V61.4296875z"/>
	<path d="M642.7978516,69.0761719l-1.7929688,0.3339844l2.5136719,8.5078125l0.3339844,1.7929688h0.1054688l0.3691406-1.7929688
		l2.4785156-8.4902344l-1.828125-0.3515625v-3.09375h8.6308594v3.09375l-1.6523438,0.2636719l-5.6074219,15.6621094h-4.9042969
		l-5.625-15.6621094l-1.6523438-0.2636719v-3.09375h8.6308594V69.0761719z"/>
	<path d="M666.2470703,75.5273438V75.421875l-10.2832031-3.6210938v-4.7285156l15.3105469,6.4335938v3.9902344
		l-15.3105469,6.4511719v-4.7460938L666.2470703,75.5273438z"/>
</g>
<g>
</g>
<g>
</g>
<g>
</g>
<g>
</g>
<g>
</g>
<g>
</g>
<g>
</g>
</svg>
