<?xml version="1.0" encoding="utf-8"?>
<!-- Generator: Adobe Illustrator 16.0.0, SVG Export Plug-In . SVG Version: 6.00 Build 0)  -->
<!DOCTYPE svg PUBLIC "-//W3C//DTD SVG 1.1//EN" "http://www.w3.org/Graphics/SVG/1.1/DTD/svg11.dtd">
<svg version="1.1" id="Layer_1" xmlns="http://www.w3.org/2000/svg" xmlns:xlink="http://www.w3.org/1999/xlink" x="0px" y="0px"
	 width="450px" height="160px" viewBox="0 0 450 160" enable-background="new 0 0 450 160" xml:space="preserve">
<rect fill="none" width="450" height="160"/>
<g>
	<line fill="none" stroke="#FFFFFF" stroke-width="6" stroke-miterlimit="10" x1="137" y1="120" x2="137" y2="139"/>
	<line fill="none" stroke="#FFFFFF" stroke-width="6" stroke-miterlimit="10" x1="108" y1="120" x2="108" y2="139"/>
	<line fill="none" stroke="#FFFFFF" stroke-width="6" stroke-miterlimit="10" x1="167" y1="120" x2="167" y2="139"/>
	<path fill="#0099E7" d="M137,33.6499023c-20.8193359,0-38,16.8764648-38,37.6958008V120h76V71.3457031
		C175,50.5263672,157.8193359,33.6499023,137,33.6499023z"/>
	<path fill="#DCDCDC" d="M168,75.2128906V49h-25.5097656c-1.6777344-0.2832031-3.3984375-0.4384766-5.1572266-0.4384766
		S133.8535156,48.7167969,132.1757813,49H107v26.2128906c0,1.3525391-0.3671875,2.7304688-0.3671875,4.1328125
		c0,17.0019531,13.7402344,30.7841797,30.7421875,30.7841797s30.8466797-13.7822266,30.8466797-30.7841797
		C168.2216797,77.9433594,168,76.5654297,168,75.2128906z"/>
	<g>
		<defs>
			<circle id="SVGID_1_" cx="137.3330078" cy="51.3457031" r="30.7841797"/>
		</defs>
		<use xlink:href="#SVGID_1_"  overflow="visible" fill="#FFFFFF"/>
		<clipPath id="SVGID_2_">
			<use xlink:href="#SVGID_1_"  overflow="visible"/>
		</clipPath>
		
			<line clip-path="url(#SVGID_2_)" fill="#FFFFFF" stroke="#000000" stroke-width="6" stroke-linecap="round" stroke-miterlimit="10" x1="158.5458984" y1="25.7871094" x2="137.3330078" y2="47"/>
	</g>
	<rect x="99" y="114" fill="#DCDCDC" width="76" height="6"/>
</g>
<g>
	<line fill="none" stroke="#FFFFFF" stroke-width="6" stroke-miterlimit="10" x1="313" y1="120" x2="313" y2="139"/>
	<line fill="none" stroke="#FFFFFF" stroke-width="6" stroke-miterlimit="10" x1="284" y1="120" x2="284" y2="139"/>
	<line fill="none" stroke="#FFFFFF" stroke-width="6" stroke-miterlimit="10" x1="343" y1="120" x2="343" y2="139"/>
	<path fill="#0099E7" d="M313,33.6499023c-20.8193359,0-38,16.8764648-38,37.6958008V120h76V71.3457031
		C351,50.5263672,333.8193359,33.6499023,313,33.6499023z"/>
	<path fill="#DCDCDC" d="M344,75.2128906V49h-25.5097656c-1.6777344-0.2832031-3.3984375-0.4384766-5.1572266-0.4384766
		S309.8535156,48.7167969,308.1757813,49H283v26.2128906c0,1.3525391-0.3671875,2.7304688-0.3671875,4.1328125
		c0,17.0019531,13.7402344,30.7841797,30.7421875,30.7841797s30.8466797-13.7822266,30.8466797-30.7841797
		C344.2216797,77.9433594,344,76.5654297,344,75.2128906z"/>
	<g>
		<defs>
			<circle id="SVGID_3_" cx="313.3330078" cy="51.3457031" r="30.7841797"/>
		</defs>
		<use xlink:href="#SVGID_3_"  overflow="visible" fill="#FFFFFF"/>
		<clipPath id="SVGID_4_">
			<use xlink:href="#SVGID_3_"  overflow="visible"/>
		</clipPath>
		
			<line clip-path="url(#SVGID_4_)" fill="#FFFFFF" stroke="#000000" stroke-width="6" stroke-linecap="round" stroke-miterlimit="10" x1="334.5458984" y1="25.7871094" x2="313.3330078" y2="47"/>
	</g>
	<rect x="275" y="114" fill="#DCDCDC" width="76" height="6"/>
</g>
<g>
</g>
<g>
</g>
<g>
</g>
<g>
</g>
<g>
</g>
<g>
</g>
</svg>
