<?xml version="1.0" encoding="utf-8"?>
<!-- Generator: Adobe Illustrator 16.0.0, SVG Export Plug-In . SVG Version: 6.00 Build 0)  -->
<!DOCTYPE svg PUBLIC "-//W3C//DTD SVG 1.1//EN" "http://www.w3.org/Graphics/SVG/1.1/DTD/svg11.dtd">
<svg version="1.1" id="Layer_1" xmlns="http://www.w3.org/2000/svg" xmlns:xlink="http://www.w3.org/1999/xlink" x="0px" y="0px"
	 width="450px" height="100px" viewBox="0 0 450 100" enable-background="new 0 0 450 100" xml:space="preserve">
<g>
	<path fill="#FFF100" d="M138.5336914,73.6088867h8.7607422V42.6542969h-6.6582031v-1.7524414
		c1.5185547-0.2719727,2.8706055-0.6030273,4.059082-0.9926758c1.1870117-0.3886719,2.2285156-0.8369141,3.1245117-1.3432617
		h2.1025391v35.0429688h8.1186523v2.277832h-19.5073242V73.6088867z"/>
	<path fill="#FFF100" d="M164.40625,83.1875c1.3232422-0.7011719,2.3950195-1.6455078,3.2124023-2.8330078
		c0.8178711-1.1884766,1.2456055-2.5986328,1.2851563-4.234375c-0.15625,0.0385742-0.3896484,0.0585938-0.7011719,0.0585938
		c-0.6621094,0-1.2363281-0.2143555-1.7226563-0.6425781c-0.4873047-0.4277344-0.7299805-1.03125-0.7299805-1.8105469
		c0-0.7783203,0.2524414-1.3813477,0.7592773-1.8105469c0.5053711-0.4277344,1.0893555-0.6425781,1.7519531-0.6425781
		c0.8950195,0,1.6152344,0.3706055,2.1611328,1.1098633c0.5449219,0.7402344,0.8173828,1.7524414,0.8173828,3.0371094
		c0,2.1411133-0.5649414,4.0297852-1.6933594,5.6655273c-1.1298828,1.6347656-2.5703125,2.9199219-4.3222656,3.8544922
		L164.40625,83.1875z"/>
	<path fill="#FFF100" d="M188.4101563,74.2514648c3.0756836-3.1147461,5.762207-5.9082031,8.0600586-8.3813477
		c2.296875-2.472168,4.2143555-4.730957,5.7529297-6.7749023c1.5375977-2.0444336,2.6865234-3.9321289,3.4458008-5.6655273
		c0.7592773-1.7319336,1.1391602-3.4165039,1.1391602-5.0517578c0-2.3364258-0.652832-4.3022461-1.956543-5.8989258
		c-1.3051758-1.5961914-3.3583984-2.3945313-6.1621094-2.3945313c-1.7138672,0-3.3095703,0.4667969-4.7890625,1.4013672
		c-1.4804688,0.9345703-2.7841797,2.1025391-3.9130859,3.5043945l-1.6938477-1.6352539
		c1.4018555-1.5571289,2.9492188-2.8618164,4.6430664-3.9130859s3.6889648-1.5771484,5.9868164-1.5771484
		c3.3481445,0,5.9370117,0.9545898,7.7675781,2.8618164c1.8300781,1.9082031,2.7451172,4.4389648,2.7451172,7.5927734
		c0,1.8691406-0.4086914,3.7290039-1.2265625,5.5776367c-0.8173828,1.8500977-1.9663086,3.7963867-3.4458008,5.8408203
		c-1.4799805,2.0439453-3.2807617,4.2250977-5.4023438,6.5410156c-2.1225586,2.3173828-4.4682617,4.8388672-7.0380859,7.5639648
		c1.012207-0.0776367,2.0537109-0.1464844,3.125-0.2045898c1.0703125-0.0585938,2.1113281-0.0878906,3.1245117-0.0878906h12.7324219
		v2.3364258h-22.8950195V74.2514648z"/>
	<path fill="#FFF100" d="M216.7939453,83.1875c1.3232422-0.7011719,2.3950195-1.6455078,3.2124023-2.8330078
		c0.8178711-1.1884766,1.2456055-2.5986328,1.2851563-4.234375c-0.15625,0.0385742-0.3896484,0.0585938-0.7011719,0.0585938
		c-0.6621094,0-1.2363281-0.2143555-1.7226563-0.6425781c-0.4873047-0.4277344-0.7299805-1.03125-0.7299805-1.8105469
		c0-0.7783203,0.2524414-1.3813477,0.7592773-1.8105469c0.5053711-0.4277344,1.0893555-0.6425781,1.7519531-0.6425781
		c0.8950195,0,1.6152344,0.3706055,2.1611328,1.1098633c0.5449219,0.7402344,0.8173828,1.7524414,0.8173828,3.0371094
		c0,2.1411133-0.5649414,4.0297852-1.6933594,5.6655273c-1.1298828,1.6347656-2.5703125,2.9199219-4.3222656,3.8544922
		L216.7939453,83.1875z"/>
	<path fill="#FFF100" d="M241.6152344,69.5205078c0.5449219,0.6235352,1.1484375,1.2172852,1.8105469,1.78125
		c0.6621094,0.5649414,1.4111328,1.0712891,2.2490234,1.5185547c0.8369141,0.4482422,1.7714844,0.8085938,2.8037109,1.0805664
		c1.03125,0.2729492,2.1894531,0.4086914,3.4746094,0.4086914c1.2460938,0,2.4042969-0.1943359,3.4746094-0.5839844
		c1.0703125-0.3886719,1.9960938-0.9433594,2.7753906-1.6645508c0.7773438-0.7197266,1.3808594-1.5859375,1.8105469-2.5991211
		c0.4277344-1.0117188,0.640625-2.140625,0.640625-3.387207c0-1.2851563-0.2421875-2.453125-0.7285156-3.5043945
		c-0.4882813-1.0512695-1.2558594-1.956543-2.3066406-2.7158203c-1.0527344-0.7592773-2.3945313-1.3525391-4.0302734-1.78125
		c-1.6357422-0.4282227-3.6210938-0.6425781-5.9580078-0.6425781v-2.277832c2.1416016,0,3.9619141-0.2133789,5.4609375-0.6425781
		c1.4990234-0.4277344,2.7050781-1.0019531,3.6210938-1.7226563c0.9140625-0.7202148,1.5761719-1.5771484,1.9863281-2.5698242
		c0.4082031-0.9931641,0.6132813-2.0537109,0.6132813-3.1831055c0-2.1025391-0.6816406-3.7866211-2.0449219-5.0522461
		c-1.3632813-1.2646484-3.1923828-1.8979492-5.4892578-1.8979492c-1.7529297,0-3.3486328,0.3994141-4.7900391,1.1972656
		c-1.4404297,0.7983398-2.7060547,1.762207-3.7958984,2.8911133l-1.5185547-1.7524414
		c1.2851563-1.2456055,2.7451172-2.315918,4.3808594-3.2124023c1.6347656-0.8950195,3.5429688-1.3432617,5.7236328-1.3432617
		c1.4404297,0,2.7832031,0.2045898,4.0302734,0.6132813c1.2441406,0.4086914,2.3261719,0.9931641,3.2402344,1.7524414
		s1.6347656,1.6933594,2.1621094,2.8032227c0.5253906,1.1098633,0.7871094,2.3857422,0.7871094,3.8256836
		c0,2.453125-0.671875,4.4296875-2.0136719,5.9282227c-1.34375,1.4990234-3.0488281,2.5986328-5.1113281,3.2998047v0.2333984
		c1.1679688,0.2338867,2.2578125,0.6333008,3.2714844,1.1972656c1.0117188,0.5649414,1.90625,1.2558594,2.6855469,2.0737305
		c0.7792969,0.8173828,1.3925781,1.762207,1.8398438,2.8325195c0.4472656,1.0712891,0.671875,2.2685547,0.671875,3.5917969
		c0,1.6352539-0.2910156,3.1054688-0.875,4.409668c-0.5859375,1.3051758-1.3945313,2.4145508-2.4238281,3.3291016
		c-1.0332031,0.9155273-2.2402344,1.6162109-3.6230469,2.1025391c-1.3808594,0.4863281-2.8710938,0.7299805-4.4667969,0.7299805
		c-1.4804688,0-2.8232422-0.1557617-4.0292969-0.4672852c-1.2080078-0.3110352-2.2880859-0.7197266-3.2421875-1.2260742
		c-0.9541016-0.5058594-1.8105469-1.0708008-2.5703125-1.6938477c-0.7578125-0.6225586-1.4296875-1.2456055-2.0136719-1.8691406
		L241.6152344,69.5205078z"/>
	<path fill="#FFF100" d="M281.9140625,73.9594727c0-0.855957,0.2519531-1.5185547,0.7597656-1.9858398
		c0.5039063-0.4672852,1.0878906-0.7011719,1.7519531-0.7011719c0.6601563,0,1.234375,0.2338867,1.7226563,0.7011719
		c0.4863281,0.4672852,0.7304688,1.1298828,0.7304688,1.9858398c0,0.8173828-0.2441406,1.4599609-0.7304688,1.9272461
		c-0.4882813,0.4672852-1.0625,0.7006836-1.7226563,0.7006836c-0.6640625,0-1.2480469-0.2333984-1.7519531-0.7006836
		C282.1660156,75.4194336,281.9140625,74.7768555,281.9140625,73.9594727z"/>
	<path fill="#FFF100" d="M294.7050781,73.9594727c0-0.855957,0.2519531-1.5185547,0.7597656-1.9858398
		c0.5039063-0.4672852,1.0878906-0.7011719,1.7519531-0.7011719c0.6601563,0,1.234375,0.2338867,1.7226563,0.7011719
		c0.4863281,0.4672852,0.7304688,1.1298828,0.7304688,1.9858398c0,0.8173828-0.2441406,1.4599609-0.7304688,1.9272461
		c-0.4882813,0.4672852-1.0625,0.7006836-1.7226563,0.7006836c-0.6640625,0-1.2480469-0.2333984-1.7519531-0.7006836
		C294.9570313,75.4194336,294.7050781,74.7768555,294.7050781,73.9594727z"/>
	<path fill="#FFF100" d="M307.4941406,73.9594727c0-0.855957,0.2539063-1.5185547,0.7597656-1.9858398
		s1.0898438-0.7011719,1.7519531-0.7011719s1.2363281,0.2338867,1.7226563,0.7011719s0.7304688,1.1298828,0.7304688,1.9858398
		c0,0.8173828-0.2441406,1.4599609-0.7304688,1.9272461s-1.0605469,0.7006836-1.7226563,0.7006836
		s-1.2460938-0.2333984-1.7519531-0.7006836S307.4941406,74.7768555,307.4941406,73.9594727z"/>
</g>
<rect fill="none" width="450" height="100"/>
<g>
</g>
<g>
</g>
<g>
</g>
<g>
</g>
<g>
</g>
<g>
</g>
</svg>
