<?xml version="1.0" encoding="utf-8"?>
<!-- Generator: Adobe Illustrator 16.0.0, SVG Export Plug-In . SVG Version: 6.00 Build 0)  -->
<!DOCTYPE svg PUBLIC "-//W3C//DTD SVG 1.1//EN" "http://www.w3.org/Graphics/SVG/1.1/DTD/svg11.dtd">
<svg version="1.1" id="Layer_1" xmlns="http://www.w3.org/2000/svg" xmlns:xlink="http://www.w3.org/1999/xlink" x="0px" y="0px"
	 width="450px" height="160px" viewBox="0 0 450 160" enable-background="new 0 0 450 160" xml:space="preserve">
<g>
	<path fill="#FF0000" d="M268.7392578,77.3222656C278.890625,67.1708984,278.6289063,50.6513672,268.4765625,40.5
		c-10.1542969-10.1533203-26.9345703-10.1523438-37.0859375-0.0009766
		c-0.0126953,0.0126953,0.2285156-0.2280273,0.2285156-0.2280273l0,0l-28.6557617,28.6557617l37.0834961,37.0839844
		l28.8574219-28.8583984l0,0C268.9042969,77.1523438,268.7265625,77.3349609,268.7392578,77.3222656z"/>
	<g>
		<polygon opacity="0.5" fill="#000020" points="254.2441406,67.0683594 240.8769531,53.7021484 241.1855469,79.9414063 
			227.7714844,93.3544922 233.3027344,98.8867188 246.7167969,85.4716797 259.6826172,72.5058594 		"/>
		<polygon opacity="0.5" fill="#000020" points="236.6826172,48.703125 223.3154297,62.0703125 209.9013672,75.4853516 
			215.0068359,80.5898438 228.6220703,66.9746094 237.5488281,75.9023438 		"/>
	</g>
	
		<rect x="187.1427307" y="86.7448654" transform="matrix(0.7071068 0.7071068 -0.7071068 0.7071068 126.9956589 -130.0966187)" opacity="0.5" fill="#DCDCDC" width="66.7912064" height="3.0083113"/>
	
		<line fill="none" stroke="#FFFFFF" stroke-width="5" stroke-miterlimit="10" x1="210.1137695" y1="79.9521484" x2="162.8857422" y2="127.1796875"/>
	
		<line fill="none" stroke="#FFFFFF" stroke-width="5" stroke-miterlimit="10" x1="228.4101563" y1="98.2480469" x2="188.8398438" y2="137.8173828"/>
</g>
<rect fill="none" width="450" height="160"/>
<g>
</g>
<g>
</g>
<g>
</g>
<g>
</g>
<g>
</g>
<g>
</g>
</svg>
