<?xml version="1.0" encoding="utf-8"?>
<!-- Generator: Adobe Illustrator 16.0.0, SVG Export Plug-In . SVG Version: 6.00 Build 0)  -->
<!DOCTYPE svg PUBLIC "-//W3C//DTD SVG 1.1//EN" "http://www.w3.org/Graphics/SVG/1.1/DTD/svg11.dtd">
<svg version="1.1" id="Layer_1" xmlns="http://www.w3.org/2000/svg" xmlns:xlink="http://www.w3.org/1999/xlink" x="0px" y="0px"
	 width="450px" height="160px" viewBox="0 0 450 160" enable-background="new 0 0 450 160" xml:space="preserve">
<rect fill="none" width="450" height="160"/>
<g>
	<path fill="#FFFFFF" d="M273.0800781,79.2626953c10.5742188-10.5742188,10.3007813-27.7802734-0.2734375-38.3530273
		c-10.5761719-10.5766602-28.0546875-10.5761719-38.6298828-0.0014648
		c-0.0126953,0.0126953,0.2382813-0.2382813,0.2382813-0.2382813l0,0l-29.8486328,29.8496094l38.6279297,38.6259766
		l30.0585938-30.0585938l0,0C273.2529297,79.0869141,273.0664063,79.2753906,273.0800781,79.2626953z"/>
	
		<rect x="187.7730255" y="88.9012909" transform="matrix(0.7071033 0.7071103 -0.7071103 0.7071033 129.1899109 -130.584198)" opacity="0.5" fill="#DCDCDC" width="68.8997498" height="3.5030789"/>
	
		<line fill="none" stroke="#FFFFFF" stroke-width="5" stroke-miterlimit="10" x1="207.7719727" y1="78.6787109" x2="177.2197266" y2="109.2314453"/>
	
		<line fill="none" stroke="#FFFFFF" stroke-width="5" stroke-miterlimit="10" x1="225.1132813" y1="96.0195313" x2="174.7421875" y2="146.390625"/>
	
		<line fill="none" stroke="#FFFFFF" stroke-width="5" stroke-miterlimit="10" x1="216.0292969" y1="86.9365234" x2="178.0454102" y2="124.9208984"/>
	
		<line fill="none" stroke="#FFFFFF" stroke-width="5" stroke-miterlimit="10" x1="233.3701172" y1="104.2773438" x2="202.8178711" y2="134.8300781"/>
	<g>
		<polygon fill="#969696" points="231.7001953,63.421875 235.8291016,59.2929688 231.4931641,54.9580078 227.3652344,59.0869141 
			225.0009766,73.8369141 216.4423828,82.3955078 220.7773438,86.7304688 229.3359375,78.1728516 		"/>
		<polygon fill="#969696" points="223.4423828,58.4667969 221.9970703,68.5830078 219.3134766,71.2666016 214.9882813,71.2558594 
			215.5986328,74.9814453 212.3134766,78.265625 207.9785156,73.9316406 		"/>
		<polygon fill="#969696" points="253.4794922,88.5039063 243.3642578,89.9482422 240.6806641,92.6318359 240.6894531,96.9570313 
			236.9638672,96.3486328 233.6796875,99.6328125 238.015625,103.9677734 		"/>
		<polygon fill="#969696" points="239.7509766,63.2148438 235.6230469,67.3447266 233.1552734,83.6425781 225.421875,91.375 
			229.7578125,95.7099609 237.4892578,87.9775391 252.9628906,84.6845703 257.0917969,80.5556641 		"/>
	</g>
</g>
<g>
</g>
<g>
</g>
<g>
</g>
<g>
</g>
<g>
</g>
<g>
</g>
</svg>
