<?xml version="1.0" encoding="utf-8"?>
<!-- Generator: Adobe Illustrator 16.0.0, SVG Export Plug-In . SVG Version: 6.00 Build 0)  -->
<!DOCTYPE svg PUBLIC "-//W3C//DTD SVG 1.1//EN" "http://www.w3.org/Graphics/SVG/1.1/DTD/svg11.dtd">
<svg version="1.1" id="Layer_1" xmlns="http://www.w3.org/2000/svg" xmlns:xlink="http://www.w3.org/1999/xlink" x="0px" y="0px"
	 width="100px" height="100px" viewBox="0 0 100 100" enable-background="new 0 0 100 100" xml:space="preserve">
<g>
	<g>
		<path d="M7.39,48.961c4.348-0.126,4.789-2.394,4.789-4.284c0-1.575-0.189-3.213-0.378-4.915c-0.189-1.701-0.315-3.402-0.315-4.977
			c0-5.922,3.717-8.505,9.576-8.505h2.205v5.355h-1.134c-2.835,0-3.843,1.701-3.843,4.473c0,1.134,0.188,2.269,0.314,3.591
			c0.126,1.26,0.315,2.709,0.315,4.284c0.063,4.789-1.891,6.553-5.355,7.309v0.126c3.465,0.756,5.418,2.583,5.355,7.371
			c0,1.639-0.189,3.088-0.315,4.41c-0.126,1.261-0.314,2.458-0.314,3.528c0,2.772,0.944,4.536,3.843,4.536h1.134v5.293h-2.268
			c-5.607,0-9.514-2.269-9.514-8.568c0-1.575,0.126-3.276,0.315-4.978c0.188-1.701,0.378-3.339,0.378-4.915
			c0-1.764-0.441-4.158-4.789-4.283V48.961z"/>
		<path d="M28.432,64.396c0-3.402,2.331-5.859,5.67-5.859c3.34,0,5.607,2.395,5.607,5.859c0,3.34-2.268,5.797-5.67,5.797
			C30.763,70.193,28.432,67.736,28.432,64.396z"/>
		<path d="M44.812,64.396c0-3.402,2.331-5.859,5.67-5.859c3.34,0,5.607,2.395,5.607,5.859c0,3.34-2.268,5.797-5.67,5.797
			C47.143,70.193,44.812,67.736,44.812,64.396z"/>
		<path d="M61.191,64.396c0-3.402,2.331-5.859,5.67-5.859c3.34,0,5.607,2.395,5.607,5.859c0,3.34-2.268,5.797-5.67,5.797
			C63.522,70.193,61.191,67.736,61.191,64.396z"/>
		<path d="M92.313,53.813c-4.284,0.125-4.788,2.52-4.788,4.283c0,1.576,0.189,3.214,0.378,4.915
			c0.189,1.701,0.378,3.402,0.378,4.978c0,6.3-3.906,8.568-9.576,8.568h-2.268v-5.293h1.134c2.897-0.063,3.843-1.764,3.843-4.536
			c0-1.07-0.126-2.268-0.314-3.528c-0.126-1.322-0.315-2.771-0.315-4.41c-0.063-4.788,1.891-6.615,5.418-7.371v-0.126
			c-3.527-0.756-5.48-2.52-5.418-7.309c0-1.575,0.189-3.024,0.315-4.284c0.188-1.323,0.314-2.457,0.314-3.591
			c0-2.772-1.008-4.41-3.843-4.473h-1.134V26.28h2.205c5.922,0,9.639,2.583,9.639,8.505c0,1.575-0.188,3.276-0.378,4.977
			c-0.188,1.701-0.378,3.339-0.378,4.915c0,1.89,0.504,4.158,4.788,4.284V53.813z"/>
	</g>
	<g>
		<path fill="none" stroke="#231F20" d="M7.39,48.961c4.348-0.126,4.789-2.394,4.789-4.284c0-1.575-0.189-3.213-0.378-4.915
			c-0.189-1.701-0.315-3.402-0.315-4.977c0-5.922,3.717-8.505,9.576-8.505h2.205v5.355h-1.134c-2.835,0-3.843,1.701-3.843,4.473
			c0,1.134,0.188,2.269,0.314,3.591c0.126,1.26,0.315,2.709,0.315,4.284c0.063,4.789-1.891,6.553-5.355,7.309v0.126
			c3.465,0.756,5.418,2.583,5.355,7.371c0,1.639-0.189,3.088-0.315,4.41c-0.126,1.261-0.314,2.458-0.314,3.528
			c0,2.772,0.944,4.536,3.843,4.536h1.134v5.293h-2.268c-5.607,0-9.514-2.269-9.514-8.568c0-1.575,0.126-3.276,0.315-4.978
			c0.188-1.701,0.378-3.339,0.378-4.915c0-1.764-0.441-4.158-4.789-4.283V48.961z"/>
		<path fill="none" stroke="#231F20" d="M28.432,64.396c0-3.402,2.331-5.859,5.67-5.859c3.34,0,5.607,2.395,5.607,5.859
			c0,3.34-2.268,5.797-5.67,5.797C30.763,70.193,28.432,67.736,28.432,64.396z"/>
		<path fill="none" stroke="#231F20" d="M44.812,64.396c0-3.402,2.331-5.859,5.67-5.859c3.34,0,5.607,2.395,5.607,5.859
			c0,3.34-2.268,5.797-5.67,5.797C47.143,70.193,44.812,67.736,44.812,64.396z"/>
		<path fill="none" stroke="#231F20" d="M61.191,64.396c0-3.402,2.331-5.859,5.67-5.859c3.34,0,5.607,2.395,5.607,5.859
			c0,3.34-2.268,5.797-5.67,5.797C63.522,70.193,61.191,67.736,61.191,64.396z"/>
		<path fill="none" stroke="#231F20" d="M92.313,53.813c-4.284,0.125-4.788,2.52-4.788,4.283c0,1.576,0.189,3.214,0.378,4.915
			c0.189,1.701,0.378,3.402,0.378,4.978c0,6.3-3.906,8.568-9.576,8.568h-2.268v-5.293h1.134c2.897-0.063,3.843-1.764,3.843-4.536
			c0-1.07-0.126-2.268-0.314-3.528c-0.126-1.322-0.315-2.771-0.315-4.41c-0.063-4.788,1.891-6.615,5.418-7.371v-0.126
			c-3.527-0.756-5.48-2.52-5.418-7.309c0-1.575,0.189-3.024,0.315-4.284c0.188-1.323,0.314-2.457,0.314-3.591
			c0-2.772-1.008-4.41-3.843-4.473h-1.134V26.28h2.205c5.922,0,9.639,2.583,9.639,8.505c0,1.575-0.188,3.276-0.378,4.977
			c-0.188,1.701-0.378,3.339-0.378,4.915c0,1.89,0.504,4.158,4.788,4.284V53.813z"/>
	</g>
</g>
</svg>
