<?xml version="1.0" encoding="utf-8"?>
<!-- Generator: Adobe Illustrator 16.0.0, SVG Export Plug-In . SVG Version: 6.00 Build 0)  -->
<!DOCTYPE svg PUBLIC "-//W3C//DTD SVG 1.1//EN" "http://www.w3.org/Graphics/SVG/1.1/DTD/svg11.dtd">
<svg version="1.1" id="Layer_1" xmlns="http://www.w3.org/2000/svg" xmlns:xlink="http://www.w3.org/1999/xlink" x="0px" y="0px"
	 width="100px" height="100px" viewBox="0 0 100 100" enable-background="new 0 0 100 100" xml:space="preserve">
<g>
	<path d="M85.4736328,44.1801758c7.2558594-7.2558594,7.0673828-19.0625-0.1884766-26.3183594
		c-7.2568359-7.2568359-19.2509766-7.2563477-26.5068359-0.0004883c-0.0087891,0.0092773,0.1630859-0.1635742,0.1630859-0.1635742
		l0,0l-20.480957,20.4824219l26.5043945,26.5063477l20.6259766-20.6269531l0,0
		C85.5908203,44.0595703,85.4638672,44.1889648,85.4736328,44.1801758z"/>
	<polygon opacity="0.8" fill="#FFFFFF" points="74.8378906,37.1259766 65.2851563,27.5722656 65.4990234,45.7724609 
		55.3935547,55.8779297 59.2128906,59.6982422 69.3193359,49.5917969 78.3115234,40.5996094 	"/>
	<polygon opacity="0.8" fill="#FFFFFF" points="62.0664063,23.2314453 52.5126953,32.7851563 42.4072266,42.8911133 
		46.2270508,46.7109375 56.1572266,36.7797852 62.8613281,43.4833984 	"/>
	
		<rect x="26.2787971" y="50.9784241" transform="matrix(0.7070965 0.707117 -0.707117 0.7070965 51.4703522 -20.140686)" opacity="0.9" fill="#272727" width="47.5356674" height="2.1603355"/>
	
		<line fill="none" stroke="#000000" stroke-width="5.4017568" stroke-miterlimit="10" x1="42.7895508" y1="46.3286133" x2="9.1772461" y2="79.9423828"/>
	
		<line fill="none" stroke="#000000" stroke-width="5.4017568" stroke-miterlimit="10" x1="55.7753906" y1="59.3164063" x2="27.5107422" y2="87.5810547"/>
</g>
</svg>
