<?xml version="1.0" encoding="utf-8"?>
<!-- Generator: Adobe Illustrator 16.0.0, SVG Export Plug-In . SVG Version: 6.00 Build 0)  -->
<!DOCTYPE svg PUBLIC "-//W3C//DTD SVG 1.1//EN" "http://www.w3.org/Graphics/SVG/1.1/DTD/svg11.dtd">
<svg version="1.1" id="Layer_1" xmlns="http://www.w3.org/2000/svg" xmlns:xlink="http://www.w3.org/1999/xlink" x="0px" y="0px"
	 width="100px" height="100px" viewBox="0 0 100 100" enable-background="new 0 0 100 100" xml:space="preserve">
<g>
	<path d="M82.1240234,42.8579102c7.4667969-7.4658203,7.2744141-19.6147461-0.1914063-27.0800781
		c-7.4667969-7.4677734-19.8085938-7.4672852-27.2753906-0.0004883c-0.0097656,0.0087891,0.1699219-0.1689453,0.1699219-0.1689453
		l0,0L33.7514648,36.6835938l27.2729492,27.2734375l21.2226563-21.2231445l0,0
		C82.2470703,42.7338867,82.1162109,42.8666992,82.1240234,42.8579102z"/>
	
		<rect x="20.7069035" y="49.8118134" transform="matrix(0.7070919 0.7071216 -0.7071216 0.7070919 49.4606171 -17.1134491)" opacity="0.9" fill="#272727" width="49.3610954" height="2.6678779"/>
	
		<line fill="none" stroke="#000000" stroke-width="4.0022779" stroke-miterlimit="10" x1="35.0112305" y1="42.6557617" x2="13.3144531" y2="64.3535156"/>
	
		<line fill="none" stroke="#000000" stroke-width="4.0022779" stroke-miterlimit="10" x1="47.2749023" y1="54.9199219" x2="12.3706055" y2="89.8232422"/>
	
		<line fill="none" stroke="#000000" stroke-width="4.0022779" stroke-miterlimit="10" x1="40.6713867" y1="48.315918" x2="14.2578125" y2="74.7304688"/>
	
		<line fill="none" stroke="#000000" stroke-width="4.0022779" stroke-miterlimit="10" x1="52.9345703" y1="60.5791016" x2="31.2382813" y2="82.2763672"/>
	<g opacity="0.8">
		<polygon fill="#FFFFFF" points="52.9091797,31.6728516 55.8232422,28.7573242 52.7626953,25.6967773 49.847168,28.6118164 
			48.1791992,39.0258789 42.1362305,45.0683594 45.1967773,48.1293945 51.2392578,42.0869141 		"/>
		<polygon fill="#FFFFFF" points="47.0795898,28.1743164 46.0581055,35.3164063 44.1635742,37.2114258 41.1098633,37.2045898 
			41.5405273,39.8344727 39.2211914,42.1533203 36.1601563,39.0922852 		"/>
		<polygon fill="#FFFFFF" points="68.2861328,49.3823242 61.1435547,50.4018555 59.2490234,52.2978516 59.2548828,55.3505859 
			56.6259766,54.9208984 54.3066406,57.2402344 57.3681641,60.3007813 		"/>
		<polygon fill="#FFFFFF" points="58.5927734,31.5263672 55.6767578,34.4418945 53.9365234,45.9506836 48.4770508,51.4091797 
			51.5371094,54.4697266 56.9970703,49.0107422 67.9208984,46.6855469 70.8359375,43.7695313 		"/>
	</g>
</g>
</svg>
