<?xml version="1.0" encoding="utf-8"?>
<!-- Generator: Adobe Illustrator 16.0.0, SVG Export Plug-In . SVG Version: 6.00 Build 0)  -->
<!DOCTYPE svg PUBLIC "-//W3C//DTD SVG 1.1//EN" "http://www.w3.org/Graphics/SVG/1.1/DTD/svg11.dtd">
<svg version="1.1" id="Layer_1" xmlns="http://www.w3.org/2000/svg" xmlns:xlink="http://www.w3.org/1999/xlink" x="0px" y="0px"
	 width="440px" height="260px" viewBox="0 0 440 260" enable-background="new 0 0 440 260" xml:space="preserve">
<g>
	<g>
		<path fill="#0099E7" d="M227.855,140.9l-18.88-10.9l18.88-10.902c1.025-0.592,1.377-1.904,0.785-2.931s-1.904-1.379-2.932-0.785
			l-22.099,12.758c-0.663,0.383-1.072,1.092-1.072,1.859c0,0.766,0.409,1.475,1.072,1.857l22.099,12.76
			c0.338,0.195,0.707,0.289,1.07,0.289c0.742,0,1.465-0.385,1.861-1.074C229.232,142.807,228.881,141.494,227.855,140.9z"/>
		<path fill="#0099E7" d="M387.389,128.141l-22.1-12.758c-1.027-0.594-2.338-0.24-2.932,0.785c-0.592,1.026-0.24,2.339,0.785,2.931
			L382.025,130l-18.883,10.9c-1.025,0.594-1.377,1.906-0.785,2.932c0.398,0.689,1.119,1.074,1.861,1.074
			c0.363,0,0.732-0.094,1.07-0.289l22.1-12.76c0.666-0.383,1.074-1.092,1.074-1.857
			C388.463,129.232,388.055,128.523,387.389,128.141z"/>
		<polygon points="270.961,96.292 270.959,96.295 274.137,90.792 233.67,126.676 248.48,135.227 228.861,169.209 269.328,133.322 
			254.518,124.772 258.871,117.229 		"/>
	</g>
	<g>
		<path fill="#00546D" d="M299.84,141.813c-0.797,1.172-1.738,2.063-2.824,2.672s-2.324,0.914-3.715,0.914
			c-3.125,0-5.551-1.141-7.277-3.422s-2.59-5.297-2.59-9.047v-0.492c0-4,0.867-7.227,2.602-9.68s4.172-3.68,7.313-3.68
			c1.266,0,2.406,0.277,3.422,0.832s1.906,1.34,2.672,2.355v-9.094l-3.656-0.703v-4.125h3.656h6.844v31.758l3.281,0.703v4.102
			h-9.211L299.84,141.813z M290.277,132.93c0,2.219,0.371,3.965,1.113,5.238s1.957,1.91,3.645,1.91c1,0,1.867-0.203,2.602-0.609
			s1.336-0.992,1.805-1.758v-10.758c-0.469-0.813-1.066-1.442-1.793-1.887s-1.582-0.668-2.566-0.668
			c-1.672,0-2.891,0.742-3.656,2.227c-0.766,1.484-1.148,3.422-1.148,5.813V132.93z"/>
		<path fill="#00546D" d="M311.535,140.805l3.305-0.703v-15.727l-3.656-0.703v-4.125h10.5v20.555l3.281,0.703v4.102h-13.43V140.805z
			 M321.684,113.476h-6.844v-5.133h6.844V113.476z"/>
		<path fill="#00546D" d="M337.973,123.671l-2.391,0.445l3.352,11.344l0.445,2.391h0.141l0.492-2.391l3.305-11.321l-2.438-0.469
			v-4.125h11.508v4.125l-2.203,0.352l-7.477,20.883h-6.539l-7.5-20.883l-2.203-0.352v-4.125h11.508V123.671z"/>
	</g>
	<g>
		<path fill="#0099E7" d="M76.855,140.9L57.975,130l18.88-10.902c1.026-0.592,1.378-1.904,0.785-2.931
			c-0.592-1.026-1.904-1.379-2.931-0.785l-22.1,12.758c-0.663,0.383-1.072,1.092-1.072,1.859c0,0.766,0.409,1.475,1.072,1.857
			l22.1,12.76c0.338,0.195,0.707,0.289,1.07,0.289c0.742,0,1.464-0.385,1.86-1.074C78.233,142.807,77.881,141.494,76.855,140.9z"/>
		<path fill="#0099E7" d="M192.389,128.141l-22.1-12.758c-1.027-0.594-2.339-0.24-2.932,0.785c-0.592,1.026-0.24,2.339,0.785,2.931
			L187.025,130l-18.882,10.9c-1.025,0.594-1.377,1.906-0.785,2.932c0.398,0.689,1.119,1.074,1.861,1.074
			c0.363,0,0.732-0.094,1.07-0.289l22.1-12.76c0.665-0.383,1.073-1.092,1.073-1.857
			C193.462,129.232,193.054,128.523,192.389,128.141z"/>
	</g>
	<g>
		<path fill="#00546D" d="M104.84,141.813c-0.797,1.172-1.738,2.063-2.824,2.672s-2.324,0.914-3.715,0.914
			c-3.125,0-5.551-1.141-7.277-3.422s-2.59-5.297-2.59-9.047v-0.492c0-4,0.867-7.227,2.602-9.68s4.172-3.68,7.313-3.68
			c1.266,0,2.406,0.277,3.422,0.832s1.906,1.34,2.672,2.355v-9.094l-3.656-0.703v-4.125h3.656h6.844v31.758l3.281,0.703v4.102
			h-9.211L104.84,141.813z M95.278,132.93c0,2.219,0.371,3.965,1.113,5.238s1.957,1.91,3.645,1.91c1,0,1.867-0.203,2.602-0.609
			s1.336-0.992,1.805-1.758v-10.758c-0.469-0.813-1.066-1.442-1.793-1.887s-1.582-0.668-2.566-0.668
			c-1.672,0-2.891,0.742-3.656,2.227c-0.766,1.484-1.148,3.422-1.148,5.813V132.93z"/>
		<path fill="#00546D" d="M116.536,140.805l3.305-0.703v-15.727l-3.656-0.703v-4.125h10.5v20.555l3.281,0.703v4.102h-13.43V140.805z
			 M126.684,113.476h-6.844v-5.133h6.844V113.476z"/>
		<path fill="#00546D" d="M142.973,123.671l-2.391,0.445l3.352,11.344l0.445,2.391h0.141l0.492-2.391l3.305-11.321l-2.438-0.469
			v-4.125h11.508v4.125l-2.203,0.352l-7.477,20.883h-6.539l-7.5-20.883l-2.203-0.352v-4.125h11.508V123.671z"/>
	</g>
</g>
<g>
</g>
<g>
</g>
<g>
</g>
<g>
</g>
<g>
</g>
<g>
</g>
</svg>
