<?xml version="1.0" encoding="utf-8"?>
<!-- Generator: Adobe Illustrator 16.0.0, SVG Export Plug-In . SVG Version: 6.00 Build 0)  -->
<!DOCTYPE svg PUBLIC "-//W3C//DTD SVG 1.1//EN" "http://www.w3.org/Graphics/SVG/1.1/DTD/svg11.dtd">
<svg version="1.1" id="Layer_1" xmlns="http://www.w3.org/2000/svg" xmlns:xlink="http://www.w3.org/1999/xlink" x="0px" y="0px"
	 width="440px" height="260px" viewBox="0 0 440 260" enable-background="new 0 0 440 260" xml:space="preserve">
<g>
	<g>
		<path fill="#0099E7" d="M372,215.2285156C372,217.3115234,370.3115234,219,368.2285156,219H70.7714844
			C68.6884766,219,67,217.3115234,67,215.2285156v-4.4570313C67,208.6884766,68.6884766,207,70.7714844,207h297.4570313
			C370.3115234,207,372,208.6884766,372,210.7714844V215.2285156z"/>
	</g>
	<g opacity="0.8">
		<path fill="none" stroke="#00546D" stroke-miterlimit="10" d="M343.5,51.815918
			C343.5,45.5664063,338.4335938,40.5,332.1845703,40.5H107.8154297C101.565918,40.5,96.5,45.5664063,96.5,51.815918v149.3676758
			c0,6.25,5.065918,11.3164063,11.3154297,11.3164063h224.3691406C338.4335938,212.5,343.5,207.4335938,343.5,201.1835938V51.815918
			z"/>
	</g>
	<g>
		<path fill="#0099E7" d="M330,182.1708984C330,183.7333984,328.7333984,185,327.1708984,185H114.8291016
			C113.2666016,185,112,183.7333984,112,182.1708984V62.8291016C112,61.2666016,113.2666016,60,114.8291016,60h212.3417969
			C328.7333984,60,330,61.2666016,330,62.8291016V182.1708984z"/>
	</g>
	<rect x="67" y="200" fill="#00546D" width="305" height="15"/>
	<rect x="179" y="200" opacity="0.2" fill="#FFFFFF" width="81" height="6"/>
	<g opacity="0.4">
		<path fill="#00546D" d="M181.0146484,112.0439453c0-4.8286133,3.4213867-10.7543945,7.6030273-13.1689453l26.8359375-15.4941406
			c4.1816406-2.4145508,11.0239258-2.4140625,15.2055664,0L257.4951172,98.875
			c4.1816406,2.4140625,7.6025391,8.340332,7.6025391,13.1689453V143.03125c0,4.8291016-3.4208984,10.7548828-7.6025391,13.1689453
			l-26.8359375,15.4931641c-4.1816406,2.4140625-11.0239258,2.4140625-15.2055664,0l-26.8359375-15.4931641
			c-4.1816406-2.4140625-7.6030273-8.3398438-7.6030273-13.1689453V112.0439453z"/>
	</g>
	<g>
		<g>
			<path fill="#00546D" d="M178.5644531,107.2255859c0-4.8286133,3.4213867-10.7548828,7.6030273-13.1689453L213.0029297,78.5625
				c4.1816406-2.4140625,11.0244141-2.4145508,15.2060547,0l26.8369141,15.4941406
				c4.1816406,2.4145508,7.6025391,8.340332,7.6025391,13.1689453v30.9863281
				c0,4.8291016-3.4208984,10.7548828-7.6025391,13.1689453l-26.8369141,15.4931641
				c-4.1816406,2.4140625-11.0244141,2.4140625-15.2060547,0l-26.8354492-15.4931641
				c-4.1816406-2.4140625-7.6030273-8.3398438-7.6030273-13.1689453V107.2255859z"/>
		</g>
		
			<polyline fill="none" stroke="#FFFFFF" stroke-width="2.96627" stroke-linecap="round" stroke-linejoin="round" stroke-miterlimit="10" points="
			203.5229492,131.5371094 188.2490234,122.7177734 203.5229492,113.8994141 		"/>
		
			<polyline fill="none" stroke="#FFFFFF" stroke-width="2.96627" stroke-linecap="round" stroke-linejoin="round" stroke-miterlimit="10" points="
			237.6894531,131.5371094 252.9648438,122.7177734 237.6894531,113.8994141 		"/>
		<g>
			<polygon fill="#F37920" points="232.9296875,125.015625 222.6933594,119.1054688 236.2519531,95.6201172 
				208.2832031,120.4208984 218.5205078,126.3320313 204.9609375,149.8173828 			"/>
			<polygon fill="#FFF100" points="230.7294922,125.1113281 222.0996094,120.1298828 234.0566406,99.421875 
				210.4838867,120.3251953 219.1123047,125.3066406 207.1435547,146.0371094 			"/>
		</g>
	</g>
</g>
<g>
</g>
<g>
</g>
<g>
</g>
<g>
</g>
<g>
</g>
<g>
</g>
</svg>
