<?xml version="1.0" encoding="utf-8"?>
<!-- Generator: Adobe Illustrator 16.0.0, SVG Export Plug-In . SVG Version: 6.00 Build 0)  -->
<!DOCTYPE svg PUBLIC "-//W3C//DTD SVG 1.1//EN" "http://www.w3.org/Graphics/SVG/1.1/DTD/svg11.dtd">
<svg version="1.1" id="Layer_1" xmlns="http://www.w3.org/2000/svg" xmlns:xlink="http://www.w3.org/1999/xlink" x="0px" y="0px"
	 width="440px" height="260px" viewBox="0 0 440 260" enable-background="new 0 0 440 260" xml:space="preserve">
<rect x="169" y="92" fill="#DCDCDC" width="243" height="10"/>
<rect x="169" y="65" fill="#DCDCDC" width="111" height="20"/>
<rect x="169" y="110" fill="#DCDCDC" width="243" height="10"/>
<rect x="169" y="127" fill="#DCDCDC" width="243" height="10"/>
<g>
	<path fill="#00546D" d="M280,190c0,3.2998047-2.7001953,6-6,6h-99c-3.2998047,0-6-2.7001953-6-6v-30c0-3.2998047,2.7001953-6,6-6
		h99c3.2998047,0,6,2.7001953,6,6V190z"/>
</g>
<g>
	<path fill="#0099E7" d="M412,190c0,3.2998047-2.7001953,6-6,6h-99c-3.2998047,0-6-2.7001953-6-6v-30c0-3.2998047,2.7001953-6,6-6
		h99c3.2998047,0,6,2.7001953,6,6V190z"/>
</g>
<path fill="#00546D" d="M129.9833984,128c0,22.5986328-18.3847656,40.9833984-40.9833984,40.9833984
	S48.0166016,150.5986328,48.0166016,128S66.4013672,87.0166016,89,87.0166016V66c-34.1865234,0-62,27.8134766-62,62
	s27.8134766,62,62,62s62-27.8134766,62-62H129.9833984z"/>
<path fill="#0099E7" d="M89,66v21.0166016c22.5986328,0,40.9833984,18.3847656,40.9833984,40.9833984H151
	C151,93.8134766,123.1865234,66,89,66z"/>
<g>
</g>
<g>
</g>
<g>
</g>
<g>
</g>
<g>
</g>
<g>
</g>
</svg>
