<?xml version="1.0" encoding="utf-8"?>
<!-- Generator: Adobe Illustrator 16.0.0, SVG Export Plug-In . SVG Version: 6.00 Build 0)  -->
<!DOCTYPE svg PUBLIC "-//W3C//DTD SVG 1.1//EN" "http://www.w3.org/Graphics/SVG/1.1/DTD/svg11.dtd">
<svg version="1.1" id="Layer_1" xmlns="http://www.w3.org/2000/svg" xmlns:xlink="http://www.w3.org/1999/xlink" x="0px" y="0px"
	 width="440px" height="260px" viewBox="0 0 440 260" enable-background="new 0 0 440 260" xml:space="preserve">
<g>
	<path fill="none" stroke="#00546D" stroke-miterlimit="10" d="M358.5,222.5c0,3.3134766-2.6865234,6-6,6h-266
		c-3.3134766,0-6-2.6865234-6-6v-185c0-3.3134766,2.6865234-6,6-6h266c3.3134766,0,6,2.6865234,6,6V222.5z"/>
	<line fill="none" stroke="#00546D" stroke-miterlimit="10" stroke-dasharray="10,5" x1="81" y1="59.5" x2="359" y2="59.5"/>
	
		<rect x="323.0166016" y="40.2128906" fill="none" stroke="#000000" stroke-miterlimit="10" width="12.9130859" height="10.5722656"/>
	<rect x="323.0166016" y="40.2128906" width="12.9130859" height="2.5566406"/>
	
		<rect x="340.0027771" y="44.2208443" transform="matrix(0.7071068 0.7071068 -0.7071068 0.7071068 133.6484528 -231.6578369)" width="12.9143658" height="2.5563567"/>
	
		<rect x="340.0022888" y="44.2213326" transform="matrix(-0.7071068 0.7071068 -0.7071068 -0.7071068 623.616333 -167.3113098)" width="12.9143658" height="2.5563571"/>
	<rect x="304.6044922" y="48.2294922" width="12.9130859" height="2.5556641"/>
	<g>
		<rect x="98" y="101" fill="#DCDCDC" width="243" height="10"/>
		<rect x="98" y="74" fill="#DCDCDC" width="111" height="20"/>
		<rect x="98" y="119" fill="#DCDCDC" width="243" height="10"/>
		<rect x="98" y="136" fill="#DCDCDC" width="243" height="10"/>
		<g>
			<path fill="#00546D" d="M209,209c0,3.3134766-2.6865234,6-6,6h-99c-3.3134766,0-6-2.6865234-6-6v-30c0-3.3134766,2.6865234-6,6-6
				h99c3.3134766,0,6,2.6865234,6,6V209z"/>
		</g>
		<g>
			<path fill="#0099E7" d="M341,209c0,3.3134766-2.6865234,6-6,6h-99c-3.3134766,0-6-2.6865234-6-6v-30c0-3.3134766,2.6865234-6,6-6
				h99c3.3134766,0,6,2.6865234,6,6V209z"/>
		</g>
	</g>
</g>
<g>
</g>
<g>
</g>
<g>
</g>
<g>
</g>
<g>
</g>
<g>
</g>
</svg>
