<?xml version="1.0" encoding="utf-8"?>
<!-- Generator: Adobe Illustrator 16.0.0, SVG Export Plug-In . SVG Version: 6.00 Build 0)  -->
<!DOCTYPE svg PUBLIC "-//W3C//DTD SVG 1.1//EN" "http://www.w3.org/Graphics/SVG/1.1/DTD/svg11.dtd">
<svg version="1.1" id="Layer_1" xmlns="http://www.w3.org/2000/svg" xmlns:xlink="http://www.w3.org/1999/xlink" x="0px" y="0px"
	 width="440px" height="260px" viewBox="0 0 440 260" enable-background="new 0 0 440 260" xml:space="preserve">
<g>
	<g>
		<path fill="none" stroke="#00546D" stroke-miterlimit="10" d="M190.6108398,161.9951172
			c0-6.9951172,4.9560547-15.5791016,11.0136719-19.0761719l38.8745117-22.4433594
			c6.0576172-3.4970703,15.9697266-3.4970703,22.0273438,0l38.8759766,22.4433594
			c6.0576172,3.4970703,11.0136719,12.0810547,11.0136719,19.0761719v44.8886719
			c0,6.9951172-4.9560547,15.5791016-11.0136719,19.0761719l-38.8759766,22.4453125
			c-6.0576172,3.4970703-15.9697266,3.4970703-22.0273438,0l-38.8745117-22.4453125
			c-6.0576172-3.4970703-11.0136719-12.0810547-11.0136719-19.0761719V161.9951172z"/>
	</g>
	<g>
		<path fill="none" stroke="#00546D" stroke-miterlimit="10" stroke-dasharray="10.039793,5.0198965" d="M254.5136719,53.1137695
			c0-6.9946289,4.9560547-15.5786133,11.0136719-19.0756836l38.8740234-22.4433594
			c6.0576172-3.4970703,15.9697266-3.4970703,22.0273438,0l38.8759766,22.4433594
			c6.0576172,3.4970703,11.0136719,12.0810547,11.0136719,19.0756836V98.003418
			c0,6.9946289-4.9560547,15.5786133-11.0136719,19.0756836l-38.8759766,22.4453125
			c-6.0576172,3.4970703-15.9697266,3.4970703-22.0273438,0l-38.8740234-22.4448242
			c-6.0576172-3.4975586-11.0136719-12.081543-11.0136719-19.0761719V53.1137695z"/>
	</g>
	<g>
		<path fill="none" stroke="#00546D" stroke-miterlimit="10" stroke-dasharray="10.0397711,5.0198855" d="M127.1464844,53.1147461
			c0-6.9946289,4.9560547-15.5786133,11.0136719-19.0756836l38.8745117-22.4443359
			c6.0576172-3.4970703,15.9697266-3.4970703,22.0273438,0L237.9375,34.0390625
			c6.0576172,3.4970703,11.0136719,12.0810547,11.0136719,19.0756836V98.003418
			c0,6.9946289-4.9560547,15.5786133-11.0136719,19.0761719l-38.8754883,22.4448242
			c-6.0576172,3.4970703-15.9697266,3.4970703-22.0273438,0l-38.8745117-22.4448242
			c-6.0576172-3.4975586-11.0136719-12.081543-11.0136719-19.0761719V53.1147461z"/>
	</g>
	<g>
		<path fill="none" stroke="#00546D" stroke-miterlimit="10" stroke-dasharray="10.0397873,5.0198936" d="M63.6821289,161.9951172
			c0-6.9951172,4.9560547-15.5791016,11.0136719-19.0761719l38.8745117-22.4433594
			c6.0576172-3.4970703,15.9697266-3.4970703,22.0273438,0l38.8754883,22.4433594
			c6.0576172,3.4970703,11.0136719,12.0810547,11.0136719,19.0761719v44.8886719
			c0,6.9951172-4.9560547,15.5791016-11.0136719,19.0761719l-38.8754883,22.4453125
			c-6.0576172,3.4970703-15.9697266,3.4970703-22.0273438,0l-38.8745117-22.4453125
			c-6.0576172-3.4970703-11.0136719-12.0810547-11.0136719-19.0761719V161.9951172z"/>
	</g>
	<g>
		<g>
			<path fill="#0099E7" d="M226.7929688,199.3466797c-0.3632813,0-0.7324219-0.0927734-1.0703125-0.2890625l-22.0991211-12.7587891
				c-0.6635742-0.3828125-1.0727539-1.0917969-1.0727539-1.8583984s0.4091797-1.4755859,1.0727539-1.8583984l22.0991211-12.7587891
				c1.0263672-0.59375,2.3388672-0.2412109,2.9306641,0.7851563c0.5927734,1.0263672,0.2412109,2.3388672-0.7851563,2.9306641
				l-18.8798828,10.9013672l18.8798828,10.9013672c1.0263672,0.5927734,1.3779297,1.9052734,0.7851563,2.9306641
				C228.2568359,198.9619141,227.5351563,199.3466797,226.7929688,199.3466797z"/>
		</g>
		<g>
			<path fill="#0099E7" d="M276.2324219,199.3466797c-0.7421875,0-1.4628906-0.3847656-1.8613281-1.0742188
				c-0.5917969-1.0253906-0.2402344-2.3378906,0.7851563-2.9306641l18.8818359-10.9013672L275.15625,173.5390625
				c-1.0253906-0.5917969-1.3769531-1.9042969-0.7851563-2.9306641c0.5927734-1.0253906,1.9042969-1.3789063,2.9316406-0.7851563
				l22.0996094,12.7587891c0.6650391,0.3828125,1.0732422,1.0917969,1.0732422,1.8583984s-0.4082031,1.4755859-1.0732422,1.8583984
				l-22.0996094,12.7587891C276.9648438,199.2539063,276.5957031,199.3466797,276.2324219,199.3466797z"/>
		</g>
		<g>
			<g>
				<polygon points="269.3417969,187.7636719 254.5302734,179.2128906 274.1494141,145.2324219 233.6826172,181.1171875 
					248.4941406,189.6679688 228.875,223.6494141 				"/>
			</g>
			<g>
				<polygon points="266.1582031,187.9042969 253.6738281,180.6953125 270.9746094,150.7333984 236.8671875,180.9785156 
					249.3515625,188.1855469 232.0341797,218.1796875 				"/>
			</g>
		</g>
	</g>
</g>
<g>
</g>
<g>
</g>
<g>
</g>
<g>
</g>
<g>
</g>
<g>
</g>
</svg>
