<?xml version="1.0" encoding="utf-8"?>
<!-- Generator: Adobe Illustrator 16.0.0, SVG Export Plug-In . SVG Version: 6.00 Build 0)  -->
<!DOCTYPE svg PUBLIC "-//W3C//DTD SVG 1.1//EN" "http://www.w3.org/Graphics/SVG/1.1/DTD/svg11.dtd">
<svg version="1.1" id="Layer_1" xmlns="http://www.w3.org/2000/svg" xmlns:xlink="http://www.w3.org/1999/xlink" x="0px" y="0px"
	 width="600px" height="400px" viewBox="0 0 600 400" enable-background="new 0 0 600 400" xml:space="preserve">
<g>
	<g>
		<g>
			<path fill="#B2B2B2" d="M372.1835938,388.4287109C374.4208984,389.3398438,374.2744141,390,371.859375,390H233.0874023
				c-2.4155273,0-2.5952148-0.7373047-0.3994141-1.7441406l30.5083008-13.7041016
				C265.3920898,373.5449219,269.1645508,373,271.5800781,373h56.9755859c2.4150391,0,6.2216797,0.4677734,8.4589844,1.3789063
				L372.1835938,388.4287109z"/>
		</g>
		<polygon fill="#DFDFDF" points="348.40625,379 253.7783203,379 284.5976563,275 317.5878906,275 		"/>
		<g>
			<defs>
				<path id="SVGID_1_" d="M523,316.3759766C523,321.6914063,518.6914063,326,513.3769531,326H86.6230469
					C81.3085938,326,77,321.6914063,77,316.3759766V19.6240234C77,14.3085938,81.3085938,10,86.6230469,10h426.7539063
					C518.6914063,10,523,14.3085938,523,19.6240234V316.3759766z"/>
			</defs>
			<use xlink:href="#SVGID_1_"  overflow="visible" fill="#363636"/>
			<clipPath id="SVGID_2_">
				<use xlink:href="#SVGID_1_"  overflow="visible"/>
			</clipPath>
			<rect x="61" y="275" clip-path="url(#SVGID_2_)" fill="#D6D6D6" width="499" height="96"/>
		</g>
		<rect x="105" y="34" fill="#00546D" width="393" height="220"/>
		<circle fill="#B2B2B2" cx="301.4047852" cy="24.4916992" r="2.8061523"/>
		<circle fill="#B2B2B2" cx="301.0922852" cy="300.7470703" r="11.2270508"/>
	</g>
	<g>
		<rect x="105" y="34" fill="#0099E7" width="393" height="219"/>
		<g>
			<path fill="#00556E" d="M448,164.2270508C448,159.6835938,444.3164063,156,439.7724609,156H169.2275391
				C164.6835938,156,161,159.6835938,161,164.2270508v50.5463867C161,219.3164063,164.6835938,223,169.2275391,223h270.5449219
				C444.3164063,223,448,219.3164063,448,214.7734375V164.2270508z"/>
		</g>
		<g>
			<path fill="#00556E" d="M448,80.2270508C448,75.6835938,444.3164063,72,439.7724609,72H169.2275391
				C164.6835938,72,161,75.6835938,161,80.2270508v50.5458984C161,135.3164063,164.6835938,139,169.2275391,139h270.5449219
				C444.3164063,139,448,135.3164063,448,130.7729492V80.2270508z"/>
		</g>
		<g>
			<path fill="#FFF100" d="M225.5786133,71.3676758c0-7.8134766-6.4741211-14.0698242-14.2885742-14.0698242
				C203.4746094,57.2978516,197,63.7568359,197,71.5703125c0,0.0097656,0-0.1757813,0-0.1757813l0,0V93h29V71.2402344l0,0
				C226,71.2402344,225.5786133,71.3774414,225.5786133,71.3676758z"/>
			<g>
				<polygon opacity="0.5" fill="#F37920" points="215.6328125,74 205.3432617,74 215,82.9814453 215,93 220,93 220,82.9814453 
					220,74 				"/>
				<polygon opacity="0.5" fill="#F37920" points="201,72.690918 201,82.9814453 201,93 207,93 207,83 212.6074219,83 				"/>
			</g>
			<rect x="194" y="93" opacity="0.5" fill="#DCDCDC" width="35" height="2"/>
			<line fill="none" stroke="#FFFFFF" stroke-width="3" stroke-miterlimit="10" x1="203.5" y1="95" x2="203.5" y2="132"/>
			<line fill="none" stroke="#FFFFFF" stroke-width="3" stroke-miterlimit="10" x1="217.5" y1="95" x2="217.5" y2="126"/>
		</g>
		<rect x="249" y="104" fill="#D6D6D6" width="166" height="5"/>
		<circle fill="#0099E7" cx="361.362793" cy="106.6201172" r="13.5737305"/>
		<rect x="249" y="187" fill="#D6D6D6" width="166" height="5"/>
		<circle fill="#0099E7" cx="291.2634277" cy="189.668457" r="13.5744629"/>
		<g>
			<path fill="#FFFFFF" d="M229.78125,165.0541992c0-9.2504883-7.6396484-16.6572266-16.8891602-16.6572266
				c-9.2524414,0-16.8920898,7.6469727-16.8920898,16.8959961c0,0.012207,0-0.2080078,0-0.2080078l0,0V191h34v-26.0981445l0,0
				C230,164.9018555,229.78125,165.0649414,229.78125,165.0541992z"/>
			<rect x="191" y="191" opacity="0.5" fill="#DCDCDC" width="42" height="1"/>
			<line fill="none" stroke="#FFFFFF" stroke-width="3" stroke-miterlimit="10" x1="200.5" y1="192" x2="200.5" y2="220"/>
			<line fill="none" stroke="#FFFFFF" stroke-width="3" stroke-miterlimit="10" x1="216.5" y1="192" x2="216.5" y2="237"/>
			<line fill="none" stroke="#FFFFFF" stroke-width="3" stroke-miterlimit="10" x1="208.5" y1="192" x2="208.5" y2="226"/>
			<line fill="none" stroke="#FFFFFF" stroke-width="3" stroke-miterlimit="10" x1="223.5" y1="192" x2="223.5" y2="220"/>
			<g>
				<polygon fill="#969696" points="204,176.2236328 204,173 200,173 200,176.2236328 207,183.7094727 207,191 210,191 
					210,183.7094727 				"/>
				<polygon fill="#969696" points="199,177.6689453 202,182.7250977 202,185.0722656 200.1035156,186.9599609 202,188.3227539 
					202,191 199,191 				"/>
				<polygon fill="#969696" points="225,177.6689453 221,182.7250977 221,185.0722656 222.8969727,186.9599609 221,188.3227539 
					221,191 225,191 				"/>
				<polygon fill="#969696" points="208,173 208,176.2236328 213,184.4321289 213,191 219,191 219,184.4321289 223,176.2236328 
					223,173 				"/>
			</g>
		</g>
	</g>
</g>
<g>
</g>
<g>
</g>
<g>
</g>
<g>
</g>
<g>
</g>
<g>
</g>
</svg>
