<?xml version="1.0" encoding="utf-8"?>
<!-- Generator: Adobe Illustrator 16.0.0, SVG Export Plug-In . SVG Version: 6.00 Build 0)  -->
<!DOCTYPE svg PUBLIC "-//W3C//DTD SVG 1.1//EN" "http://www.w3.org/Graphics/SVG/1.1/DTD/svg11.dtd">
<svg version="1.1" id="Layer_1" xmlns="http://www.w3.org/2000/svg" xmlns:xlink="http://www.w3.org/1999/xlink" x="0px" y="0px"
	 width="600px" height="400px" viewBox="0 0 600 400" enable-background="new 0 0 600 400" xml:space="preserve">
<g>
	<g>
		<path fill="#00556E" d="M51.5,191.4658203l28-17.8642578v11.0043945l-18,10.8613281v0.2861328l18,10.8618164v11.0039063
			l-28-17.8642578V191.4658203z"/>
		<path fill="#00556E" d="M89.1508789,201.4697266c0-2.9047852,0.4282227-5.5253906,1.2861328-7.8603516
			c0.8574219-2.3334961,1.9760742-4.2983398,3.3583984-5.8950195c1.3813477-1.5957031,2.9765625-2.8227539,4.7875977-3.6801758
			c1.8100586-0.8574219,3.6445313-1.2861328,5.5024414-1.2861328c2.0009766,0,3.6445313,0.3212891,4.9306641,0.9643555
			c1.2861328,0.6435547,2.6459961,1.5131836,3.7426758,2.6088867L112.5,181.1757813V169.5h12v50h-10.0532227l-0.8574219-3
			h-0.2861328c-1.2392578,1-2.6791992,2.0136719-4.3232422,2.7734375c-1.6430664,0.7636719-3.2753906,1.03125-4.8945313,1.03125
			c-2.2866211,0-4.3476563-0.4853516-6.1811523-1.3427734c-1.8344727-0.8574219-3.394043-2.1240234-4.6806641-3.7441406
			c-1.2856445-1.6181641-2.2866211-3.5986328-3.0009766-5.9101563
			C89.5078125,206.9980469,89.1508789,204.3769531,89.1508789,201.4697266z M101.7270508,201.3271484
			c0,3.2402344,0.487793,5.5273438,1.465332,6.8603516c0.9755859,1.3339844,2.3457031,2.0009766,4.1088867,2.0009766
			c1,0,2.0629883-0.1796875,2.8491211-0.5371094c0.7866211-0.3574219,1.3496094-1.0351563,2.3496094-2.0361328v-13.1479492
			c-1-0.6665039-1.6347656-1.1191406-2.4208984-1.3579102c-0.7861328-0.2382813-1.6928711-0.3574219-2.5498047-0.3574219
			c-1.5253906,0-2.9013672,0.6435547-4.0444336,1.9291992C102.3413086,195.9672852,101.7270508,198.1826172,101.7270508,201.3271484
			z"/>
		<path fill="#00556E" d="M134.5,183.5h26v36h-13v-26h-13V183.5z M153.6044922,179.1748047
			c-2.2861328,0-4.1689453-0.6538086-5.6445313-1.9648438c-1.4770508-1.3095703-2.2158203-3.0366211-2.2158203-5.1806641
			c0-2.1435547,0.7387695-3.8945313,2.2158203-5.2519531c1.4755859-1.3579102,3.3583984-2.0366211,5.6445313-2.0366211
			c2.2871094,0,4.168457,0.6787109,5.6455078,2.0366211c1.4760742,1.3574219,2.2148438,3.1083984,2.2148438,5.2519531
			c0,2.144043-0.7387695,3.8710938-2.2148438,5.1806641C157.7729492,178.5209961,155.8916016,179.1748047,153.6044922,179.1748047z"
			/>
		<path fill="#00556E" d="M173.6123047,183.5h12.2905273l4.6450195,15.6308594
			c0.5234375,1.8105469,1.0112305,3.7441406,1.4648438,5.578125c0.4516602,1.8339844,0.9399414,3.7910156,1.4648438,5.7910156
			h0.2856445c0.5239258-2,1.0117188-3.9316406,1.4648438-5.765625c0.4521484-1.8339844,0.9404297-3.7509766,1.4648438-5.5615234
			L201.3378906,183.5h11.71875l-12.4335938,36h-14.1484375L173.6123047,183.5z"/>
		<path fill="#00556E" d="M249.5,199.7548828l-28,17.8642578v-11.0039063l18-10.8618164v-0.2861328l-18-10.8613281v-11.0043945
			l28,17.8642578V199.7548828z"/>
	</g>
	<g>
		<path fill="#00556E" d="M266.5,190.5756836l28-17.8642578v11.0043945l-18,10.8613281v0.2861328l18,10.8613281v11.0048828
			l-28-17.8647461V190.5756836z"/>
		<path fill="#00556E" d="M389.7304688,200.5791016c0-2.9042969,0.4287109-5.5253906,1.2861328-7.8603516
			c0.8574219-2.3330078,1.9755859-4.2978516,3.3574219-5.8945313c1.3818359-1.5957031,2.9775391-2.8227539,4.7890625-3.6801758
			c1.8095703-0.8574219,3.6435547-1.2866211,5.5019531-1.2866211c2.0009766,0,3.6435547,0.3217773,4.9296875,0.9648438
			c1.2871094,0.6435547,2.3564453,1.5131836,3.4541016,2.6083984L412.5,180.2856445V168.5h13v50h-10.4746094l-0.8564453-3
			h-0.2861328c-1.2392578,1-2.6796875,2.0683594-4.3232422,2.8300781s-3.2763672,1.0576172-4.8945313,1.0576172
			c-2.2871094,0-4.3486328-0.4716797-6.1816406-1.3291016c-1.8339844-0.8574219-3.3945313-2.1181641-4.6806641-3.7382813
			c-1.2851563-1.6181641-2.2861328-3.59375-3.0009766-5.9052734
			C390.0878906,206.1044922,389.7304688,203.4863281,389.7304688,200.5791016z M402.3066406,200.4365234
			c0,3.2402344,0.4873047,5.5273438,1.4648438,6.8603516c0.9755859,1.3339844,2.3457031,2.0009766,4.1083984,2.0009766
			c1,0,1.7744141-0.1796875,2.5615234-0.5371094c0.7851563-0.3564453,2.0585938-1.0351563,2.0585938-2.0361328v-13.1474609
			c0-0.6665039-1.3457031-1.1191406-2.1308594-1.3583984c-0.7851563-0.237793-1.5488281-0.3574219-2.40625-0.3574219
			c-1.5244141,0-2.828125,0.6435547-3.9716797,1.9296875S402.3066406,197.2924805,402.3066406,200.4365234z"/>
		<path fill="#00556E" d="M434.5,182.5h26v36h-12v-26h-14V182.5z M454.1835938,178.284668
			c-2.2861328,0-4.1689453-0.6542969-5.6455078-1.9648438c-1.4765625-1.3095703-2.2148438-3.0371094-2.2148438-5.1806641
			s0.7382813-3.8945313,2.2148438-5.2524414c1.4765625-1.3574219,3.359375-2.0361328,5.6455078-2.0361328
			s4.1679688,0.6787109,5.6455078,2.0361328c1.4755859,1.3579102,2.2148438,3.1088867,2.2148438,5.2524414
			s-0.7392578,3.8710938-2.2148438,5.1806641C458.3515625,177.6303711,456.4697266,178.284668,454.1835938,178.284668z"/>
		<path fill="#00556E" d="M474.1914063,182.5h12.2910156l4.6445313,15.6855469
			c0.5234375,1.8105469,1.0117188,3.7158203,1.4648438,5.5498047C493.0439453,205.5693359,493.53125,207.5,494.0566406,209.5
			h0.2861328c0.5234375-2,1.0117188-3.8769531,1.4638672-5.7109375c0.453125-1.8339844,0.9404297-3.777832,1.4658203-5.5883789
			L501.9169922,182.5h11.71875l-12.4335938,36h-14.1484375L474.1914063,182.5z"/>
		<path fill="#00556E" d="M550.5,198.8647461l-28,17.8647461v-11.0048828l18-10.8613281v-0.2861328l-18-10.8613281v-11.0043945
			l28,17.8642578V198.8647461z"/>
	</g>
	<g>
		<polygon fill="#F37920" points="368.0712891,205.5722656 344.2890625,191.8393555 375.7890625,137.2719727 
			310.8105469,194.8950195 334.59375,208.6289063 303.0917969,263.1953125 		"/>
		<polygon fill="#FFF100" points="362.9599609,205.7949219 342.9121094,194.2197266 370.6914063,146.1064453 
			315.921875,194.6723633 335.9697266,206.2490234 308.1621094,254.4111328 		"/>
	</g>
	<rect x="43.5" y="51.5" fill="#D6D6D6" width="208" height="26"/>
	<rect x="43.5" y="93.5" fill="#D6D6D6" width="365" height="26"/>
	<rect x="43.5" y="277.5" fill="#D6D6D6" width="248" height="26"/>
	<rect x="43.5" y="321.5" fill="#D6D6D6" width="189" height="25"/>
</g>
</svg>
