<?xml version="1.0" encoding="utf-8"?>
<!-- Generator: Adobe Illustrator 16.0.0, SVG Export Plug-In . SVG Version: 6.00 Build 0)  -->
<!DOCTYPE svg PUBLIC "-//W3C//DTD SVG 1.1//EN" "http://www.w3.org/Graphics/SVG/1.1/DTD/svg11.dtd">
<svg version="1.1" id="Layer_1" xmlns="http://www.w3.org/2000/svg" xmlns:xlink="http://www.w3.org/1999/xlink" x="0px" y="0px"
	 width="600px" height="400px" viewBox="0 0 600 400" enable-background="new 0 0 600 400" xml:space="preserve">
<g>
	<g>
		<path fill="#3A3A3A" d="M69.5,226.5V12.273c0-5.101,4.113-8.773,9.214-8.773h358.007c5.102,0,9.779,3.673,9.779,8.773V226.5"/>
		<path fill="#080808" d="M69.5,231.5V16.911c0-5.101,4.113-9.411,9.214-9.411h358.007c5.102,0,9.779,4.31,9.779,9.411V231.5"/>
		<path fill="#D6D6D6" d="M446.5,231.5v33.976c0,5.102-4.678,10.024-9.779,10.024H78.714c-5.101,0-9.214-4.923-9.214-10.024V231.5"
			/>
		<circle fill="#BDBDBD" cx="257.717" cy="252.955" r="9.229"/>
		<rect x="90.5" y="28.5" fill="#00B3FF" width="334" height="184"/>
		<polygon fill="#9E9E9E" points="304.092,314.5 211.344,314.5 227.111,275.5 288.325,275.5 		"/>
		<circle fill="#C8C8C8" cx="257.717" cy="18.303" r="2.319"/>
		<g>
			<path fill="#C8C8C8" d="M308.801,318.781c-2.59-2.848-7.859-5.281-11.709-5.281h-78.748c-3.85,0-9.119,2.434-11.708,5.281
				l-9.133,10.293c-2.589,2.849-1.559,5.426,2.292,5.426h115.847c3.85,0,4.881-2.577,2.291-5.426L308.801,318.781z"/>
		</g>
		<polyline fill="#C8C8C8" points="202.068,324.305 211.344,314.5 304.092,314.5 309.184,319.902 		"/>
	</g>
	<g>
		<g>
			<path fill="#7D7D7D" d="M489.5,363.5c0-4.971-4.029-9-9-9h-112c-4.971,0-9,4.029-9,9v24c0,4.971,4.029,9,9,9h112
				c4.971,0,9-4.029,9-9V363.5z"/>
		</g>
		<g>
			<path fill="#505050" d="M489.5,360.5c0-4.971-4.029-9-9-9h-112c-4.971,0-9,4.029-9,9v24c0,4.971,4.029,9,9,9h112
				c4.971,0,9-4.029,9-9V360.5z"/>
		</g>
		<g>
			<path fill="#222222" d="M489.5,340.5c0-4.971-4.029-9-9-9h-112c-4.971,0-9,4.029-9,9v24c0,4.971,4.029,9,9,9h112
				c4.971,0,9-4.029,9-9V340.5z"/>
		</g>
		<path fill="#00B3FF" d="M434.248,352.194c0-5.293-4.291-9.584-9.584-9.584s-9.584,4.291-9.584,9.584
			c0,5.294,4.291,5.411,9.584,5.411S434.248,357.488,434.248,352.194z"/>
		<g>
			<path fill="none" d="M528.512,287.887c-21.34-35.043-59.908-58.582-103.848-58.582c-43.941,0-82.508,23.539-103.85,58.582"/>
			<path fill="none" d="M334.857,299.854c17.822-31.169,51.4-52.416,89.807-52.416s71.984,21.247,89.805,52.416"/>
			<path fill="none" d="M462.99,343.724c-3.992-17.729-19.654-30.386-38.326-30.386s-34.566,12.657-38.559,30.387 M443.443,352.5
				c0-10-8.426-18.775-18.779-18.775c-10.355,0-18.777,8.775-18.777,18.775h-0.928c0-10,8.84-19.702,19.705-19.702
				s19.705,9.702,19.705,19.702H443.443z"/>
			<path fill="none" d="M367.959,328.063c9.346-22.019,31.244-37.866,56.705-37.866s47.357,15.847,56.705,37.865"/>
			<path fill="none" d="M496.367,315.28c-13.299-26.121-40.447-43.959-71.703-43.959c-31.258,0-58.404,17.838-71.703,43.959"/>
			<path fill="none" d="M385.266,342.812c4.43-17.577,20.412-30.773,39.398-30.773s34.969,13.195,39.396,30.772"/>
			<path fill="none" d="M480.025,329.206c-8.975-21.672-30.404-37.34-55.361-37.34c-24.959,0-46.387,15.668-55.363,37.34"/>
			<path fill="none" d="M512.666,301.39c-17.328-30.731-50.279-51.541-88.002-51.541c-37.725,0-70.676,20.81-88.004,51.541"/>
			<path fill="none" d="M351.398,313.948c13.725-26.504,41.414-44.669,73.266-44.669c31.85,0,59.539,18.165,73.266,44.669"/>
			<path fill="#00B3FF" d="M424.664,229.305c43.939,0,82.508,23.539,103.848,58.582l2.197-1.874
				c-21.865-35.679-61.221-59.491-106.045-59.491c-44.826,0-84.182,23.813-106.047,59.491l2.197,1.874
				C342.156,252.844,380.723,229.305,424.664,229.305z"/>
			<path fill="#00B3FF" d="M424.664,249.849c37.723,0,70.674,20.81,88.002,51.541l1.803-1.536
				c-17.82-31.169-51.398-52.416-89.805-52.416s-71.984,21.247-89.807,52.416l1.803,1.536
				C353.988,270.658,386.939,249.849,424.664,249.849z"/>
			<path fill="#00B3FF" d="M424.664,271.321c31.256,0,58.404,17.838,71.703,43.959l1.563-1.332
				c-13.727-26.504-41.416-44.669-73.266-44.669c-31.852,0-59.541,18.165-73.266,44.669l1.563,1.332
				C366.26,289.159,393.406,271.321,424.664,271.321z"/>
			<path fill="#00B3FF" d="M424.664,291.866c24.957,0,46.387,15.668,55.361,37.34l1.344-1.145
				c-9.348-22.019-31.244-37.865-56.705-37.865s-47.359,15.848-56.705,37.866l1.342,1.144
				C378.277,307.534,399.705,291.866,424.664,291.866z"/>
			<path fill="#00B3FF" d="M424.664,313.338c18.672,0,34.334,12.657,38.326,30.386l1.07-0.913
				c-4.428-17.577-20.41-30.772-39.396-30.772s-34.969,13.196-39.398,30.773l1.07,0.913
				C390.328,325.995,405.992,313.338,424.664,313.338z"/>
			<path fill="#00B3FF" d="M424.664,332.798c-10.865,0-19.705,9.702-19.705,19.702h0.928c0-10,8.422-18.775,18.777-18.775
				c10.354,0,18.779,8.775,18.779,18.775h0.926C444.369,342.5,435.529,332.798,424.664,332.798z"/>
		</g>
		
			<line fill="none" stroke="#FFF100" stroke-width="2" stroke-linecap="round" stroke-miterlimit="10" x1="382.5" y1="383.5" x2="467.5" y2="383.5"/>
	</g>
	<g>
		<line fill="#231F20" stroke="#FFFFFF" stroke-width="4" stroke-miterlimit="10" x1="126.5" y1="112.5" x2="389.5" y2="112.5"/>
		<circle fill="#FFFFFF" cx="264.186" cy="112.579" r="6.929"/>
		<line fill="#231F20" stroke="#FFFFFF" stroke-width="4" stroke-miterlimit="10" x1="126.5" y1="148.5" x2="389.5" y2="148.5"/>
		<circle fill="#FFFFFF" cx="339.946" cy="148.611" r="6.929"/>
		<line fill="#231F20" stroke="#FFFFFF" stroke-width="4" stroke-miterlimit="10" x1="126.5" y1="184.5" x2="389.5" y2="184.5"/>
		<circle fill="#FFFFFF" cx="174.567" cy="183.72" r="6.929"/>
	</g>
	<g>
		<g>
			<path d="M223.5,61.52l15-6.348v4.937l-4.959,1.764l-4.041,1.623v0.141l4.041,1.623l4.959,1.763v4.938l-15-6.349V61.52z"/>
			<path d="M293.5,65.612l-16,6.349v-4.938l5.457-1.763l4.543-1.623v-0.141l-4.543-1.623l-5.457-1.764v-4.937l16,6.348V65.612z"/>
		</g>
		<g>
			<polygon fill="#FFF100" points="266.562,66.503 258.992,62.133 269.48,43.966 248.801,62.304 256.371,66.674 245.872,84.859 			
				"/>
		</g>
	</g>
</g>
</svg>
