<?xml version="1.0" encoding="utf-8"?>
<!-- Generator: Adobe Illustrator 16.0.0, SVG Export Plug-In . SVG Version: 6.00 Build 0)  -->
<!DOCTYPE svg PUBLIC "-//W3C//DTD SVG 1.1//EN" "http://www.w3.org/Graphics/SVG/1.1/DTD/svg11.dtd">
<svg version="1.1" id="Layer_1" xmlns="http://www.w3.org/2000/svg" xmlns:xlink="http://www.w3.org/1999/xlink" x="0px" y="0px"
	 width="600px" height="400px" viewBox="0 0 600 400" enable-background="new 0 0 600 400" xml:space="preserve">
<g>
	<g>
		<path fill="#00B3FF" d="M362,251c0,11.5976563-9.4023438,21-21,21H106c-11.5981445,0-21-9.4023438-21-21V129
			c0-11.5981445,9.4018555-21,21-21h235c11.5976563,0,21,9.4018555,21,21V251z"/>
	</g>
	<g>
		<path fill="#003A48" d="M362,247c0,11.5976563-9.4023438,21-21,21H106c-11.5981445,0-21-9.4023438-21-21V125
			c0-11.5981445,9.4018555-21,21-21h235c11.5976563,0,21,9.4018555,21,21V247z"/>
	</g>
	<g>
		<path fill="#00556E" d="M362,198c0,11.5976563-9.4023438,21-21,21H106c-11.5981445,0-21-9.4023438-21-21V76
			c0-11.5981445,9.4018555-21,21-21h235c11.5976563,0,21,9.4018555,21,21V198z"/>
	</g>
	<rect x="469" y="84" fill="#8D8D8D" width="38" height="43"/>
	<g>
		<path fill="none" stroke="#000000" stroke-width="16" stroke-linecap="round" stroke-miterlimit="10" d="M224,250v65.5
			c0,16.5,13.5,30.5,30,30.5h204.5c16.5,0,29.5-14,29.5-30.5V150"/>
	</g>
	<polygon points="504.4990234,195 472.5009766,195 462,159.4775391 462,97 514,97 514,159.4775391 	"/>
	<g>
		<path fill="#5B5B5B" d="M508,149c0,4.418457-3.5820313,8-8,8h-22c-4.4179688,0-8-3.581543-8-8v-36c0-4.418457,3.5820313-8,8-8h22
			c4.4179688,0,8,3.581543,8,8V149z"/>
	</g>
	<path d="M488.4189453,148.6025391c1.7089844,0.0097656,3.4648438-1.4384766,3.4277344-3.4853516
		C491.7929688,142.2402344,489,141.6435547,489,141.6435547v-7.6972656c0,0,0.1044922-0.3076172,0.2607422-0.7958984
		c0.1015625-0.3193359,0.2529297-0.3974609,0.2529297-0.3974609l4.9453125-4.7744141c0,0-0.0712891-0.0566406,0.2988281-0.6533203
		C495.1259766,126.7285156,495,125.8476563,495,125.8476563V123h1v-5h-3.1914063l0.0087891,5h1.4130859l0.0273438,3.1025391
		c0,0,0.0283203,0.1572266-0.2265625,0.4970703c-0.2558594,0.3417969-0.4492188,0.3632813-0.4492188,0.3632813L489,130.9912109V115
		h1.8769531l-2.359375-4.1679688L485.9892578,115H487v21.0771484c0,0,0.4775391,0.2070313,0.2861328,0.2705078
		c-0.1923828,0.0634766,0.0332031-0.0419922,0.0332031-0.0419922l-4.0810547-4.0224609c0,0-0.1669922-0.2353516-0.3369141-0.5498047
		c-0.1650391-0.3037109-0.1347656-0.6503906-0.1347656-0.6503906l-0.0087891-3.9208984c0,0,1.3925781-0.3623047,1.3867188-1.9501953
		c-0.015625-1.8808594-2.0263672-2.0732422-2.0263672-2.0732422s-2.1894531,0.0703125-2.1044922,2.0507813
		c0.0390625,1.4921875,1.2109375,1.8710938,1.4296875,1.9296875c0.0058594,0.0019531,0.0224609,4.1669922,0.0224609,4.1669922
		s0.0419922,0.3808594,0.3886719,1.0341797c0.3466797,0.6513672,0.9277344,1.1337891,0.9277344,1.1337891l4.3574219,4.1298828
		c0,0,0.2763672,0.2246094,0.4599609,0.6396484c0.1855469,0.4150391,0.2119141,0.7773438,0.2119141,0.7773438l0.0205078,2.609375
		c0,0-2.9091797,0.5878906-2.8554688,3.421875C484.9130859,148.4746094,488.4189453,148.6025391,488.4189453,148.6025391"/>
	<g>
		<path fill="#F37920" d="M226,151c0,7.7319336-6.2680664,14-14,14h-82c-7.7319336,0-14-6.2680664-14-14v-17
			c0-7.7319336,6.2680664-14,14-14h82c7.7319336,0,14,6.2680664,14,14V151z"/>
	</g>
	<g>
		<path fill="#FFF200" d="M226,133c0,7.7319336-6.2680664,14-14,14h-82c-7.7319336,0-14-6.2680664-14-14v-17
			c0-7.7319336,6.2680664-14,14-14h82c7.7319336,0,14,6.2680664,14,14V133z"/>
	</g>
	<g>
		<line fill="none" stroke="#FFFFFF" stroke-width="6" stroke-miterlimit="10" x1="290" y1="167" x2="290" y2="186"/>
		<line fill="none" stroke="#FFFFFF" stroke-width="6" stroke-miterlimit="10" x1="261" y1="167" x2="261" y2="186"/>
		<line fill="none" stroke="#FFFFFF" stroke-width="6" stroke-miterlimit="10" x1="320" y1="167" x2="320" y2="186"/>
		<path fill="#0099E7" d="M290,80.1503906c-20.8193359,0-38,16.8759766-38,37.6953125V167h76v-49.1542969
			C328,97.0263672,310.8193359,80.1503906,290,80.1503906z"/>
		<path fill="#E8E8E8" d="M321,121.7128906V96h-25.0097656c-1.6777344-1-3.3984375-0.4384766-5.1572266-0.4384766
			S287.3535156,95,285.6757813,96H260v25.7128906c0,1.3525391-0.1171875,2.7304688-0.1171875,4.1328125
			c0,17.0019531,13.8652344,30.7841797,30.8671875,30.7841797s30.6591797-13.7822266,30.6591797-30.7841797
			C321.4091797,124.4433594,321,123.0654297,321,121.7128906z"/>
		<g>
			<defs>
				<circle id="SVGID_1_" cx="290.8330078" cy="97.8457031" r="30.7841797"/>
			</defs>
			<use xlink:href="#SVGID_1_"  overflow="visible" fill="#FFFFFF"/>
			<clipPath id="SVGID_2_">
				<use xlink:href="#SVGID_1_"  overflow="visible"/>
			</clipPath>
			
				<line clip-path="url(#SVGID_2_)" fill="#FFFFFF" stroke="#000000" stroke-width="6" stroke-linecap="round" stroke-miterlimit="10" x1="312.0458984" y1="72.2871094" x2="290.8330078" y2="93.5"/>
		</g>
		<rect x="252" y="161" fill="#F0F0F0" width="76" height="6"/>
	</g>
</g>
<g>
</g>
<g>
</g>
<g>
</g>
<g>
</g>
<g>
</g>
<g>
</g>
</svg>
