<?xml version="1.0" encoding="utf-8"?>
<!-- Generator: Adobe Illustrator 16.0.0, SVG Export Plug-In . SVG Version: 6.00 Build 0)  -->
<!DOCTYPE svg PUBLIC "-//W3C//DTD SVG 1.1//EN" "http://www.w3.org/Graphics/SVG/1.1/DTD/svg11.dtd">
<svg version="1.1" id="Layer_1" xmlns="http://www.w3.org/2000/svg" xmlns:xlink="http://www.w3.org/1999/xlink" x="0px" y="0px"
	 width="70px" height="60px" viewBox="0 0 70 60" enable-background="new 0 0 70 60" xml:space="preserve">
<path fill-rule="evenodd" clip-rule="evenodd" fill="#FFFFFF" d="M36.5097656,11.152832
	c-10.9091797,0-19.7553711,8.8466797-19.7553711,19.7597656c0,8.7280273,5.6606445,16.1333008,13.512207,18.7456055
	c0.9873047,0.1816406,1.3491211-0.4287109,1.3491211-0.9511719c0-0.4697266-0.0180664-1.7128906-0.0268555-3.3613281
	c-5.496582,1.1923828-6.65625-2.6494141-6.65625-2.6494141c-0.8984375-2.2802734-2.1933594-2.8896484-2.1933594-2.8896484
	C20.9458008,38.5820313,22.875,38.6054688,22.875,38.6054688c1.9829102,0.140625,3.0258789,2.0380859,3.0258789,2.0380859
	c1.7631836,3.0166016,4.6245117,2.1455078,5.75,1.640625c0.1796875-1.2763672,0.6904297-2.1484375,1.2548828-2.640625
	c-4.3867188-0.5-8.9990234-2.1943359-8.9990234-9.7651367c0-2.1572266,0.7695313-3.9208984,2.0332031-5.3017578
	c-0.203125-0.5-0.8813477-2.5087891,0.1938477-5.2285156c0,0,1.6586914-0.5317383,5.4326172,2.0258789
	c1.5761719-0.4384766,3.2666016-0.6591797,4.9472656-0.6665039c1.6777344,0.0073242,3.3671875,0.2280273,4.9453125,0.6665039
	c3.7734375-2.5576172,5.4287109-2.0258789,5.4287109-2.0258789c1.078125,2.7197266,0.3994141,4.7285156,0.1962891,5.2285156
	c1.2646484,1.3808594,2.0302734,3.1445313,2.0302734,5.3017578c0,7.590332-4.6201172,9.2602539-9.0214844,9.7485352
	c0.7099609,0.6103516,1.3417969,1.8173828,1.3417969,3.6591797c0,2.6416016-0.0244141,4.7705078-0.0244141,5.4208984
	c0,0.5273438,0.3554688,1.140625,1.3583984,0.9501953c7.8457031-2.6191406,13.5-10.0185547,13.5-18.7446289
	C56.2685547,19.9995117,47.4228516,11.152832,36.5097656,11.152832z"/>
<g>
</g>
<g>
</g>
<g>
</g>
<g>
</g>
<g>
</g>
<g>
</g>
</svg>
