<?xml version="1.0" encoding="utf-8"?>
<!-- Generator: Adobe Illustrator 16.0.0, SVG Export Plug-In . SVG Version: 6.00 Build 0)  -->
<!DOCTYPE svg PUBLIC "-//W3C//DTD SVG 1.1//EN" "http://www.w3.org/Graphics/SVG/1.1/DTD/svg11.dtd">
<svg version="1.1" id="Layer_1" xmlns="http://www.w3.org/2000/svg" xmlns:xlink="http://www.w3.org/1999/xlink" x="0px" y="0px"
	 width="100px" height="100px" viewBox="0 0 100 100" enable-background="new 0 0 100 100" xml:space="preserve">
<g>
	<g>
		<path d="M25.0205078,65.2148438c-0.3662109,0-0.7382813-0.09375-1.078125-0.2910156L1.6875,52.0742188
			c-0.6689453-0.3847656-1.0810547-1.0991211-1.0810547-1.8710938s0.4121094-1.4853516,1.0800781-1.871582L23.9418945,35.480957
			c1.0356445-0.5966797,2.3549805-0.2416992,2.9521484,0.7905273c0.597168,1.0341797,0.2431641,2.3549805-0.7905273,2.9521484
			L7.0893555,50.203125l19.0136719,10.9785156c1.0341797,0.5957031,1.3881836,1.9179688,0.7910156,2.9521484
			C26.4936523,64.8261719,25.7670898,65.2148438,25.0205078,65.2148438z"/>
	</g>
	<g>
		<path d="M74.8076172,65.2148438c-0.7460938,0-1.4736328-0.3886719-1.8730469-1.0810547
			c-0.5966797-1.0341797-0.2421875-2.3564453,0.7910156-2.9521484L92.7421875,50.203125L73.7255859,39.2236328
			c-1.0332031-0.5961914-1.3876953-1.9179688-0.7910156-2.9516602c0.5976563-1.034668,1.9169922-1.3857422,2.953125-0.7910156
			L98.1455078,48.331543c0.6679688,0.3862305,1.0791016,1.0996094,1.0791016,1.871582s-0.4111328,1.4863281-1.0791016,1.8710938
			L75.8876953,64.9238281C75.5458984,65.1210938,75.1748047,65.2148438,74.8076172,65.2148438z"/>
	</g>
	<g>
		<g>
			<polygon points="67.8701172,53.5507813 52.9550781,44.9384766 72.7109375,10.7167969 31.9594727,46.8554688 
				46.8754883,55.4677734 27.1181641,89.6894531 			"/>
		</g>
		<g>
			<polygon points="64.6640625,53.6914063 52.0917969,46.4316406 69.5136719,16.2573242 35.1650391,46.715332 
				47.7373047,53.9746094 30.2983398,84.1796875 			"/>
		</g>
	</g>
</g>
<g>
</g>
<g>
</g>
<g>
</g>
<g>
</g>
<g>
</g>
<g>
</g>
</svg>
