<?xml version="1.0" encoding="utf-8"?>
<!-- Generator: Adobe Illustrator 16.0.0, SVG Export Plug-In . SVG Version: 6.00 Build 0)  -->
<!DOCTYPE svg PUBLIC "-//W3C//DTD SVG 1.1//EN" "http://www.w3.org/Graphics/SVG/1.1/DTD/svg11.dtd">
<svg version="1.1" id="Layer_1" xmlns="http://www.w3.org/2000/svg" xmlns:xlink="http://www.w3.org/1999/xlink" x="0px" y="0px"
	 width="100px" height="100px" viewBox="0 0 100 100" enable-background="new 0 0 100 100" xml:space="preserve">
<path fill-rule="evenodd" clip-rule="evenodd" d="M49.9980469,4.9287109c-25.5180664,0-46.2080078,20.6943359-46.2080078,46.2148438
	c0,20.4179688,13.2392578,37.7373047,31.6054688,43.8486328c2.3100586,0.421875,3.1523438-1.0029297,3.1523438-2.2265625
	c0-1.0976563-0.0385742-4.0058594-0.0610352-7.8623047c-12.8540039,2.7919922-15.5693359-6.1943359-15.5693359-6.1943359
	c-2.0996094-5.3359375-5.1289063-6.7597656-5.1289063-6.7597656c-4.1958008-2.8642578,0.3168945-2.8095703,0.3168945-2.8095703
	c4.6376953,0.3271484,7.078125,4.765625,7.078125,4.765625c4.1225586,7.0585938,10.8154297,5.0195313,13.4472656,3.8388672
	c0.4213867-2.9863281,1.6152344-5.0253906,2.9365234-6.1777344c-10.2612305-1.1689453-21.0488281-5.1298828-21.0488281-22.8383789
	c0-5.0478516,1.8007813-9.1704102,4.7539063-12.4003906c-0.4736328-1.1689453-2.0610352-5.8676758,0.4545898-12.2280273
	c0,0,3.878418-1.2470703,12.7075195,4.7368164c3.6870117-1.0249023,7.6376953-1.5400391,11.5683594-1.5566406
	c3.9257813,0.0166016,7.8759766,0.5317383,11.5693359,1.5566406c8.8232422-5.9838867,12.6962891-4.7368164,12.6962891-4.7368164
	c2.5205078,6.3603516,0.9335938,11.059082,0.4599609,12.2280273c2.9589844,3.2299805,4.7480469,7.3525391,4.7480469,12.4003906
	c0,17.7524414-10.8037109,21.6586914-21.0986328,22.800293c1.6591797,1.4287109,3.1357422,4.2490234,3.1357422,8.5595703
	c0,6.1777344-0.0546875,11.1591797-0.0546875,12.6777344c0,1.2353516,0.8310547,2.6699219,3.1767578,2.2216797
	c18.3486328-6.1230469,31.5742188-23.4316406,31.5742188-43.84375C96.2099609,25.6230469,75.5205078,4.9287109,49.9980469,4.9287109
	z"/>
<g>
</g>
<g>
</g>
<g>
</g>
<g>
</g>
<g>
</g>
<g>
</g>
</svg>
