<?xml version="1.0" encoding="utf-8"?>
<!-- Generator: Adobe Illustrator 16.0.0, SVG Export Plug-In . SVG Version: 6.00 Build 0)  -->
<!DOCTYPE svg PUBLIC "-//W3C//DTD SVG 1.1//EN" "http://www.w3.org/Graphics/SVG/1.1/DTD/svg11.dtd">
<svg version="1.1" id="Layer_1" xmlns="http://www.w3.org/2000/svg" xmlns:xlink="http://www.w3.org/1999/xlink" x="0px" y="0px"
	 width="100px" height="100px" viewBox="0 0 100 100" enable-background="new 0 0 100 100" xml:space="preserve">
<g>
	<path d="M95.1933594,22.5615234c0,2.65625-0.8242188,5.1948242-2.4716797,7.6157227
		c-1.6474609,2.421875-3.7001953,4.4897461-6.1533203,6.2045898c-12.6435547,8.7763672-20.5146484,14.2412109-23.6074219,16.3916016
		c-0.3349609,0.2363281-1.0517578,0.75-2.1445313,1.5371094c-1.0917969,0.7910156-2,1.4316406-2.7207031,1.9179688
		c-0.7246094,0.4882813-1.5966797,1.0351563-2.6230469,1.6386719c-1.0253906,0.6054688-1.9931641,1.0605469-2.9013672,1.3613281
		c-0.9082031,0.3027344-1.7470703,0.4570313-2.5234375,0.4570313H50h-0.0517578
		c-0.7724609,0-1.6142578-0.1542969-2.5224609-0.4570313c-0.9091797-0.3007813-1.8720703-0.7558594-2.8984375-1.3613281
		c-1.0263672-0.6035156-1.9013672-1.1503906-2.6220703-1.6386719c-0.7246094-0.4863281-1.6328125-1.1269531-2.7255859-1.9179688
		c-1.0917969-0.7871094-1.8095703-1.3007813-2.1445313-1.5371094c-3.0595703-2.1503906-7.4658203-5.2197266-13.2138672-9.2041016
		c-5.75-3.9848633-9.1972656-6.3803711-10.3398438-7.1875c-2.0859375-1.4121094-4.0517578-3.3540039-5.9013672-5.8256836
		c-1.8496094-2.4711914-2.7734375-4.7661133-2.7734375-6.8847656c0-2.6230469,0.6972656-4.8085938,2.0927734-6.5576172
		c1.3955078-1.7475586,3.3876953-2.6220703,5.9765625-2.6220703h74.2441406c2.1884766,0,4.0791016,0.7905273,5.6748047,2.3701172
		C94.3916016,18.4433594,95.1933594,20.3422852,95.1933594,22.5615234z M95.1933594,37.390625V77.4375
		c0,2.21875-0.7910156,4.1191406-2.3720703,5.7011719c-1.5820313,1.578125-3.4794922,2.3691406-5.7011719,2.3691406H12.8759766
		c-2.2197266,0-4.1191406-0.7910156-5.6992188-2.3691406C5.5957031,81.5566406,4.8066406,79.65625,4.8066406,77.4375V37.390625
		c1.4785156,1.6474609,3.1767578,3.1103516,5.09375,4.3881836c12.171875,8.2709961,20.5302734,14.0727539,25.0683594,17.4008789
		c1.9160156,1.4121094,3.4716797,2.5136719,4.6630859,3.3046875c1.1953125,0.7890625,2.7841797,1.5957031,4.7666016,2.4199219
		c1.9863281,0.8222656,3.8359375,1.234375,5.5498047,1.234375H50h0.0478516c1.7177734,0,3.5644531-0.4121094,5.5498047-1.234375
		c1.9824219-0.8242188,3.5712891-1.6308594,4.7666016-2.4199219c1.1914063-0.7910156,2.7470703-1.8925781,4.6669922-3.3046875
		c5.7158203-4.1367188,14.0859375-9.9355469,25.1162109-17.4008789
		C92.0634766,40.4667969,93.7480469,39.0039063,95.1933594,37.390625z"/>
</g>
<g>
</g>
<g>
</g>
<g>
</g>
<g>
</g>
<g>
</g>
<g>
</g>
</svg>
