<?xml version="1.0" encoding="utf-8"?>
<!-- Generator: Adobe Illustrator 16.0.0, SVG Export Plug-In . SVG Version: 6.00 Build 0)  -->
<!DOCTYPE svg PUBLIC "-//W3C//DTD SVG 1.1//EN" "http://www.w3.org/Graphics/SVG/1.1/DTD/svg11.dtd">
<svg version="1.1" id="Layer_1" xmlns="http://www.w3.org/2000/svg" xmlns:xlink="http://www.w3.org/1999/xlink" x="0px" y="0px"
	 width="200px" height="60px" viewBox="0 0 200 60" enable-background="new 0 0 200 60" xml:space="preserve">
<g>
	
		<polyline fill="none" stroke="#FFFFFF" stroke-width="2.9986" stroke-linecap="round" stroke-linejoin="round" stroke-miterlimit="10" points="
		17.441,38.916 2,30 17.441,21.085 	"/>
	
		<polyline fill="none" stroke="#FFFFFF" stroke-width="2.9986" stroke-linecap="round" stroke-linejoin="round" stroke-miterlimit="10" points="
		158.336,38.916 173.777,30 158.336,21.085 	"/>
	<g>
		<polygon fill="#F37920" points="47.168,32.322 36.819,26.348 50.526,2.606 22.253,27.678 32.602,33.652 18.894,57.395 		"/>
		<polygon fill="#FFF100" points="44.943,32.42 36.221,27.383 48.308,6.449 24.477,27.581 33.2,32.617 21.101,53.572 		"/>
	</g>
	<g>
		<path fill="#FFFFFF" d="M55.594,19.924v-3.092h10.595v3.092l-2.741,0.527v18.36l2.741,0.527v3.075H55.594v-3.075l2.741-0.527
			v-18.36L55.594,19.924z"/>
		<path fill="#FFFFFF" d="M67.97,39.339l2.46-0.527V27.022l-2.724-0.527v-3.092h7.502l0.229,2.723
			c0.633-0.972,1.412-1.728,2.337-2.266c0.925-0.539,1.962-0.809,3.11-0.809c1.921,0,3.42,0.604,4.498,1.81
			c1.078,1.207,1.616,3.098,1.616,5.675v8.275l2.459,0.527v3.075h-9.804v-3.075l2.196-0.527v-8.258c0-1.276-0.258-2.181-0.773-2.714
			c-0.516-0.533-1.294-0.8-2.337-0.8c-0.679,0-1.289,0.138-1.827,0.413c-0.539,0.275-0.99,0.665-1.353,1.168v10.19l2.073,0.527
			v3.075H67.97V39.339z"/>
		<path fill="#FFFFFF" d="M97.969,26.495l-1.792,0.334l2.513,8.504l0.334,1.792h0.105l0.369-1.792l2.477-8.486l-1.828-0.352v-3.092
			h8.627v3.092l-1.652,0.264l-5.604,15.655h-4.902l-5.622-15.655l-1.652-0.264v-3.092h8.627V26.495z"/>
		<path fill="#FFFFFF" d="M109.686,32.732c0-2.834,0.793-5.157,2.381-6.966c1.586-1.81,3.779-2.715,6.58-2.715
			c2.811,0,5.01,0.902,6.598,2.706c1.586,1.804,2.381,4.129,2.381,6.975v0.369c0,2.858-0.795,5.187-2.381,6.984
			c-1.588,1.798-3.775,2.697-6.563,2.697c-2.824,0-5.029-0.899-6.615-2.697c-1.588-1.798-2.381-4.126-2.381-6.984V32.732z
			 M114.816,33.102c0,1.733,0.305,3.125,0.912,4.173c0.609,1.049,1.594,1.572,2.953,1.572c1.322,0,2.293-0.526,2.908-1.581
			c0.613-1.054,0.922-2.442,0.922-4.164v-0.369c0-1.687-0.311-3.063-0.932-4.129s-1.6-1.599-2.934-1.599
			c-1.336,0-2.309,0.533-2.918,1.599c-0.607,1.066-0.912,2.442-0.912,4.129V33.102z"/>
		<path fill="#FFFFFF" d="M128.465,18.097v-3.092h7.871v23.807l2.479,0.527v3.075h-10.086v-3.075l2.479-0.527V18.624L128.465,18.097
			z"/>
		<path fill="#FFFFFF" d="M147.01,18.747v4.656h3.338v3.602h-3.338v9.681c0,0.738,0.15,1.266,0.455,1.582s0.715,0.474,1.23,0.474
			c0.352,0,0.66-0.014,0.922-0.043c0.264-0.029,0.561-0.079,0.889-0.149l0.439,3.707c-0.574,0.176-1.143,0.308-1.705,0.396
			s-1.172,0.132-1.828,0.132c-1.768,0-3.129-0.486-4.084-1.459c-0.955-0.972-1.432-2.513-1.432-4.621v-9.698h-2.795v-3.602h2.795
			v-4.656H147.01z"/>
	</g>
</g>
</svg>
