<?xml version="1.0" encoding="utf-8"?>
<!-- Generator: Adobe Illustrator 16.0.0, SVG Export Plug-In . SVG Version: 6.00 Build 0)  -->
<!DOCTYPE svg PUBLIC "-//W3C//DTD SVG 1.1//EN" "http://www.w3.org/Graphics/SVG/1.1/DTD/svg11.dtd">
<svg version="1.1" id="Layer_1" xmlns="http://www.w3.org/2000/svg" xmlns:xlink="http://www.w3.org/1999/xlink" x="0px" y="0px"
	 width="200px" height="60px" viewBox="0 0 200 60" enable-background="new 0 0 200 60" xml:space="preserve">
<g>
	
		<polyline fill="none" stroke="#FFFFFF" stroke-width="2.99862" stroke-linecap="round" stroke-linejoin="round" stroke-miterlimit="10" points="
		29.5517578,38.9160156 14.1108398,29.9995117 29.5517578,21.0849609 	"/>
	
		<polyline fill="none" stroke="#FFFFFF" stroke-width="2.99862" stroke-linecap="round" stroke-linejoin="round" stroke-miterlimit="10" points="
		170.4472656,38.9160156 185.8886719,29.9995117 170.4472656,21.0849609 	"/>
	<g>
		<polygon fill="#F37920" points="59.2788086,32.3222656 48.9301758,26.3476563 62.637207,2.605957 34.3642578,27.6777344 
			44.7128906,33.6523438 31.0048828,57.3945313 		"/>
		<polygon fill="#FFF100" points="57.0541992,32.4199219 48.331543,27.3833008 60.418457,6.4492188 36.5874023,27.5805664 
			45.3105469,32.6171875 33.2119141,53.5722656 		"/>
	</g>
	<g>
		<path fill="#FFFFFF" d="M67.7045898,19.9238281V16.831543h10.5947266v3.0922852l-2.7407227,0.5273438v18.3603516
			l2.7407227,0.5273438v3.0751953H67.7045898v-3.0751953l2.7412109-0.5273438V20.4511719L67.7045898,19.9238281z"/>
		<path fill="#FFFFFF" d="M80.0805664,39.3388672l2.4599609-0.5273438V27.0224609l-2.7236328-0.5273438V23.402832h7.5024414
			l0.2285156,2.7231445c0.6328125-0.972168,1.4116211-1.7275391,2.3369141-2.2661133
			c0.925293-0.5390625,1.9619141-0.8085938,3.1098633-0.8085938c1.9208984,0,3.4199219,0.6035156,4.4980469,1.8100586
			c1.0776367,1.206543,1.6162109,3.0981445,1.6162109,5.6748047v8.2753906l2.4594727,0.5273438v3.0751953h-9.8037109v-3.0751953
			l2.1962891-0.5273438v-8.2578125c0-1.2763672-0.2578125-2.1811523-0.7729492-2.7143555
			c-0.515625-0.5332031-1.2944336-0.7998047-2.3369141-0.7998047c-0.6791992,0-1.2885742,0.1381836-1.8271484,0.4130859
			c-0.5390625,0.2753906-0.9902344,0.6650391-1.3530273,1.168457v10.1904297l2.0732422,0.5273438v3.0751953h-9.6635742V39.3388672z"
			/>
		<path fill="#FFFFFF" d="M110.0800781,26.4951172l-1.7919922,0.3339844l2.5126953,8.5039063L111.1347656,37.125h0.1054688
			l0.3691406-1.7919922l2.4765625-8.4863281l-1.8271484-0.3515625V23.402832h8.6269531v3.0922852l-1.6513672,0.2636719
			l-5.6054688,15.6552734h-4.9013672l-5.6220703-15.6552734l-1.6523438-0.2636719V23.402832h8.6269531V26.4951172z"/>
		<path fill="#FFFFFF" d="M121.796875,32.7324219c0-2.8344727,0.7929688-5.1567383,2.3808594-6.9663086
			c1.5859375-1.8100586,3.7792969-2.7148438,6.5800781-2.7148438c2.8105469,0,5.0097656,0.9023438,6.5966797,2.7060547
			s2.3808594,4.1289063,2.3808594,6.9750977v0.3691406c0,2.8583984-0.7939453,5.1865234-2.3808594,6.984375
			s-3.7744141,2.6972656-6.5625,2.6972656c-2.8232422,0-5.0283203-0.8994141-6.6142578-2.6972656
			c-1.5878906-1.7978516-2.3808594-4.1259766-2.3808594-6.984375V32.7324219z M126.9267578,33.1015625
			c0,1.7333984,0.3046875,3.125,0.9130859,4.1728516c0.609375,1.0488281,1.59375,1.5722656,2.9521484,1.5722656
			c1.3232422,0,2.2929688-0.5263672,2.9082031-1.5810547c0.6142578-1.0537109,0.9228516-2.4423828,0.9228516-4.1640625v-0.3691406
			c0-1.6865234-0.3105469-3.0629883-0.9316406-4.1289063s-1.5996094-1.5986328-2.9335938-1.5986328
			c-1.3359375,0-2.3085938,0.5327148-2.9179688,1.5986328c-0.6083984,1.065918-0.9130859,2.4423828-0.9130859,4.1289063V33.1015625z
			"/>
		<path fill="#FFFFFF" d="M140.5761719,18.0966797v-3.0922852h7.8710938v23.8071289l2.4785156,0.5273438v3.0751953h-10.0859375
			v-3.0751953l2.4775391-0.5273438V18.6235352L140.5761719,18.0966797z"/>
		<path fill="#FFFFFF" d="M159.1201172,18.746582v4.65625h3.3388672v3.6020508h-3.3388672v9.6806641
			c0,0.7382813,0.1513672,1.265625,0.4560547,1.5820313s0.7148438,0.4736328,1.2304688,0.4736328
			c0.3515625,0,0.6591797-0.0136719,0.921875-0.0429688c0.2636719-0.0292969,0.5605469-0.0791016,0.8886719-0.1494141
			l0.4384766,3.7070313c-0.5742188,0.1757813-1.1416016,0.3076172-1.7041016,0.3955078s-1.171875,0.1318359-1.828125,0.1318359
			c-1.7675781,0-3.1298828-0.4863281-4.0839844-1.4589844c-0.9550781-0.9716797-1.4316406-2.5126953-1.4316406-4.6210938v-9.6982422
			h-2.7949219V23.402832h2.7949219v-4.65625H159.1201172z"/>
	</g>
</g>
<g>
</g>
<g>
</g>
<g>
</g>
<g>
</g>
<g>
</g>
<g>
</g>
</svg>
