<?xml version="1.0" encoding="utf-8"?>
<!-- Generator: Adobe Illustrator 16.0.0, SVG Export Plug-In . SVG Version: 6.00 Build 0)  -->
<!DOCTYPE svg PUBLIC "-//W3C//DTD SVG 1.1//EN" "http://www.w3.org/Graphics/SVG/1.1/DTD/svg11.dtd">
<svg version="1.1" id="Layer_1" xmlns="http://www.w3.org/2000/svg" xmlns:xlink="http://www.w3.org/1999/xlink" x="0px" y="0px"
	 width="292px" height="100px" viewBox="0 0 292 100" enable-background="new 0 0 292 100" xml:space="preserve">
<g>
	<g>
		<g>
			<path fill="#00546D" d="M0,33.876c0-5.025,3.561-11.192,7.912-13.704L35.839,4.048c4.352-2.512,11.473-2.512,15.824,0
				L79.84,20.172c4.351,2.513,8.16,8.68,8.16,13.704v32.248c0,5.024-3.809,11.19-8.16,13.704L51.787,95.951
				c-4.352,2.513-11.535,2.513-15.886,0L7.943,79.828C3.592,77.314,0,71.148,0,66.124V33.876z"/>
		</g>
		
			<polyline fill="none" stroke="#FFFFFF" stroke-width="3.0869" stroke-linecap="round" stroke-linejoin="round" stroke-miterlimit="10" points="
			25.975,59.178 10.08,49.999 25.975,40.822 		"/>
		
			<polyline fill="none" stroke="#FFFFFF" stroke-width="3.0869" stroke-linecap="round" stroke-linejoin="round" stroke-miterlimit="10" points="
			61.531,59.178 77.428,49.999 61.531,40.822 		"/>
		<g>
			<polygon fill="#F37920" points="56.577,52.391 45.925,46.24 60.035,21.8 30.929,47.609 41.583,53.76 27.471,78.201 			"/>
			<polygon fill="#FFF100" points="54.288,52.49 45.307,47.306 57.751,25.756 33.218,47.51 42.197,52.693 29.743,74.268 			"/>
		</g>
	</g>
	<g>
		<path d="M111.976,27.46h10.072v44.673h-10.072V27.46z"/>
		<path d="M130.378,38.149h8.222l0.685,4.317h0.274c1.461-1.371,3.06-2.57,4.796-3.598c1.735-1.028,3.769-1.542,6.098-1.542
			c3.7,0,6.384,1.211,8.052,3.632c1.667,2.421,2.5,5.779,2.5,10.072v21.104h-10.072V52.332c0-2.465-0.33-4.155-0.992-5.069
			c-0.664-0.913-1.725-1.371-3.187-1.371c-1.28,0-2.376,0.286-3.29,0.857c-0.915,0.571-1.918,1.382-3.015,2.433v22.953h-10.072
			L130.378,38.149L130.378,38.149z"/>
		<path d="M163.597,38.149h10.141l4.386,16.033c0.456,1.69,0.901,3.414,1.336,5.174c0.435,1.759,0.879,3.527,1.337,5.31h0.273
			c0.41-1.78,0.832-3.551,1.268-5.31c0.434-1.76,0.879-3.482,1.336-5.174l4.454-16.033h9.66l-11.101,33.984H175.04L163.597,38.149z"
			/>
		<path d="M198.737,55.142c0-2.832,0.457-5.354,1.371-7.571c0.914-2.215,2.135-4.077,3.666-5.584c1.529-1.507,3.3-2.661,5.31-3.46
			c2.011-0.799,4.088-1.199,6.235-1.199c2.146,0,4.214,0.4,6.201,1.199c1.986,0.799,3.744,1.953,5.274,3.46
			c1.53,1.507,2.752,3.369,3.667,5.584c0.912,2.216,1.369,4.739,1.369,7.571c0,2.834-0.457,5.355-1.369,7.571
			c-0.915,2.216-2.137,4.076-3.667,5.583c-1.53,1.508-3.288,2.662-5.274,3.461c-1.987,0.799-4.056,1.199-6.201,1.199
			c-2.147,0-4.226-0.4-6.235-1.199s-3.779-1.953-5.31-3.461c-1.531-1.507-2.752-3.367-3.666-5.583S198.737,57.976,198.737,55.142z
			 M209.084,55.142c0,2.971,0.515,5.321,1.542,7.059c1.027,1.734,2.592,2.604,4.693,2.604c2.056,0,3.607-0.867,4.658-2.604
			s1.576-4.088,1.576-7.059c0-2.969-0.525-5.32-1.576-7.057c-1.051-1.735-2.604-2.604-4.658-2.604c-2.103,0-3.666,0.868-4.693,2.604
			C209.599,49.82,209.084,52.173,209.084,55.142z"/>
		<path d="M237.438,24.104h10.07v37.892c0,1.051,0.193,1.779,0.582,2.191c0.389,0.41,0.788,0.615,1.2,0.615c0.228,0,0.421,0,0.581,0
			s0.378-0.043,0.652-0.137l1.231,7.469c-0.548,0.229-1.245,0.422-2.09,0.582c-0.847,0.16-1.839,0.24-2.979,0.24
			c-1.736,0-3.197-0.273-4.387-0.822c-1.188-0.549-2.135-1.313-2.843-2.296c-0.709-0.981-1.224-2.169-1.541-3.562
			c-0.321-1.395-0.479-2.957-0.479-4.694V24.104H237.438z"/>
		<path d="M257.267,46.028h-4.66v-7.468l5.207-0.411l1.166-9.044h8.358v9.044h8.153v7.879h-8.153v13.636
			c0,1.918,0.399,3.3,1.198,4.146c0.8,0.846,1.861,1.268,3.188,1.268c0.549,0,1.106-0.066,1.678-0.205
			c0.57-0.137,1.086-0.297,1.543-0.479l1.576,7.33c-0.916,0.274-1.988,0.549-3.223,0.822c-1.232,0.273-2.672,0.411-4.314,0.411
			c-2.104,0-3.896-0.319-5.379-0.959c-1.485-0.64-2.697-1.528-3.633-2.673c-0.937-1.143-1.621-2.523-2.055-4.145
			c-0.436-1.621-0.65-3.416-0.65-5.379V46.028z"/>
	</g>
</g>
</svg>
