<?xml version="1.0" encoding="utf-8"?>
<!-- Generator: Adobe Illustrator 16.0.0, SVG Export Plug-In . SVG Version: 6.00 Build 0)  -->
<!DOCTYPE svg PUBLIC "-//W3C//DTD SVG 1.1//EN" "http://www.w3.org/Graphics/SVG/1.1/DTD/svg11.dtd">
<svg version="1.1" id="Layer_1" xmlns="http://www.w3.org/2000/svg" xmlns:xlink="http://www.w3.org/1999/xlink" x="0px" y="0px"
	 width="292px" height="100px" viewBox="0 0 292 100" enable-background="new 0 0 292 100" xml:space="preserve">
<g>
	<g>
		<g>
			<path fill="#00546D" d="M0,33.8764648c0-5.0249023,3.5605469-11.1918945,7.9121094-13.7041016L35.8388672,4.0483398
				c4.3515625-2.512207,11.4726563-2.512207,15.8242188,0l28.1767578,16.1240234C84.1914063,22.6845703,88,28.8515625,88,33.8764648
				v32.2475586c0,5.0244141-3.8085938,11.1914063-8.1601563,13.7041016L51.7871094,95.9511719
				c-4.3515625,2.5126953-11.534668,2.5126953-15.8862305,0L7.9433594,79.828125C3.5917969,77.3154297,0,71.1484375,0,66.1240234
				V33.8764648z"/>
		</g>
		
			<polyline fill="none" stroke="#FFFFFF" stroke-width="3.0868874" stroke-linecap="round" stroke-linejoin="round" stroke-miterlimit="10" points="
			25.9750977,59.1767578 10.0800781,49.9990234 25.9750977,40.8222656 		"/>
		
			<polyline fill="none" stroke="#FFFFFF" stroke-width="3.0868874" stroke-linecap="round" stroke-linejoin="round" stroke-miterlimit="10" points="
			61.5307617,59.1767578 77.4277344,49.9990234 61.5307617,40.8222656 		"/>
		<g>
			<polygon fill="#F37920" points="56.5766602,52.390625 45.9248047,46.2402344 60.034668,21.7998047 30.9291992,47.609375 
				41.5830078,53.7597656 27.4711914,78.2011719 			"/>
			<polygon fill="#FFF100" points="54.2875977,52.4902344 45.3066406,47.3056641 57.7509766,25.7558594 33.2182617,47.5097656 
				42.1972656,52.6933594 29.7426758,74.2666016 			"/>
		</g>
	</g>
	<g>
		<path fill="#231F20" d="M107.4458008,33.9462891v-5.5439453h18.9941406v5.5439453l-4.9135742,0.9448242v32.9174805
			l4.9135742,0.9443359v5.5126953h-18.9941406v-5.5126953l4.9140625-0.9443359V34.8911133L107.4458008,33.9462891z"/>
		<path fill="#231F20" d="M129.1689453,68.7529297l4.4101563-0.9443359V46.671875l-4.8828125-0.9448242v-5.5439453h13.4506836
			l0.4091797,4.8823242c1.1342773-1.7426758,2.5302734-3.097168,4.1894531-4.0634766
			c1.6586914-0.965332,3.5170898-1.4487305,5.5756836-1.4487305c3.4433594,0,6.1318359,1.081543,8.0634766,3.2446289
			s2.8984375,5.5546875,2.8984375,10.1738281v14.8369141l4.4091797,0.9443359v5.5126953h-17.5761719v-5.5126953l3.9375-0.9443359
			V53.0039063c0-2.2890625-0.4619141-3.9111328-1.3857422-4.8671875c-0.9248047-0.9550781-2.3212891-1.4331055-4.1894531-1.4331055
			c-1.21875,0-2.3105469,0.2470703-3.2763672,0.7402344c-0.9663086,0.4936523-1.7749023,1.1918945-2.425293,2.0947266v18.2700195
			l3.7167969,0.9443359v5.5126953h-17.324707V68.7529297z"/>
		<path fill="#231F20" d="M182.390625,45.7270508l-3.2128906,0.5986328l4.5048828,15.2456055l0.5986328,3.2128906h0.1884766
			l0.6621094-3.2128906l4.4414063-15.2143555l-3.2763672-0.6298828v-5.5439453h15.4667969v5.5439453l-2.9619141,0.4726563
			l-10.0478516,28.065918h-8.7880859l-10.0800781-28.065918l-2.9609375-0.4726563v-5.5439453h15.4658203V45.7270508z"/>
		<path fill="#231F20" d="M202.8798828,56.9091797c0-5.0810547,1.4228516-9.2451172,4.2685547-12.4892578
			c2.8447266-3.2446289,6.7773438-4.8666992,11.7958984-4.8666992c5.0400391,0,8.9824219,1.6171875,11.828125,4.8510742
			s4.2685547,7.4023438,4.2685547,12.5048828v0.6621094c0,5.1240234-1.4228516,9.2978516-4.2685547,12.5205078
			c-2.8457031,3.2236328-6.7675781,4.8349609-11.7646484,4.8349609c-5.0615234,0-9.0146484-1.6113281-11.859375-4.8349609
			c-2.8457031-3.2226563-4.2685547-7.3964844-4.2685547-12.5205078V56.9091797z M212.078125,57.5712891
			c0,3.1074219,0.5458984,5.6015625,1.6376953,7.4804688c1.0917969,1.8798828,2.8554688,2.8193359,5.2919922,2.8193359
			c2.3730469,0,4.1103516-0.9453125,5.2128906-2.8349609S225.875,60.6582031,225.875,57.5712891v-0.6621094
			c0-3.0234375-0.5566406-5.4912109-1.6699219-7.4023438c-1.1132813-1.9106445-2.8662109-2.8662109-5.2607422-2.8662109
			c-2.3935547,0-4.1367188,0.9555664-5.2285156,2.8662109c-1.0917969,1.9111328-1.6376953,4.3789063-1.6376953,7.4023438V57.5712891
			z"/>
		<path fill="#231F20" d="M236.0126953,30.6704102v-5.5439453H250.125v42.6821289l4.4414063,0.9443359v5.5126953h-18.0810547
			v-5.5126953l4.4414063-0.9443359V31.6152344L236.0126953,30.6704102z"/>
		<path fill="#231F20" d="M268.7158203,31.8359375v8.347168h5.9853516v6.4575195h-5.9853516v17.3564453
			c0,1.3222656,0.2724609,2.2675781,0.8193359,2.8349609c0.5458984,0.5664063,1.2802734,0.8505859,2.2050781,0.8505859
			c0.6298828,0,1.1806641-0.0263672,1.6533203-0.0791016c0.4726563-0.0517578,1.0029297-0.1416016,1.5908203-0.2675781
			l0.7871094,6.6464844c-1.0283203,0.3144531-2.046875,0.5507813-3.0546875,0.7080078
			c-1.0087891,0.1582031-2.1005859,0.2363281-3.2763672,0.2363281c-3.1708984,0-5.6123047-0.8710938-7.3232422-2.6142578
			c-1.7119141-1.7421875-2.5673828-4.5039063-2.5673828-8.2841797V46.640625h-5.0087891v-6.4575195h5.0087891v-8.347168H268.7158203
			z"/>
	</g>
</g>
<g>
</g>
<g>
</g>
<g>
</g>
<g>
</g>
<g>
</g>
<g>
</g>
</svg>
