<?xml version="1.0" encoding="utf-8"?>
<!-- Generator: Adobe Illustrator 16.0.0, SVG Export Plug-In . SVG Version: 6.00 Build 0)  -->
<!DOCTYPE svg PUBLIC "-//W3C//DTD SVG 1.1//EN" "http://www.w3.org/Graphics/SVG/1.1/DTD/svg11.dtd">
<svg version="1.1" id="Layer_1" xmlns="http://www.w3.org/2000/svg" xmlns:xlink="http://www.w3.org/1999/xlink" x="0px" y="0px"
	 width="700px" height="300px" viewBox="0 0 700 300" enable-background="new 0 0 700 300" xml:space="preserve">
<g>
	<path fill="#B2B2B2" d="M237.7954102,261.4912109C239.8330078,262.3212891,239.7001953,263,237.5,263h-84
		c-2.2001953,0-2.3637695-0.75-0.3637695-1.6669922l16.7275391-7.6660156C171.8637695,252.75,175.2998047,252,177.5,252h33
		c2.2001953,0,5.6669922,0.6787109,7.7045898,1.5087891L237.7954102,261.4912109z"/>
</g>
<polygon fill="#DFDFDF" points="224.1386719,256 165.1386719,256 184.3544922,191 204.9238281,191 "/>
<g>
	<defs>
		<path id="SVGID_1_" d="M333,217c0,3.3134766-2.6865234,6-6,6H61c-3.3134766,0-6-2.6865234-6-6V32c0-3.3134766,2.6865234-6,6-6h266
			c3.3134766,0,6,2.6865234,6,6V217z"/>
	</defs>
	<use xlink:href="#SVGID_1_"  overflow="visible" fill="#363636"/>
	<clipPath id="SVGID_2_">
		<use xlink:href="#SVGID_1_"  overflow="visible"/>
	</clipPath>
	<rect x="45" y="191" clip-path="url(#SVGID_2_)" fill="#F2F2F2" width="311" height="60"/>
</g>
<rect x="72" y="41" fill="#00546D" width="245" height="137"/>
<circle fill="#B2B2B2" cx="194.8339844" cy="35" r="1.75"/>
<circle fill="#B2B2B2" cx="194.6386719" cy="207.2441406" r="7"/>
<g>
	
		<polyline fill="none" stroke="#FFFFFF" stroke-width="5.49684" stroke-linecap="round" stroke-linejoin="round" stroke-miterlimit="10" points="
		163.7558594,126.5449219 135.453125,110.203125 163.7558594,93.859375 	"/>
	
		<polyline fill="none" stroke="#FFFFFF" stroke-width="5.49684" stroke-linecap="round" stroke-linejoin="round" stroke-miterlimit="10" points="
		227.0712891,126.5449219 255.3789063,110.203125 227.0712891,93.859375 	"/>
	<g>
		<polygon fill="#F37920" points="218.25,114.4609375 199.28125,103.5078125 224.40625,59.984375 172.5791016,105.9453125 
			191.5488281,116.8984375 166.421875,160.421875 		"/>
		<polygon fill="#FFF100" points="214.1738281,114.6391602 198.1835938,105.4067383 220.3398438,67.03125 176.6552734,105.7670898 
			192.6445313,114.9995117 170.4667969,153.4150391 		"/>
	</g>
</g>
<g>
	<g>
		<polyline fill="none" stroke="#0099E7" stroke-miterlimit="10" points="542.5,32 542.5,27.5 538,27.5 		"/>
		<line fill="none" stroke="#0099E7" stroke-miterlimit="10" stroke-dasharray="9,5" x1="533" y1="27.5" x2="381" y2="27.5"/>
		<polyline fill="none" stroke="#0099E7" stroke-miterlimit="10" points="378,27.5 373.5,27.5 373.5,32 		"/>
		<line fill="none" stroke="#0099E7" stroke-miterlimit="10" stroke-dasharray="9,5" x1="373.5" y1="37" x2="373.5" y2="258"/>
		<polyline fill="none" stroke="#0099E7" stroke-miterlimit="10" points="373.5,261 373.5,265.5 378,265.5 		"/>
		<line fill="none" stroke="#0099E7" stroke-miterlimit="10" stroke-dasharray="9,5" x1="384" y1="265.5" x2="536" y2="265.5"/>
		<polyline fill="none" stroke="#0099E7" stroke-miterlimit="10" points="538,265.5 542.5,265.5 542.5,261 		"/>
		<line fill="none" stroke="#0099E7" stroke-miterlimit="10" stroke-dasharray="9,5" x1="542.5" y1="255" x2="542.5" y2="35"/>
	</g>
</g>
<g>
	
		<rect x="421.2506714" y="72.3564758" transform="matrix(0.7071196 0.707094 -0.707094 0.7071196 212.618515 -292.4457397)" fill="#333333" stroke="#686868" stroke-width="4.0084901" stroke-miterlimit="10" width="76.1617508" height="76.1610641"/>
	<g>
		<g>
			<path fill="#DCDCDC" d="M415.7539063,129.2158203c-3.8974609,3.8974609-8.6806641,5.4921875-10.6298828,3.5419922
				c-1.9492188-1.9492188-0.3544922-6.7324219,3.5429688-10.6289063l3.5439453-3.543457
				c3.8974609-3.8964844,8.6806641-5.4907227,10.6289063-3.5424805c1.9482422,1.9487305,0.3535156,6.7319336-3.5439453,10.6293945
				L415.7539063,129.2158203z"/>
		</g>
		<g>
			<path fill="#DCDCDC" d="M431.6972656,145.1582031c-3.8974609,3.8974609-8.6806641,5.4931641-10.6289063,3.5449219
				c-1.9482422-1.9492188-0.3544922-6.7314453,3.5429688-10.6298828l3.5429688-3.5429688
				c3.8974609-3.8984375,8.6796875-5.4921875,10.6279297-3.5439453s0.3535156,6.7324219-3.5439453,10.6298828
				L431.6972656,145.1582031z"/>
		</g>
		<g>
			<path fill="#DCDCDC" d="M447.640625,161.1035156c-3.8974609,3.8974609-8.6806641,5.4912109-10.6298828,3.5429688
				c-1.9492188-1.9492188-0.3544922-6.7324219,3.5429688-10.6298828l3.5449219-3.5439453
				c3.8974609-3.8974609,8.6806641-5.4912109,10.6289063-3.5429688c1.9482422,1.9492188,0.3535156,6.7324219-3.5439453,10.6298828
				L447.640625,161.1035156z"/>
		</g>
	</g>
	<g>
		<g>
			<path fill="#DCDCDC" d="M472.4404297,72.5273438c-3.8974609,3.8969727-8.6806641,5.4907227-10.6289063,3.5419922
				s-0.3535156-6.7319336,3.5439453-10.6293945l3.5429688-3.5424805c3.8974609-3.8974609,8.6806641-5.4916992,10.6298828-3.5429688
				s0.3544922,6.7314453-3.5429688,10.628418L472.4404297,72.5273438z"/>
		</g>
		<g>
			<path fill="#DCDCDC" d="M488.3847656,88.4707031c-3.8974609,3.8969727-8.6796875,5.4916992-10.6279297,3.5429688
				c-1.9482422-1.9492188-0.3535156-6.7324219,3.5439453-10.6298828l3.5410156-3.5424805
				c3.8974609-3.8974609,8.6806641-5.4921875,10.6289063-3.543457c1.9482422,1.9492188,0.3544922,6.7324219-3.5429688,10.6293945
				L488.3847656,88.4707031z"/>
		</g>
		<g>
			<path fill="#DCDCDC" d="M504.328125,104.4150391c-3.8984375,3.8969727-8.6806641,5.4912109-10.6289063,3.5424805
				s-0.3535156-6.7319336,3.5439453-10.6293945l3.5419922-3.5424805c3.8974609-3.8974609,8.6806641-5.4921875,10.6298828-3.543457
				c1.9492188,1.9482422,0.3554688,6.730957-3.5429688,10.6279297L504.328125,104.4150391z"/>
		</g>
	</g>
	<g>
		<g>
			<path fill="#DCDCDC" d="M475.9853516,151.8916016c3.8974609,3.8974609,5.4921875,8.6796875,3.5429688,10.6279297
				c-1.9492188,1.9492188-6.7324219,0.3544922-10.6298828-3.5429688l-3.5429688-3.5429688
				c-3.8974609-3.8974609-5.4921875-8.6806641-3.5439453-10.6289063s6.7314453-0.3544922,10.6289063,3.5429688
				L475.9853516,151.8916016z"/>
		</g>
		<g>
			<path fill="#DCDCDC" d="M491.9277344,135.9472656c3.8974609,3.8974609,5.4912109,8.6806641,3.5429688,10.6289063
				s-6.7314453,0.3544922-10.6289063-3.5439453l-3.5410156-3.5410156
				c-3.8974609-3.8984375-5.4921875-8.6816406-3.5439453-10.6298828c1.9482422-1.9492188,6.7304688-0.3544922,10.6279297,3.5429688
				L491.9277344,135.9472656z"/>
		</g>
		<g>
			<path fill="#DCDCDC" d="M507.8720703,120.0043945c3.8984375,3.8969727,5.4921875,8.6801758,3.5429688,10.628418
				s-6.7324219,0.3544922-10.6298828-3.5439453l-3.5419922-3.5424805
				c-3.8974609-3.8974609-5.4921875-8.6806641-3.5439453-10.6293945c1.9482422-1.9482422,6.7304688-0.3540039,10.6289063,3.5429688
				L507.8720703,120.0043945z"/>
		</g>
	</g>
	<g>
		<g>
			<path fill="#DCDCDC" d="M443.0351563,68.628418c-3.8984375-3.8969727-5.4931641-8.6796875-3.5449219-10.6279297
				c1.9492188-1.9482422,6.7314453-0.3540039,10.6289063,3.543457l3.5429688,3.5415039
				c3.8974609,3.8974609,5.4921875,8.6806641,3.5449219,10.6293945c-1.9472656,1.9492188-6.7294922,0.3554688-10.6279297-3.5415039
				L443.0351563,68.628418z"/>
		</g>
		<g>
			<path fill="#DCDCDC" d="M427.0898438,84.5732422c-3.8974609-3.8969727-5.4912109-8.6801758-3.5419922-10.6289063
				c1.9492188-1.9492188,6.7324219-0.3544922,10.6298828,3.5429688l3.5419922,3.5429688
				c3.8974609,3.8974609,5.4912109,8.6806641,3.5419922,10.6289063c-1.9482422,1.9487305-6.7314453,0.3540039-10.6289063-3.5429688
				L427.0898438,84.5732422z"/>
		</g>
		<g>
			<path fill="#DCDCDC" d="M411.1464844,100.5170898c-3.8974609-3.8974609-5.4921875-8.6801758-3.5429688-10.6293945
				c1.9482422-1.9487305,6.7314453-0.3544922,10.6289063,3.5424805l3.5449219,3.5449219
				c3.8974609,3.8969727,5.4921875,8.6796875,3.5429688,10.628418s-6.7324219,0.3544922-10.6298828-3.5429688
				L411.1464844,100.5170898z"/>
		</g>
	</g>
	
		<rect x="421.2506714" y="72.3564758" transform="matrix(0.7071196 0.707094 -0.707094 0.7071196 212.618515 -292.4457397)" fill="#333333" width="76.1617508" height="76.1610641"/>
	<polygon opacity="0.1" fill="#DCDCDC" points="459,56.5834961 459,164.2910156 512.8544922,110.4370117 	"/>
</g>
<g>
	<path fill="#FFF100" d="M635.53125,41.15625c0-9.4980469-7.8505859-17.1025391-17.3486328-17.1025391
		c-9.5,0-17.3496094,7.8500977-17.3496094,17.3486328c0,0.0112305,0-0.2138672,0-0.2138672l0,0V68h34.6962891V41l0,0
		C635.5292969,41,635.53125,41.1674805,635.53125,41.15625z"/>
	<g>
		<polygon opacity="0.5" fill="#F37920" points="623.953125,43 611.4472656,43 624,55.2709961 624,68 629,68 629,55.2709961 629,43 
					"/>
		<polygon opacity="0.5" fill="#F37920" points="607,42.7646484 607,55.2709961 607,68 612,68 612,55 620.2753906,55 		"/>
	</g>
	<rect x="596" y="68" opacity="0.5" fill="#DCDCDC" width="44" height="2"/>
	<line fill="none" stroke="#FFFFFF" stroke-width="5" stroke-miterlimit="10" x1="609.5" y1="70" x2="609.5" y2="114"/>
	<line fill="none" stroke="#FFFFFF" stroke-width="5" stroke-miterlimit="10" x1="626.5" y1="70" x2="626.5" y2="107"/>
</g>
<path fill="none" stroke="#FFFFFF" stroke-miterlimit="10" d="M617.8330078,269.5"/>
<g>
	<line fill="none" stroke="#FFFFFF" stroke-width="6" stroke-miterlimit="10" x1="618" y1="244" x2="618" y2="263"/>
	<line fill="none" stroke="#FFFFFF" stroke-width="6" stroke-miterlimit="10" x1="589" y1="244" x2="589" y2="263"/>
	<line fill="none" stroke="#FFFFFF" stroke-width="6" stroke-miterlimit="10" x1="648" y1="244" x2="648" y2="263"/>
	<path fill="#0099E7" d="M618,157.6503906c-20.8193359,0-38,16.8759766-38,37.6953125V244h76v-48.6542969
		C656,174.5263672,638.8193359,157.6503906,618,157.6503906z"/>
	<path fill="#DCDCDC" d="M649,199.2128906V173h-25.5097656c-1.6777344-0.2832031-3.3984375-0.4384766-5.1572266-0.4384766
		S614.8535156,172.7167969,613.1757813,173H588v26.2128906c0,1.3525391-0.3671875,2.7304688-0.3671875,4.1328125
		c0,17.0019531,13.7402344,30.7841797,30.7421875,30.7841797s30.8466797-13.7822266,30.8466797-30.7841797
		C649.2216797,201.9433594,649,200.5654297,649,199.2128906z"/>
	<g>
		<defs>
			<circle id="SVGID_3_" cx="618.3330078" cy="175.3457031" r="30.7841797"/>
		</defs>
		<use xlink:href="#SVGID_3_"  overflow="visible" fill="#FFFFFF"/>
		<clipPath id="SVGID_4_">
			<use xlink:href="#SVGID_3_"  overflow="visible"/>
		</clipPath>
		
			<line clip-path="url(#SVGID_4_)" fill="#FFFFFF" stroke="#000000" stroke-width="6" stroke-linecap="round" stroke-miterlimit="10" x1="639.5458984" y1="149.7871094" x2="618.3330078" y2="171"/>
	</g>
	<rect x="580" y="238" fill="#DCDCDC" width="76" height="6"/>
</g>
<g>
</g>
<g>
</g>
<g>
</g>
<g>
</g>
<g>
</g>
<g>
</g>
</svg>
