<?xml version="1.0" encoding="utf-8"?>
<!-- Generator: Adobe Illustrator 16.0.0, SVG Export Plug-In . SVG Version: 6.00 Build 0)  -->
<!DOCTYPE svg PUBLIC "-//W3C//DTD SVG 1.1//EN" "http://www.w3.org/Graphics/SVG/1.1/DTD/svg11.dtd">
<svg version="1.1" id="Layer_1" xmlns="http://www.w3.org/2000/svg" xmlns:xlink="http://www.w3.org/1999/xlink" x="0px" y="0px"
	 width="800px" height="500px" viewBox="-100 -50 800 500" enable-background="new -100 -50 800 500" xml:space="preserve">
<g>
	<path fill="#0084A8" d="M365.5,214.5c0,11.549805-9.450195,21-21,21h-235c-11.549805,0-21-9.450195-21-21v-122
		c0-11.549805,9.450195-21,21-21h235c11.549805,0,21,9.450195,21,21V214.5z"/>
</g>
<g>
	<path fill="#003A48" d="M365.5,210.5c0,11.549805-9.450195,21-21,21h-235c-11.549805,0-21-9.450195-21-21v-122
		c0-11.549805,9.450195-21,21-21h235c11.549805,0,21,9.450195,21,21V210.5z"/>
</g>
<g>
	<path fill="#00556E" d="M365.5,161.5c0,11.549805-9.450195,21-21,21h-235c-11.549805,0-21-9.450195-21-21v-122
		c0-11.549805,9.450195-21,21-21h235c11.549805,0,21,9.450195,21,21V161.5z"/>
</g>
<g>
	<path fill="#7D7D7D" d="M365.5,357.5c0,11.549805-9.450195,21-21,21h-235c-11.549805,0-21-9.450195-21-21v-40
		c0-11.549805,9.450195-21,21-21h235c11.549805,0,21,9.450195,21,21V357.5z"/>
</g>
<g>
	<path fill="#505050" d="M365.5,353.5c0,11.549805-9.450195,21-21,21h-235c-11.549805,0-21-9.450195-21-21v-40
		c0-11.549805,9.450195-21,21-21h235c11.549805,0,21,9.450195,21,21V353.5z"/>
</g>
<g>
	<path fill="#505050" d="M365.5,328.5c0,11.549805-9.450195,21-21,21h-235c-11.549805,0-21-9.450195-21-21v-40
		c0-11.549805,9.450195-21,21-21h235c11.549805,0,21,9.450195,21,21V328.5z"/>
</g>
<g>
	<path fill="#222222" d="M365.5,304.5c0,11.549805-9.450195,21-21,21h-235c-11.549805,0-21-9.450195-21-21v-40
		c0-11.549805,9.450195-21,21-21h235c11.549805,0,21,9.450195,21,21V304.5z"/>
</g>
<g>
	<path fill="#F37920" d="M228.5,115.5c0,7.731934-6.268066,14-14,14h-82c-7.731934,0-14-6.268066-14-14v-17
		c0-7.731934,6.268066-14,14-14h82c7.731934,0,14,6.268066,14,14V115.5z"/>
</g>
<g>
	<path fill="#FFF200" d="M228.5,96.5c0,7.731934-6.268066,14-14,14h-82c-7.731934,0-14-6.268066-14-14v-17
		c0-7.731934,6.268066-14,14-14h82c7.731934,0,14,6.268066,14,14V96.5z"/>
</g>
<g>
	<line fill="none" stroke="#FFFFFF" stroke-width="6" stroke-miterlimit="10" x1="292.5" y1="131.5" x2="292.5" y2="150.5"/>
	<line fill="none" stroke="#FFFFFF" stroke-width="6" stroke-miterlimit="10" x1="263.5" y1="131.5" x2="263.5" y2="150.5"/>
	<line fill="none" stroke="#FFFFFF" stroke-width="6" stroke-miterlimit="10" x1="322.5" y1="131.5" x2="322.5" y2="150.5"/>
	<path fill="#0099E7" d="M292.5,44.150391c-20.819336,0-38,16.875977-38,37.695313V131.5h76V81.845703
		C330.5,61.026367,313.319336,44.150391,292.5,44.150391z"/>
	<path fill="#E8E8E8" d="M323.5,85.712891V60.5h-24.509766c-1.677734-1-3.398438-0.438477-5.157227-0.438477
		S290.353516,59.5,288.675781,60.5H262.5v25.212891c0,1.352539,0.132813,2.730469,0.132813,4.132813
		c0,17.001953,13.990234,30.78418,30.992188,30.78418s30.47168-13.782227,30.47168-30.78418
		C324.09668,88.443359,323.5,87.06543,323.5,85.712891z"/>
	<g>
		<defs>
			<circle id="SVGID_1_" cx="293.833008" cy="61.845703" r="30.78418"/>
		</defs>
		<use xlink:href="#SVGID_1_"  overflow="visible" fill="#FFFFFF"/>
		<clipPath id="SVGID_2_">
			<use xlink:href="#SVGID_1_"  overflow="visible"/>
		</clipPath>
		
			<line clip-path="url(#SVGID_2_)" fill="#FFFFFF" stroke="#000000" stroke-width="6" stroke-linecap="round" stroke-miterlimit="10" x1="315.045898" y1="36.287109" x2="293.833008" y2="57.5"/>
	</g>
	<rect x="254.5" y="125.5" fill="#F0F0F0" width="76" height="6"/>
</g>
<line fill="none" stroke="#FFF100" stroke-width="4" stroke-linecap="round" stroke-miterlimit="10" x1="126.5" y1="350.5" x2="326.5" y2="350.5"/>
<path fill="#00B3FF" d="M243.725586,282.891602c0-9.237305-7.48877-16.725586-16.725586-16.725586
	s-16.725586,7.488281-16.725586,16.725586s7.48877,9.442383,16.725586,9.442383S243.725586,292.128906,243.725586,282.891602z"/>
<g>
	<path fill="#628481" d="M510.5,133.5c0,11.598145-9.402344,21-21,21h-88c-11.597656,0-21-9.401855-21-21v-40
		c0-11.598145,9.402344-21,21-21h88c11.597656,0,21,9.401855,21,21V133.5z"/>
</g>
<path fill="#9EB9B9" d="M490,47.5h-88c-11.597656,0-21.5,8.902344-21.5,20.5v22v18v22c0,11.597656,9.902344,21.5,21.5,21.5h88
	c11.597656,0,20.5-9.902344,20.5-21.5v-22V90V68C510.5,56.402344,501.597656,47.5,490,47.5z"/>
<g>
	<path fill="#D8FFFF" d="M510.5,80.5c0,11.598145-9.402344,21-21,21h-88c-11.597656,0-21-9.401855-21-21v-40
		c0-11.598145,9.402344-21,21-21h88c11.597656,0,21,9.401855,21,21V80.5z"/>
</g>
<g>
	<path fill="#056805" d="M72.5,215.5c0,11.549805-9.450195,21-21,21h-88c-11.549805,0-21-9.450195-21-21v-40
		c0-11.549805,9.450195-21,21-21h88c11.549805,0,21,9.450195,21,21V215.5z"/>
</g>
<g>
	<path fill="#059605" d="M72.5,211.5c0,11.549805-9.450195,21-21,21h-88c-11.549805,0-21-9.450195-21-21v-40
		c0-11.549805,9.450195-21,21-21h88c11.549805,0,21,9.450195,21,21V211.5z"/>
</g>
<g>
	<path fill="#059605" d="M72.5,194.5c0,11.549805-9.450195,21-21,21h-88c-11.549805,0-21-9.450195-21-21v-40
		c0-11.549805,9.450195-21,21-21h88c11.549805,0,21,9.450195,21,21V194.5z"/>
</g>
<g>
	<path fill="#00CC00" d="M72.5,162.5c0,11.549805-9.450195,21-21,21h-88c-11.549805,0-21-9.450195-21-21v-40
		c0-11.549805,9.450195-21,21-21h88c11.549805,0,21,9.450195,21,21V162.5z"/>
</g>
<ellipse fill="#DEDEDE" cx="7.5" cy="144.113281" rx="25" ry="20"/>
<ellipse fill="#FFFFFF" cx="7.5" cy="141.113281" rx="25" ry="20"/>
<ellipse cx="446.5" cy="60.113281" rx="25" ry="20"/>
<ellipse fill="#4E4E4E" cx="446.5" cy="57.113281" rx="25" ry="20"/>
<path fill="none" stroke="#FF4E10" stroke-width="3" stroke-linecap="round" stroke-linejoin="round" stroke-miterlimit="10" d="
	M-10,154.5v-21.529297c0-2.387695,2.113281-4.323242,4.5-4.323242c2.387207,0,4.5,1.935547,4.5,4.323242v17.464844
	c0,2.385742,1.612793,4.322266,4,4.322266s4-1.936523,4-4.322266v-17.464844c0-2.387695,2.112793-4.323242,4.5-4.323242
	s4.5,1.935547,4.5,4.323242v17.464844c0,2.385742,1.613281,4.322266,4,4.322266c2.387207,0,4-1.936523,4-4.322266V129.5"/>
<g>
	<defs>
		<ellipse id="SVGID_3_" cx="446.5" cy="57.113281" rx="25" ry="20"/>
	</defs>
	<clipPath id="SVGID_4_">
		<use xlink:href="#SVGID_3_"  overflow="visible"/>
	</clipPath>
	<g clip-path="url(#SVGID_4_)">
		<line fill="none" stroke="#323232" stroke-width="2" stroke-miterlimit="10" x1="420.5" y1="34.5" x2="420.5" y2="84.5"/>
		<line fill="none" stroke="#323232" stroke-width="2" stroke-miterlimit="10" x1="426.5" y1="34.5" x2="426.5" y2="84.5"/>
		<line fill="none" stroke="#323232" stroke-width="2" stroke-miterlimit="10" x1="431.5" y1="34.5" x2="431.5" y2="84.5"/>
		<line fill="none" stroke="#323232" stroke-width="2" stroke-miterlimit="10" x1="437.5" y1="34.5" x2="437.5" y2="84.5"/>
		<line fill="none" stroke="#323232" stroke-width="2" stroke-miterlimit="10" x1="443.5" y1="34.5" x2="443.5" y2="84.5"/>
		<line fill="none" stroke="#323232" stroke-width="2" stroke-miterlimit="10" x1="448.5" y1="34.5" x2="448.5" y2="84.5"/>
		<line fill="none" stroke="#323232" stroke-width="2" stroke-miterlimit="10" x1="454.5" y1="34.5" x2="454.5" y2="84.5"/>
		<line fill="none" stroke="#323232" stroke-width="2" stroke-miterlimit="10" x1="460.5" y1="34.5" x2="460.5" y2="84.5"/>
		<line fill="none" stroke="#323232" stroke-width="2" stroke-miterlimit="10" x1="465.5" y1="34.5" x2="465.5" y2="84.5"/>
		<line fill="none" stroke="#323232" stroke-width="2" stroke-miterlimit="10" x1="471.5" y1="34.5" x2="471.5" y2="84.5"/>
	</g>
	<g clip-path="url(#SVGID_4_)">
		<line fill="none" stroke="#323232" stroke-width="2" stroke-miterlimit="10" x1="470.5" y1="34.5" x2="420.5" y2="34.5"/>
		<line fill="none" stroke="#323232" stroke-width="2" stroke-miterlimit="10" x1="470.5" y1="40.5" x2="420.5" y2="40.5"/>
		<line fill="none" stroke="#323232" stroke-width="2" stroke-miterlimit="10" x1="470.5" y1="45.5" x2="420.5" y2="45.5"/>
		<line fill="none" stroke="#323232" stroke-width="2" stroke-miterlimit="10" x1="470.5" y1="51.5" x2="420.5" y2="51.5"/>
		<line fill="none" stroke="#323232" stroke-width="2" stroke-miterlimit="10" x1="470.5" y1="57.5" x2="420.5" y2="57.5"/>
		<line fill="none" stroke="#323232" stroke-width="2" stroke-miterlimit="10" x1="470.5" y1="62.5" x2="420.5" y2="62.5"/>
		<line fill="none" stroke="#323232" stroke-width="2" stroke-miterlimit="10" x1="470.5" y1="68.5" x2="420.5" y2="68.5"/>
		<line fill="none" stroke="#323232" stroke-width="2" stroke-miterlimit="10" x1="470.5" y1="74.5" x2="420.5" y2="74.5"/>
		<line fill="none" stroke="#323232" stroke-width="2" stroke-miterlimit="10" x1="470.5" y1="79.5" x2="420.5" y2="79.5"/>
		<line fill="none" stroke="#323232" stroke-width="2" stroke-miterlimit="10" x1="470.5" y1="85.5" x2="420.5" y2="85.5"/>
	</g>
</g>
<g>
	<path fill="#B26500" d="M658.5,356.5c0,11.549805-9.450195,21-21,21h-235c-11.549805,0-21-9.450195-21-21v-122
		c0-11.549805,9.450195-21,21-21h235c11.549805,0,21,9.450195,21,21V356.5z"/>
</g>
<g>
	<path fill="#E58800" d="M658.5,352.5c0,11.549805-9.450195,21-21,21h-235c-11.549805,0-21-9.450195-21-21v-122
		c0-11.549805,9.450195-21,21-21h235c11.549805,0,21,9.450195,21,21V352.5z"/>
</g>
<g>
	<path fill="none" stroke="#FCC549" stroke-miterlimit="10" d="M658,351c0,11.597656-9.402344,22-21,22H402
		c-11.597656,0-21-9.902344-21-21.5"/>
	<path fill="none" stroke="#FCC549" stroke-miterlimit="10" d="M658,344.455078C658,356.052734,648.597656,366,637,366H402
		c-11.597656,0-21-9.674805-21-21.272461"/>
	<path fill="none" stroke="#FCC549" stroke-miterlimit="10" d="M658,338.40918C658,350.006836,648.597656,360,637,360H402
		c-11.597656,0-21-9.697266-21-21.294922"/>
	<path fill="none" stroke="#FCC549" stroke-miterlimit="10" d="M658,332.363281C658,343.960938,648.597656,354,637,354H402
		c-11.597656,0-21-9.720703-21-21.317383"/>
	<path fill="none" stroke="#FCC549" stroke-miterlimit="10" d="M658,326.318359C658,337.916016,648.597656,348,637,348H402
		c-11.597656,0-21-9.743164-21-21.34082"/>
	<path fill="none" stroke="#FCC549" stroke-miterlimit="10" d="M658,320.273438C658,331.869141,648.597656,342,637,342H402
		c-11.597656,0-21-9.766602-21-21.363281"/>
	<path fill="none" stroke="#FCC549" stroke-miterlimit="10" d="M658,314.228516C658,325.824219,648.597656,336,637,336H402
		c-11.597656,0-21-9.789063-21-21.385742"/>
	<path fill="none" stroke="#FCC549" stroke-miterlimit="10" d="M658,308.181641C658,319.779297,648.597656,330,637,330H402
		c-11.597656,0-21-9.811523-21-21.40918"/>
	<path fill="none" stroke="#FCC549" stroke-miterlimit="10" d="M658,302.136719C658,313.734375,648.597656,324,637,324H402
		c-11.597656,0-21-9.833984-21-21.431641"/>
	<path fill="none" stroke="#FCC549" stroke-miterlimit="10" d="M658,296.09082C658,307.688477,648.597656,318,637,318H402
		c-11.597656,0-21-9.857422-21-21.455078"/>
	<path fill="none" stroke="#FCC549" stroke-miterlimit="10" d="M658,290.044922C658,301.642578,648.597656,312,637,312H402
		c-11.597656,0-21-9.879883-21-21.477539"/>
	<path fill="none" stroke="#FCC549" stroke-miterlimit="10" d="M658,284c0,11.597656-9.402344,22-21,22H402
		c-11.597656,0-21-9.902344-21-21.5"/>
</g>
<g>
	<path fill="#FFDC83" d="M658.5,303.5c0,11.549805-9.450195,21-21,21h-235c-11.549805,0-21-9.450195-21-21v-122
		c0-11.549805,9.450195-21,21-21h235c11.549805,0,21,9.450195,21,21V303.5z"/>
</g>
<ellipse fill="#6FFFFF" cx="227.333496" cy="289.630859" rx="10" ry="1.790039"/>
<g>
	<g>
		<path fill="#E58800" stroke="#B26500" stroke-miterlimit="10" d="M624,220H417c-3.866211,0-7-3.133789-7-7s3.133789-7,7-7h207
			c3.866211,0,7,3.133789,7,7S627.866211,220,624,220z"/>
	</g>
</g>
<path fill="#9DA768" d="M574.276367,168.216797C573.992188,166.035156,572.200195,164.5,570,164.5h-9
	c-2.200195,0-4.232422,1.535156-4.517578,3.716797l-4.964844,38.19043L551.390625,230.5h28.21875L579,206.408203
	L574.276367,168.216797z"/>
<g>
	<path fill="#35351C" d="M574.517578,191.216309C574.232422,189.034668,572.200195,187.5,570,187.5h-9
		c-2.200195,0-4.232422,1.534668-4.517578,3.716309l-4.964844,38.191895C551.232422,231.589844,552.799805,233.5,555,233.5h21
		c2.200195,0,3.767578-1.910156,3.482422-4.091797L574.517578,191.216309z"/>
</g>
<g>
	<g>
		<path fill="#E58800" stroke="#B26500" stroke-miterlimit="10" d="M624,287H417c-3.866211,0-7-3.133789-7-7s3.133789-7,7-7h207
			c3.866211,0,7,3.133789,7,7S627.866211,287,624,287z"/>
	</g>
</g>
<path fill="#9DA768" d="M494.276367,235.216797C493.992188,233.035156,492.200195,231.5,490,231.5h-9
	c-2.200195,0-4.232422,1.535156-4.517578,3.716797l-4.964844,38.19043L471.390625,297.5h28.21875L499,273.408203
	L494.276367,235.216797z"/>
<g>
	<path fill="#35351C" d="M494.517578,258.216797C494.232422,256.035156,492.200195,254.5,490,254.5h-9
		c-2.200195,0-4.232422,1.535156-4.517578,3.716797l-4.964844,38.191406C471.232422,298.589844,472.799805,300.5,475,300.5h21
		c2.200195,0,3.767578-1.910156,3.482422-4.091797L494.517578,258.216797z"/>
</g>
</svg>
