<?xml version="1.0" encoding="utf-8"?>
<!-- Generator: Adobe Illustrator 16.0.0, SVG Export Plug-In . SVG Version: 6.00 Build 0)  -->
<!DOCTYPE svg PUBLIC "-//W3C//DTD SVG 1.1//EN" "http://www.w3.org/Graphics/SVG/1.1/DTD/svg11.dtd">
<svg version="1.1" id="Layer_1" xmlns="http://www.w3.org/2000/svg" xmlns:xlink="http://www.w3.org/1999/xlink" x="0px" y="0px"
	 width="350px" height="350px" viewBox="0 0 350 350" enable-background="new 0 0 350 350" xml:space="preserve">
<circle fill="#323246" cx="175" cy="175" r="175"/>
<g>
	<defs>
		<circle id="SVGID_1_" cx="175" cy="175" r="175"/>
	</defs>
	<clipPath id="SVGID_2_">
		<use xlink:href="#SVGID_1_"  overflow="visible"/>
	</clipPath>
	<g clip-path="url(#SVGID_2_)">
		<g>
			<path fill="#FFF200" d="M205.2949219,122.6450195c-1.1103516-3.5883789-1.6660156-7.5073242-1.6660156-11.7553711
				c0-4.2485352,0.5556641-8.1586914,1.6660156-11.730957s2.6777344-7.03125,4.7060547-10.3793945l5.2128906,2.1240234
				c-1.7373047,3.1542969-2.9921875,6.4375-3.7646484,9.8481445c-0.7724609,3.4116211-1.1582031,6.7915039-1.1582031,10.1381836
				c0,3.3476563,0.3857422,6.7265625,1.1582031,10.1376953c0.7724609,3.4116211,2.0273438,6.6938477,3.7646484,9.8486328
				L210.0009766,133C207.9726563,129.6845703,206.4052734,126.2333984,205.2949219,122.6450195z"/>
		</g>
		<g>
			<path fill="#FFF200" d="M238.0019531,121.0273438c0.7724609-3.4111328,1.1591797-6.7900391,1.1591797-10.1376953
				c0-3.3466797-0.3867188-6.7265625-1.1591797-10.1381836c-0.7724609-3.4106445-2.0273438-6.6938477-3.7646484-9.8481445
				l5.2128906-2.1240234c2.0283203,3.3481445,3.5957031,6.8071289,4.7060547,10.3793945
				c1.1113281,3.5722656,1.6660156,7.4824219,1.6660156,11.730957c0,4.2480469-0.5546875,8.1669922-1.6660156,11.7553711
				c-1.1103516,3.5883789-2.6777344,7.0395508-4.7060547,10.3549805l-5.2128906-2.1240234
				C235.9746094,127.7211914,237.2294922,124.4389648,238.0019531,121.0273438z"/>
		</g>
		<g>
			<path fill="#FFFFFF" d="M274,127v5h-3.5869141c-1.1269531,0-2.0839844-0.296875-2.8720703-0.5380859
				s-1.4482422-0.7241211-1.9785156-1.2709961c-0.5322266-0.5473633-0.9169922-1.3154297-1.1601563-2.2158203
				c-0.2402344-0.9018555-0.3603516-2.0341797-0.3603516-3.3530273c0-0.8364258,0.0234375-1.5878906,0.0703125-2.2314453
				c0.0498047-0.6435547,0.1054688-1.2612305,0.1699219-1.840332c0.0634766-0.5795898,0.1201172-1.1689453,0.1699219-1.7646484
				c0.046875-0.5952148,0.0712891-1.2646484,0.0712891-2.0053711c0-0.8359375-0.4912109-1.609375-1.1035156-2.3178711
				C262.8095703,113.7553711,262,113.3681641,260,113.3032227v-4.8276367c2-0.0639648,2.8095703-0.4501953,3.4199219-1.1582031
				c0.6123047-0.7075195,1.0107422-1.4799805,1.0107422-2.3173828c0-0.7402344,0.0224609-1.4072266-0.0244141-2.003418
				c-0.0507813-0.5952148-0.0839844-1.1831055-0.1474609-1.762207c-0.0644531-0.5791016-0.1083984-1.1904297-0.1582031-1.8344727
				c-0.046875-0.6435547-0.0644531-1.3833008-0.0644531-2.2207031c0-2.6381836,0.5097656-4.5385742,1.5234375-5.5688477
				C266.5732422,90.5810547,268.1923828,90,270.4130859,90H274v4h-0.9794922c-0.9013672,0-1.5136719,0.4233398-1.8339844,0.793457
				c-0.3232422,0.3701172-0.4833984,1.3012695-0.4833984,2.5561523c0,1.2246094,0.03125,2.4902344,0.0966797,3.6801758
				c0.0634766,1.1914063,0.0966797,2.5244141,0.0966797,3.9404297c0,1.9311523-0.3398438,3.3222656-0.984375,4.1425781
				C269.2695313,109.9335938,268,110.503418,267,110.7929688v0.1933594c1,0.2895508,2.2695313,0.8447266,2.9121094,1.6650391
				c0.6445313,0.8212891,0.9755859,2.1972656,0.9755859,4.1274414c0,1.4169922-0.0283203,2.7202148-0.0917969,3.9106445
				c-0.0654297,1.1914063-0.0947266,2.3979492-0.0947266,3.6210938c0,1.2548828,0.1611328,1.9150391,0.484375,2.2861328
				C271.5058594,126.9658203,272.1191406,127,273.0205078,127H274z"/>
		</g>
		<g>
			<path fill="#FFFFFF" d="M78.7578125,277c0.9008789,0,1.512207,0.0175781,1.8349609-0.3525391
				c0.3208008-0.3701172,0.4824219-1.0791016,0.4824219-2.3349609c0-1.2226563-0.0322266-2.3789063-0.0966797-3.5693359
				c-0.0649414-1.1904297-0.0966797-2.46875-0.0966797-3.8857422c0-1.9296875,0.4492188-3.2939453,1.0932617-4.1142578
				C82.6186523,261.9228516,83,261.3798828,85,261.0908203v-0.1933594c-2-0.2890625-2.3813477-0.8457031-3.0249023-1.6660156
				c-0.644043-0.8203125-1.0292969-2.1962891-1.0292969-4.1269531c0-1.4169922-0.0004883-2.7197266,0.0649414-3.9111328
				c0.0644531-1.1904297,0.0805664-2.3974609,0.0805664-3.6201172c0-1.2539063-0.1699219-1.8564453-0.4907227-2.2275391
				C80.277832,244.9765625,79.6586914,245,78.7578125,245H78v-5h3.3647461c2.2207031,0,3.8378906,0.6328125,4.8515625,1.6621094
				c1.0141602,1.03125,1.5209961,2.9248047,1.5209961,5.5625c0,0.8378906-0.0244141,1.6064453-0.0722656,2.25
				c-0.0483398,0.6445313-0.1049805,1.2705078-0.1694336,1.8496094c-0.0649414,0.578125-0.1206055,1.1738281-0.1689453,1.7685547
				c-0.0483398,0.5966797-0.0727539,1.2675781-0.0727539,2.0078125c0,0.8369141,0.1030273,1.6113281,0.7143555,2.3183594
				C88.5795898,258.1279297,90,258.5146484,91,258.5800781v4.8271484c-1,0.0654297-2.4204102,0.4521484-3.0317383,1.1591797
				c-0.6113281,0.7080078-0.815918,1.4804688-0.815918,2.3164063c0,0.7402344,0.0751953,1.4091797,0.1235352,2.0039063
				c0.0483398,0.5966797,0.1293945,1.1835938,0.1943359,1.7617188c0.0644531,0.5791016,0.1337891,1.1923828,0.1821289,1.8359375
				c0.0478516,0.6435547,0.0786133,1.3837891,0.0786133,2.2197266c0,1.3193359-0.1176758,2.4296875-0.3588867,3.3310547
				c-0.2412109,0.9003906-0.6264648,1.6240234-1.1572266,2.171875c-0.5307617,0.546875-1.1987305,1.0664063-2.0024414,1.3066406
				C83.4072266,281.7558594,82.4584961,282,81.3647461,282H78v-5H78.7578125z"/>
		</g>
		<rect x="118" y="214" fill="#4D7293" width="75" height="12"/>
		<rect x="118" y="191" fill="#4D7293" width="181" height="12"/>
		<rect x="118" y="168" fill="#4D7293" width="139" height="12"/>
		<rect x="118" y="146" fill="#4D7293" width="109" height="12"/>
		<rect x="76" y="106" fill="#00B3FF" width="109" height="12"/>
		<rect x="76" y="79" fill="#FFFFFF" width="69" height="12"/>
		<rect x="76" y="301" fill="#00B3FF" width="139" height="12"/>
		<rect x="76" y="325" fill="#00B3FF" width="109" height="12"/>
	</g>
</g>
<g>
</g>
<g>
</g>
<g>
</g>
<g>
</g>
<g>
</g>
<g>
</g>
</svg>
