<?xml version="1.0" encoding="utf-8"?>
<!-- Generator: Adobe Illustrator 16.0.0, SVG Export Plug-In . SVG Version: 6.00 Build 0)  -->
<!DOCTYPE svg PUBLIC "-//W3C//DTD SVG 1.1//EN" "http://www.w3.org/Graphics/SVG/1.1/DTD/svg11.dtd">
<svg version="1.1" id="Layer_1" xmlns="http://www.w3.org/2000/svg" xmlns:xlink="http://www.w3.org/1999/xlink" x="0px" y="0px"
	 width="800px" height="150px" viewBox="0 0 800 150" enable-background="new 0 0 800 150" xml:space="preserve">
<g>
	<path fill="#00546D" d="M67.71875,87.5c-0.140625-0.3164063-0.2636719-0.6416016-0.3691406-0.9755859
		s-0.1875-0.6708984-0.2460938-1.0107422c-0.609375,0.703125-1.3505859,1.2714844-2.2236328,1.7050781
		s-1.8720703,0.6503906-2.9970703,0.6503906c-1.8632813,0-3.3427734-0.5068359-4.4384766-1.5205078
		s-1.6435547-2.3935547-1.6435547-4.1396484c0-1.78125,0.7148438-3.1582031,2.1445313-4.1308594
		s3.5273438-1.4589844,6.2929688-1.4589844h2.6191406v-1.8632813c0-0.9140625-0.2636719-1.6230469-0.7910156-2.1269531
		s-1.3066406-0.7558594-2.3378906-0.7558594c-0.5859375,0-1.1074219,0.0673828-1.5644531,0.2021484
		s-0.8261719,0.2958984-1.1074219,0.4833984l-0.3339844,2.0390625h-3.8671875l0.0175781-4.21875
		c0.9375-0.6328125,2.0126953-1.1660156,3.2255859-1.5996094s2.5341797-0.6503906,3.9638672-0.6503906
		c2.3554688,0,4.2685547,0.5771484,5.7392578,1.7314453s2.2060547,2.7978516,2.2060547,4.9306641v7.8574219
		c0,0.2929688,0.0029297,0.5683594,0.0087891,0.8261719s0.0263672,0.5039063,0.0615234,0.7382813l1.5644531,0.2109375V87.5H67.71875
		z M63.2714844,84.0722656c0.7734375,0,1.4765625-0.1669922,2.109375-0.5009766s1.125-0.7529297,1.4765625-1.2568359v-2.9003906
		h-2.6191406c-1.0898438,0-1.9160156,0.2548828-2.4785156,0.7646484s-0.84375,1.1220703-0.84375,1.8369141
		c0,0.6445313,0.2080078,1.1484375,0.6240234,1.5117188S62.5332031,84.0722656,63.2714844,84.0722656z"/>
	<path fill="#00546D" d="M75.7695313,84.4238281l2.4609375-0.5273438V72.1015625l-2.7246094-0.5273438v-3.09375h7.5058594
		l0.2285156,2.7773438c0.4453125-0.984375,1.0195313-1.7519531,1.7226563-2.3027344s1.5175781-0.8261719,2.4433594-0.8261719
		c0.2695313,0,0.5537109,0.0205078,0.8525391,0.0615234s0.5478516,0.0908203,0.7470703,0.1494141l-0.5449219,4.6757813
		l-2.109375-0.0527344c-0.75,0-1.3710938,0.1464844-1.8632813,0.4394531s-0.8671875,0.7089844-1.125,1.2480469v9.2460938
		l2.4609375,0.5273438V87.5H75.7695313V84.4238281z"/>
	<path fill="#00546D" d="M102.5761719,85.1796875c-0.5976563,0.8789063-1.3037109,1.546875-2.1181641,2.0039063
		s-1.7431641,0.6855469-2.7861328,0.6855469c-2.34375,0-4.1630859-0.8554688-5.4580078-2.5664063
		s-1.9423828-3.9726563-1.9423828-6.7851563v-0.3691406c0-3,0.6503906-5.4199219,1.9511719-7.2597656
		s3.1289063-2.7597656,5.484375-2.7597656c0.9492188,0,1.8046875,0.2080078,2.5664063,0.6240234
		s1.4296875,1.0048828,2.0039063,1.7666016v-6.8203125l-2.7421875-0.5273438v-3.09375h2.7421875h5.1328125v23.8183594
		l2.4609375,0.5273438V87.5h-6.9082031L102.5761719,85.1796875z M95.4042969,78.5175781
		c0,1.6640625,0.2783203,2.9736328,0.8349609,3.9287109s1.4677734,1.4326172,2.7333984,1.4326172
		c0.75,0,1.4003906-0.1523438,1.9511719-0.4570313s1.0019531-0.7441406,1.3535156-1.3183594v-8.0683594
		c-0.3515625-0.609375-0.7998047-1.0810547-1.3447266-1.4150391s-1.1865234-0.5009766-1.9248047-0.5009766
		c-1.2539063,0-2.1679688,0.5566406-2.7421875,1.6699219s-0.8613281,2.5664063-0.8613281,4.359375V78.5175781z"/>
</g>
<g>
	<path fill="#0099E7" d="M142.6166992,61.5722656h-2.4785156V89.609375h2.4785156v3.796875h-7.6113281V57.7753906h7.6113281
		V61.5722656z"/>
	<path fill="#C9C800" d="M144.1108398,84.4238281l2.4785156-0.5273438v-11.8125h-2.8300781v-3.6035156h2.8300781v-2.109375
		c0-2.1328125,0.6152344-3.7763672,1.8457031-4.9306641s2.9589844-1.7314453,5.1855469-1.7314453
		c0.4335938,0,0.8759766,0.0322266,1.3271484,0.0966797s0.9462891,0.1552734,1.4853516,0.2724609l-0.4394531,3.8144531
		c-0.28125-0.046875-0.5537109-0.0878906-0.8173828-0.1230469s-0.5712891-0.0527344-0.9228516-0.0527344
		c-0.8320313,0-1.4619141,0.2285156-1.8896484,0.6855469s-0.6416016,1.1132813-0.6416016,1.96875v2.109375h3.7792969v3.6035156
		h-3.7792969v11.8125l2.4785156,0.5273438V87.5h-10.0898438V84.4238281z"/>
	<path fill="#C9C800" d="M170.5307617,85.0917969c-0.609375,0.890625-1.3623047,1.5761719-2.2587891,2.0566406
		s-1.9189453,0.7207031-3.0673828,0.7207031c-2.0039063,0-3.5742188-0.6416016-4.7109375-1.9248047
		s-1.7050781-3.2783203-1.7050781-5.9853516v-7.8574219l-2.0917969-0.5273438v-3.09375h2.0917969h5.1328125v11.5136719
		c0,1.3828125,0.2314453,2.3759766,0.6943359,2.9794922s1.1513672,0.9052734,2.0654297,0.9052734
		c0.8085938,0,1.5087891-0.1318359,2.1005859-0.3955078s1.0751953-0.6416016,1.4501953-1.1337891V72.1015625l-2.25-0.5273438
		v-3.09375h2.25h5.1328125v15.4160156l2.3027344,0.5273438V87.5h-6.8027344L170.5307617,85.0917969z"/>
	<path fill="#C9C800" d="M179.4077148,84.4238281l2.4609375-0.5273438V72.1015625l-2.7246094-0.5273438v-3.09375h7.5058594
		l0.2285156,2.7246094c0.6328125-0.9726563,1.4121094-1.7285156,2.3378906-2.2675781s1.9628906-0.8085938,3.1113281-0.8085938
		c1.921875,0,3.421875,0.6035156,4.5,1.8105469s1.6171875,3.0996094,1.6171875,5.6777344v8.2792969l2.4609375,0.5273438V87.5
		h-9.8085938v-3.0761719l2.1972656-0.5273438v-8.2617188c0-1.2773438-0.2578125-2.1826172-0.7734375-2.7158203
		s-1.2949219-0.7998047-2.3378906-0.7998047c-0.6796875,0-1.2890625,0.1376953-1.828125,0.4130859
		s-0.9902344,0.6650391-1.3535156,1.1689453v10.1953125l2.0742188,0.5273438V87.5h-9.6679688V84.4238281z"/>
	<path fill="#C9C800" d="M211.2944336,83.9316406c0.9140625,0,1.6464844-0.2666016,2.1972656-0.7998047
		s0.8261719-1.2451172,0.8261719-2.1357422h4.640625l0.0527344,0.1054688
		c0.046875,1.921875-0.6738281,3.5302734-2.1621094,4.8251953s-3.3398438,1.9423828-5.5546875,1.9423828
		c-2.8359375,0-5.0214844-0.8964844-6.5566406-2.6894531s-2.3027344-4.0957031-2.3027344-6.9082031v-0.5273438
		c0-2.8007813,0.7880859-5.1035156,2.3642578-6.9082031s3.8232422-2.7070313,6.7412109-2.7070313
		c1.5351563,0,2.9121094,0.2285156,4.1308594,0.6855469s2.2324219,1.1015625,3.0410156,1.9335938l0.0703125,5.0800781h-4.1660156
		l-0.84375-2.9707031c-0.2578125-0.2226563-0.5742188-0.4072266-0.9492188-0.5537109s-0.8027344-0.2197266-1.2832031-0.2197266
		c-1.453125,0-2.4785156,0.5273438-3.0761719,1.5820313s-0.8964844,2.4140625-0.8964844,4.078125v0.5273438
		c0,1.6992188,0.2753906,3.0673828,0.8261719,4.1044922S209.9116211,83.9316406,211.2944336,83.9316406z"/>
	<path fill="#C9C800" d="M228.9077148,63.8222656v4.6582031h3.3398438v3.6035156h-3.3398438v9.6855469
		c0,0.7382813,0.1523438,1.265625,0.4570313,1.5820313s0.7148438,0.4746094,1.2304688,0.4746094
		c0.3515625,0,0.6591797-0.0146484,0.9228516-0.0439453s0.5595703-0.0791016,0.8876953-0.1494141l0.4394531,3.7089844
		c-0.5742188,0.1757813-1.1425781,0.3076172-1.7050781,0.3955078s-1.171875,0.1318359-1.828125,0.1318359
		c-1.7695313,0-3.1318359-0.4863281-4.0869141-1.4589844s-1.4326172-2.5136719-1.4326172-4.6230469v-9.703125h-2.7949219v-3.6035156
		h2.7949219v-4.6582031H228.9077148z"/>
	<path fill="#C9C800" d="M234.6030273,84.4238281l2.4785156-0.5273438V72.1015625l-2.7421875-0.5273438v-3.09375h7.875v15.4160156
		l2.4609375,0.5273438V87.5h-10.0722656V84.4238281z M242.2143555,63.9277344h-5.1328125V60.078125h5.1328125V63.9277344z"/>
	<path fill="#C9C800" d="M246.362793,77.8144531c0-2.8359375,0.7939453-5.1591797,2.3818359-6.9697266
		s3.7822266-2.7158203,6.5830078-2.7158203c2.8125,0,5.0126953,0.9023438,6.6005859,2.7070313
		s2.3818359,4.1308594,2.3818359,6.9785156v0.3691406c0,2.859375-0.7939453,5.1884766-2.3818359,6.9873047
		s-3.7763672,2.6982422-6.5654297,2.6982422c-2.8242188,0-5.0302734-0.8994141-6.6181641-2.6982422
		s-2.3818359-4.1279297-2.3818359-6.9873047V77.8144531z M251.4956055,78.1835938
		c0,1.734375,0.3046875,3.1259766,0.9140625,4.1748047s1.59375,1.5732422,2.953125,1.5732422
		c1.3242188,0,2.2939453-0.5273438,2.9091797-1.5820313s0.9228516-2.4433594,0.9228516-4.1660156v-0.3691406
		c0-1.6875-0.3105469-3.0644531-0.9316406-4.1308594s-1.5996094-1.5996094-2.9355469-1.5996094
		s-2.3085938,0.5332031-2.9179688,1.5996094s-0.9140625,2.4433594-0.9140625,4.1308594V78.1835938z"/>
	<path fill="#C9C800" d="M266.2612305,84.4238281l2.4609375-0.5273438V72.1015625l-2.7246094-0.5273438v-3.09375h7.5058594
		l0.2285156,2.7246094c0.6328125-0.9726563,1.4121094-1.7285156,2.3378906-2.2675781s1.9628906-0.8085938,3.1113281-0.8085938
		c1.921875,0,3.421875,0.6035156,4.5,1.8105469s1.6171875,3.0996094,1.6171875,5.6777344v8.2792969l2.4609375,0.5273438V87.5
		h-9.8085938v-3.0761719l2.1972656-0.5273438v-8.2617188c0-1.2773438-0.2578125-2.1826172-0.7734375-2.7158203
		s-1.2949219-0.7998047-2.3378906-0.7998047c-0.6796875,0-1.2890625,0.1376953-1.828125,0.4130859
		s-0.9902344,0.6650391-1.3535156,1.1689453v10.1953125l2.0742188,0.5273438V87.5h-9.6679688V84.4238281z"/>
	<path fill="#0099E7" d="M288.4799805,57.7753906h7.6289063V93.40625h-7.6289063v-3.796875h2.5136719V61.5722656h-2.5136719
		V57.7753906z"/>
</g>
<g>
	<path fill="#0099E7" d="M330.5068359,61.5722656h-2.4785156V89.609375h2.4785156v3.796875h-7.6113281V57.7753906h7.6113281
		V61.5722656z"/>
	<path fill="#740073" d="M331.3330078,71.5742188v-3.09375h7.453125l0.2460938,2.2148438
		c0.5625-0.8203125,1.2363281-1.453125,2.0214844-1.8984375s1.6992188-0.6679688,2.7421875-0.6679688
		c2.3554688,0,4.1835938,0.9199219,5.484375,2.7597656s1.9511719,4.2597656,1.9511719,7.2597656v0.3691406
		c0,2.8125-0.6503906,5.0742188-1.9511719,6.7851563s-3.1171875,2.5664063-5.4492188,2.5664063
		c-0.9960938,0-1.8808594-0.1845703-2.6542969-0.5537109s-1.4355469-0.9111328-1.9863281-1.6259766v5.5019531l2.4785156,0.5273438
		v3.09375h-10.0722656v-3.09375l2.4785156-0.5273438V72.1015625L331.3330078,71.5742188z M346.0986328,78.1484375
		c0-1.7929688-0.2988281-3.2460938-0.8964844-4.359375s-1.5117188-1.6699219-2.7421875-1.6699219
		c-0.7734375,0-1.4326172,0.1582031-1.9775391,0.4746094s-0.9755859,0.7675781-1.2919922,1.3535156v8.3320313
		c0.3164063,0.5390625,0.7470703,0.9492188,1.2919922,1.2304688s1.2158203,0.421875,2.0126953,0.421875
		c1.2421875,0,2.1533203-0.4863281,2.7333984-1.4589844s0.8701172-2.2910156,0.8701172-3.9550781V78.1484375z"/>
	<path fill="#740073" d="M353.3583984,84.4238281l2.4785156-0.5273438V72.1015625l-2.7421875-0.5273438v-3.09375h7.875v15.4160156
		l2.4609375,0.5273438V87.5h-10.0722656V84.4238281z M360.9697266,63.9277344h-5.1328125V60.078125h5.1328125V63.9277344z"/>
	<path fill="#740073" d="M364.8369141,84.4238281l2.4609375-0.5273438V72.1015625l-2.7246094-0.5273438v-3.09375h7.5058594
		l0.2285156,2.7246094c0.6328125-0.9726563,1.4121094-1.7285156,2.3378906-2.2675781s1.9628906-0.8085938,3.1113281-0.8085938
		c1.921875,0,3.421875,0.6035156,4.5,1.8105469s1.6171875,3.0996094,1.6171875,5.6777344v8.2792969l2.4609375,0.5273438V87.5
		h-9.8085938v-3.0761719l2.1972656-0.5273438v-8.2617188c0-1.2773438-0.2578125-2.1826172-0.7734375-2.7158203
		s-1.2949219-0.7998047-2.3378906-0.7998047c-0.6796875,0-1.2890625,0.1376953-1.828125,0.4130859
		s-0.9902344,0.6650391-1.3535156,1.1689453v10.1953125l2.0742188,0.5273438V87.5h-9.6679688V84.4238281z"/>
	<path fill="#0099E7" d="M387.0556641,57.7753906h7.6289063V93.40625h-7.6289063v-3.796875h2.5136719V61.5722656h-2.5136719
		V57.7753906z"/>
</g>
<g>
	<path fill="#0099E7" d="M429.0820313,61.5722656h-2.4785156V89.609375h2.4785156v3.796875h-7.6113281V57.7753906h7.6113281
		V61.5722656z"/>
	<path fill="#00009A" d="M438.3632813,71.5742188l-1.7929688,0.3339844l2.5136719,8.5078125l0.3339844,1.7929688h0.1054688
		l0.3691406-1.7929688l2.4785156-8.4902344l-1.828125-0.3515625v-3.09375h8.6308594v3.09375l-1.6523438,0.2636719L441.9140625,87.5
		h-4.9042969l-5.625-15.6621094l-1.6523438-0.2636719v-3.09375h8.6308594V71.5742188z"/>
	<path fill="#00009A" d="M462.65625,87.5c-0.140625-0.3164063-0.2636719-0.6416016-0.3691406-0.9755859
		s-0.1875-0.6708984-0.2460938-1.0107422c-0.609375,0.703125-1.3505859,1.2714844-2.2236328,1.7050781
		s-1.8720703,0.6503906-2.9970703,0.6503906c-1.8632813,0-3.3427734-0.5068359-4.4384766-1.5205078
		s-1.6435547-2.3935547-1.6435547-4.1396484c0-1.78125,0.7148438-3.1582031,2.1445313-4.1308594
		s3.5273438-1.4589844,6.2929688-1.4589844h2.6191406v-1.8632813c0-0.9140625-0.2636719-1.6230469-0.7910156-2.1269531
		s-1.3066406-0.7558594-2.3378906-0.7558594c-0.5859375,0-1.1074219,0.0673828-1.5644531,0.2021484
		s-0.8261719,0.2958984-1.1074219,0.4833984l-0.3339844,2.0390625h-3.8671875l0.0175781-4.21875
		c0.9375-0.6328125,2.0126953-1.1660156,3.2255859-1.5996094S457.5703125,68.1289063,459,68.1289063
		c2.3554688,0,4.2685547,0.5771484,5.7392578,1.7314453s2.2060547,2.7978516,2.2060547,4.9306641v7.8574219
		c0,0.2929688,0.0029297,0.5683594,0.0087891,0.8261719s0.0263672,0.5039063,0.0615234,0.7382813l1.5644531,0.2109375V87.5
		H462.65625z M458.2089844,84.0722656c0.7734375,0,1.4765625-0.1669922,2.109375-0.5009766s1.125-0.7529297,1.4765625-1.2568359
		v-2.9003906h-2.6191406c-1.0898438,0-1.9160156,0.2548828-2.4785156,0.7646484s-0.84375,1.1220703-0.84375,1.8369141
		c0,0.6445313,0.2080078,1.1484375,0.6240234,1.5117188S457.4707031,84.0722656,458.2089844,84.0722656z"/>
	<path fill="#00009A" d="M469.7753906,63.171875v-3.09375h7.875v23.8183594l2.4785156,0.5273438V87.5h-10.0898438v-3.0761719
		l2.4785156-0.5273438V63.6992188L469.7753906,63.171875z"/>
	<path fill="#00009A" d="M495.1054688,85.0917969c-0.609375,0.890625-1.3623047,1.5761719-2.2587891,2.0566406
		s-1.9189453,0.7207031-3.0673828,0.7207031c-2.0039063,0-3.5742188-0.6416016-4.7109375-1.9248047
		s-1.7050781-3.2783203-1.7050781-5.9853516v-7.8574219l-2.0917969-0.5273438v-3.09375h2.0917969h5.1328125v11.5136719
		c0,1.3828125,0.2314453,2.3759766,0.6943359,2.9794922s1.1513672,0.9052734,2.0654297,0.9052734
		c0.8085938,0,1.5087891-0.1318359,2.1005859-0.3955078s1.0751953-0.6416016,1.4501953-1.1337891V72.1015625l-2.25-0.5273438
		v-3.09375h2.25h5.1328125v15.4160156l2.3027344,0.5273438V87.5h-6.8027344L495.1054688,85.0917969z"/>
	<path fill="#00009A" d="M513.3691406,87.8691406c-2.7421875,0-4.9335938-0.8789063-6.5742188-2.6367188
		s-2.4609375-3.9902344-2.4609375-6.6972656v-0.703125c0-2.8242188,0.7763672-5.1503906,2.3291016-6.9785156
		s3.6357422-2.7363281,6.2490234-2.7246094c2.5664063,0,4.5585938,0.7734375,5.9765625,2.3203125
		s2.1269531,3.6386719,2.1269531,6.2753906v2.7949219h-11.3554688L509.625,79.625
		c0.09375,1.2539063,0.5126953,2.2851563,1.2568359,3.09375s1.7548828,1.2128906,3.0322266,1.2128906
		c1.1367188,0,2.0800781-0.1142578,2.8300781-0.3427734S518.3144531,83,519.2050781,82.5078125l1.3886719,3.1640625
		c-0.7851563,0.6210938-1.8017578,1.1425781-3.0498047,1.5644531S514.9042969,87.8691406,513.3691406,87.8691406z
		 M512.9121094,72.0839844c-0.9492188,0-1.6992188,0.3632813-2.25,1.0898438s-0.890625,1.6816406-1.0195313,2.8652344
		l0.0527344,0.0878906h6.2929688v-0.4570313c0-1.0898438-0.2548828-1.9599609-0.7646484-2.6103516
		S513.9433594,72.0839844,512.9121094,72.0839844z"/>
	<path fill="#0099E7" d="M522.5273438,57.7753906h7.6289063V93.40625h-7.6289063v-3.796875h2.5136719V61.5722656h-2.5136719
		V57.7753906z"/>
</g>
<g>
	<path fill="#0099E7" d="M564.5546875,61.5722656h-2.4785156V89.609375h2.4785156v3.796875h-7.6113281V57.7753906h7.6113281
		V61.5722656z"/>
	<path d="M585.4550781,71.5742188l-1.7753906,0.2636719l-6.9960938,18.5097656
		c-0.5507813,1.3710938-1.2861328,2.5195313-2.2060547,3.4453125s-2.3056641,1.3886719-4.1572266,1.3886719
		c-0.4335938,0-0.8408203-0.0351563-1.2216797-0.1054688s-0.8291016-0.1699219-1.3447266-0.2988281l0.5976563-3.7441406
		c0.1640625,0.0234375,0.3339844,0.046875,0.5097656,0.0703125s0.328125,0.0351563,0.4570313,0.0351563
		c0.8554688,0,1.5117188-0.2080078,1.96875-0.6240234s0.8085938-0.9345703,1.0546875-1.5556641l0.5800781-1.4414063
		l-6.0292969-15.6621094l-1.7753906-0.28125v-3.09375h9.3164063v3.09375l-2.1269531,0.3515625l2.6015625,7.59375
		l0.2636719,1.3710938l0.1054688,0.0175781l3.0058594-8.9824219l-2.1445313-0.3515625v-3.09375h9.3164063V71.5742188z"/>
	<path d="M586.8085938,77.8144531c0-2.8359375,0.7939453-5.1591797,2.3818359-6.9697266s3.7822266-2.7158203,6.5830078-2.7158203
		c2.8125,0,5.0126953,0.9023438,6.6005859,2.7070313s2.3818359,4.1308594,2.3818359,6.9785156v0.3691406
		c0,2.859375-0.7939453,5.1884766-2.3818359,6.9873047s-3.7763672,2.6982422-6.5654297,2.6982422
		c-2.8242188,0-5.0302734-0.8994141-6.6181641-2.6982422s-2.3818359-4.1279297-2.3818359-6.9873047V77.8144531z
		 M591.9414063,78.1835938c0,1.734375,0.3046875,3.1259766,0.9140625,4.1748047s1.59375,1.5732422,2.953125,1.5732422
		c1.3242188,0,2.2939453-0.5273438,2.9091797-1.5820313s0.9228516-2.4433594,0.9228516-4.1660156v-0.3691406
		c0-1.6875-0.3105469-3.0644531-0.9316406-4.1308594s-1.5996094-1.5996094-2.9355469-1.5996094
		s-2.3085938,0.5332031-2.9179688,1.5996094s-0.9140625,2.4433594-0.9140625,4.1308594V78.1835938z"/>
	<path d="M620.2949219,85.0917969c-0.609375,0.890625-1.3623047,1.5761719-2.2587891,2.0566406
		s-1.9189453,0.7207031-3.0673828,0.7207031c-2.0039063,0-3.5742188-0.6416016-4.7109375-1.9248047
		s-1.7050781-3.2783203-1.7050781-5.9853516v-7.8574219l-2.0917969-0.5273438v-3.09375h2.0917969h5.1328125v11.5136719
		c0,1.3828125,0.2314453,2.3759766,0.6943359,2.9794922s1.1513672,0.9052734,2.0654297,0.9052734
		c0.8085938,0,1.5087891-0.1318359,2.1005859-0.3955078s1.0751953-0.6416016,1.4501953-1.1337891V72.1015625l-2.25-0.5273438
		v-3.09375h2.25h5.1328125v15.4160156l2.3027344,0.5273438V87.5h-6.8027344L620.2949219,85.0917969z"/>
	<path d="M629.8398438,84.4238281l2.4609375-0.5273438V72.1015625l-2.7246094-0.5273438v-3.09375h7.5058594l0.2285156,2.7773438
		c0.4453125-0.984375,1.0195313-1.7519531,1.7226563-2.3027344s1.5175781-0.8261719,2.4433594-0.8261719
		c0.2695313,0,0.5537109,0.0205078,0.8525391,0.0615234s0.5478516,0.0908203,0.7470703,0.1494141L642.53125,73.015625
		l-2.109375-0.0527344c-0.75,0-1.3710938,0.1464844-1.8632813,0.4394531s-0.8671875,0.7089844-1.125,1.2480469v9.2460938
		l2.4609375,0.5273438V87.5h-10.0546875V84.4238281z"/>
	<path d="M653.2011719,83.9316406c0.9140625,0,1.6464844-0.2666016,2.1972656-0.7998047s0.8261719-1.2451172,0.8261719-2.1357422
		h4.640625l0.0527344,0.1054688c0.046875,1.921875-0.6738281,3.5302734-2.1621094,4.8251953
		s-3.3398438,1.9423828-5.5546875,1.9423828c-2.8359375,0-5.0214844-0.8964844-6.5566406-2.6894531
		s-2.3027344-4.0957031-2.3027344-6.9082031v-0.5273438c0-2.8007813,0.7880859-5.1035156,2.3642578-6.9082031
		s3.8232422-2.7070313,6.7412109-2.7070313c1.5351563,0,2.9121094,0.2285156,4.1308594,0.6855469
		s2.2324219,1.1015625,3.0410156,1.9335938l0.0703125,5.0800781h-4.1660156l-0.84375-2.9707031
		c-0.2578125-0.2226563-0.5742188-0.4072266-0.9492188-0.5537109s-0.8027344-0.2197266-1.2832031-0.2197266
		c-1.453125,0-2.4785156,0.5273438-3.0761719,1.5820313s-0.8964844,2.4140625-0.8964844,4.078125v0.5273438
		c0,1.6992188,0.2753906,3.0673828,0.8261719,4.1044922S651.8183594,83.9316406,653.2011719,83.9316406z"/>
	<path d="M662.6933594,63.171875v-3.09375h7.875v23.8183594l2.4785156,0.5273438V87.5h-10.0898438v-3.0761719l2.4785156-0.5273438
		V63.6992188L662.6933594,63.171875z"/>
	<path d="M686.828125,87.5c-0.140625-0.3164063-0.2636719-0.6416016-0.3691406-0.9755859s-0.1875-0.6708984-0.2460938-1.0107422
		c-0.609375,0.703125-1.3505859,1.2714844-2.2236328,1.7050781s-1.8720703,0.6503906-2.9970703,0.6503906
		c-1.8632813,0-3.3427734-0.5068359-4.4384766-1.5205078s-1.6435547-2.3935547-1.6435547-4.1396484
		c0-1.78125,0.7148438-3.1582031,2.1445313-4.1308594s3.5273438-1.4589844,6.2929688-1.4589844h2.6191406v-1.8632813
		c0-0.9140625-0.2636719-1.6230469-0.7910156-2.1269531s-1.3066406-0.7558594-2.3378906-0.7558594
		c-0.5859375,0-1.1074219,0.0673828-1.5644531,0.2021484s-0.8261719,0.2958984-1.1074219,0.4833984l-0.3339844,2.0390625h-3.8671875
		l0.0175781-4.21875c0.9375-0.6328125,2.0126953-1.1660156,3.2255859-1.5996094s2.5341797-0.6503906,3.9638672-0.6503906
		c2.3554688,0,4.2685547,0.5771484,5.7392578,1.7314453s2.2060547,2.7978516,2.2060547,4.9306641v7.8574219
		c0,0.2929688,0.0029297,0.5683594,0.0087891,0.8261719s0.0263672,0.5039063,0.0615234,0.7382813l1.5644531,0.2109375V87.5
		H686.828125z M682.3808594,84.0722656c0.7734375,0,1.4765625-0.1669922,2.109375-0.5009766s1.125-0.7529297,1.4765625-1.2568359
		v-2.9003906h-2.6191406c-1.0898438,0-1.9160156,0.2548828-2.4785156,0.7646484s-0.84375,1.1220703-0.84375,1.8369141
		c0,0.6445313,0.2080078,1.1484375,0.6240234,1.5117188S681.6425781,84.0722656,682.3808594,84.0722656z"/>
	<path d="M710.0136719,75.0195313h-3.4453125l-0.5449219-2.3730469c-0.3515625-0.28125-0.7939453-0.515625-1.3271484-0.703125
		s-1.1220703-0.28125-1.7666016-0.28125c-0.9023438,0-1.6171875,0.2021484-2.1445313,0.6064453
		s-0.7910156,0.9111328-0.7910156,1.5205078c0,0.5742188,0.2519531,1.0517578,0.7558594,1.4326172
		s1.5117188,0.7177734,3.0234375,1.0107422c2.3554688,0.46875,4.1015625,1.1572266,5.2382813,2.0654297
		s1.7050781,2.1591797,1.7050781,3.7529297c0,1.7109375-0.7353516,3.1083984-2.2060547,4.1923828
		s-3.4072266,1.6259766-5.8095703,1.6259766c-1.4648438,0-2.8095703-0.2138672-4.0341797-0.6416016
		S696.3554688,86.1875,695.40625,85.390625l-0.0527344-4.2714844h3.5859375l0.703125,2.4785156
		c0.3046875,0.2578125,0.7207031,0.4482422,1.2480469,0.5712891s1.078125,0.1845703,1.6523438,0.1845703
		c1.0429688,0,1.8369141-0.1875,2.3818359-0.5625s0.8173828-0.8847656,0.8173828-1.5292969
		c0-0.5625-0.2753906-1.0488281-0.8261719-1.4589844s-1.5644531-0.7734375-3.0410156-1.0898438
		c-2.2382813-0.4570313-3.9287109-1.1337891-5.0712891-2.0302734s-1.7138672-2.1181641-1.7138672-3.6650391
		c0-1.59375,0.65625-2.9677734,1.96875-4.1220703s3.1816406-1.7314453,5.6074219-1.7314453
		c1.4765625,0,2.8740234,0.1992188,4.1923828,0.5976563s2.3525391,0.9082031,3.1025391,1.5292969L710.0136719,75.0195313z"/>
	<path d="M728.5410156,75.0195313h-3.4453125l-0.5449219-2.3730469c-0.3515625-0.28125-0.7939453-0.515625-1.3271484-0.703125
		s-1.1220703-0.28125-1.7666016-0.28125c-0.9023438,0-1.6171875,0.2021484-2.1445313,0.6064453
		s-0.7910156,0.9111328-0.7910156,1.5205078c0,0.5742188,0.2519531,1.0517578,0.7558594,1.4326172
		s1.5117188,0.7177734,3.0234375,1.0107422c2.3554688,0.46875,4.1015625,1.1572266,5.2382813,2.0654297
		s1.7050781,2.1591797,1.7050781,3.7529297c0,1.7109375-0.7353516,3.1083984-2.2060547,4.1923828
		s-3.4072266,1.6259766-5.8095703,1.6259766c-1.4648438,0-2.8095703-0.2138672-4.0341797-0.6416016
		s-2.3115234-1.0400391-3.2607422-1.8369141l-0.0527344-4.2714844h3.5859375l0.703125,2.4785156
		c0.3046875,0.2578125,0.7207031,0.4482422,1.2480469,0.5712891s1.078125,0.1845703,1.6523438,0.1845703
		c1.0429688,0,1.8369141-0.1875,2.3818359-0.5625s0.8173828-0.8847656,0.8173828-1.5292969
		c0-0.5625-0.2753906-1.0488281-0.8261719-1.4589844s-1.5644531-0.7734375-3.0410156-1.0898438
		c-2.2382813-0.4570313-3.9287109-1.1337891-5.0712891-2.0302734s-1.7138672-2.1181641-1.7138672-3.6650391
		c0-1.59375,0.65625-2.9677734,1.96875-4.1220703s3.1816406-1.7314453,5.6074219-1.7314453
		c1.4765625,0,2.8740234,0.1992188,4.1923828,0.5976563s2.3525391,0.9082031,3.1025391,1.5292969L728.5410156,75.0195313z"/>
	<path fill="#0099E7" d="M730.6328125,57.7753906h7.6289063V93.40625h-7.6289063v-3.796875h2.5136719V61.5722656h-2.5136719
		V57.7753906z"/>
</g>
<g>
</g>
<g>
</g>
<g>
</g>
<g>
</g>
<g>
</g>
<g>
</g>
</svg>
